<mxfile host="app.diagrams.net" modified="2024-04-11T19:43:36.651Z" agent="Mozilla/5.0 (X11; Linux x86_64) AppleWebKit/537.36 (KHTML, like Gecko) Chrome/122.0.0.0 Safari/537.36 Edg/122.0.0.0" etag="EjMxwhGP-a5CT5eL3SL1" version="24.2.2" type="github">
  <diagram name="Page-1" id="1mlQmXnzB4ciEe5e4Xdm">
    <mxGraphModel dx="2760" dy="2967" grid="1" gridSize="10" guides="1" tooltips="1" connect="1" arrows="1" fold="1" page="1" pageScale="1" pageWidth="1100" pageHeight="850" math="0" shadow="0">
      <root>
        <mxCell id="0" />
        <mxCell id="1" parent="0" />
        <mxCell id="Fofwsoo18Ka0ADrm3eSA-19" value="" style="rounded=1;whiteSpace=wrap;html=1;" vertex="1" parent="1">
          <mxGeometry x="-490" y="2180" width="470" height="270" as="geometry" />
        </mxCell>
        <mxCell id="Fofwsoo18Ka0ADrm3eSA-17" value="" style="rounded=1;whiteSpace=wrap;html=1;" vertex="1" parent="1">
          <mxGeometry x="-690" y="2050" width="680" height="570" as="geometry" />
        </mxCell>
        <mxCell id="wUTPFzmtWlpO7wMYFoVt-68" value="" style="rounded=1;whiteSpace=wrap;html=1;strokeColor=#82b366;fillColor=#d5e8d4;" parent="1" vertex="1">
          <mxGeometry x="30" y="-590" width="1260" height="1840" as="geometry" />
        </mxCell>
        <mxCell id="wUTPFzmtWlpO7wMYFoVt-59" value="" style="rounded=1;whiteSpace=wrap;html=1;fillColor=#dae8fc;strokeColor=#6c8ebf;" parent="1" vertex="1">
          <mxGeometry x="345" y="-180" width="735" height="680" as="geometry" />
        </mxCell>
        <mxCell id="wUTPFzmtWlpO7wMYFoVt-48" style="edgeStyle=orthogonalEdgeStyle;rounded=0;orthogonalLoop=1;jettySize=auto;html=1;entryX=0.5;entryY=1;entryDx=0;entryDy=0;strokeColor=#A8201A;fontColor=#143642;fillColor=#FAE5C7;shape=flexArrow;exitX=0.5;exitY=0;exitDx=0;exitDy=0;flowAnimation=1;" parent="1" source="wUTPFzmtWlpO7wMYFoVt-41" target="wUTPFzmtWlpO7wMYFoVt-10" edge="1">
          <mxGeometry relative="1" as="geometry">
            <mxPoint x="520" y="600" as="sourcePoint" />
            <mxPoint x="765" y="450" as="targetPoint" />
          </mxGeometry>
        </mxCell>
        <mxCell id="wUTPFzmtWlpO7wMYFoVt-38" style="edgeStyle=orthogonalEdgeStyle;rounded=1;orthogonalLoop=1;jettySize=auto;html=1;shape=flexArrow;fillColor=#FAE5C7;strokeColor=#A8201A;labelBackgroundColor=none;fontColor=default;" parent="1" target="wUTPFzmtWlpO7wMYFoVt-1" edge="1">
          <mxGeometry relative="1" as="geometry">
            <mxPoint x="-70" y="270" as="targetPoint" />
            <mxPoint x="590" y="100" as="sourcePoint" />
            <Array as="points">
              <mxPoint x="260" y="100" />
              <mxPoint x="260" y="230" />
            </Array>
          </mxGeometry>
        </mxCell>
        <mxCell id="wUTPFzmtWlpO7wMYFoVt-1" value="" style="rounded=1;whiteSpace=wrap;html=1;movable=1;resizable=1;rotatable=1;deletable=1;editable=1;locked=0;connectable=1;labelBackgroundColor=none;" parent="1" vertex="1">
          <mxGeometry x="-460" y="40" width="380" height="455.2" as="geometry" />
        </mxCell>
        <mxCell id="wUTPFzmtWlpO7wMYFoVt-2" value="" style="dashed=0;outlineConnect=0;html=1;align=center;labelPosition=center;verticalLabelPosition=bottom;verticalAlign=top;shape=mxgraph.weblogos.html5;movable=1;resizable=1;rotatable=1;deletable=1;editable=1;locked=0;connectable=1;labelBackgroundColor=none;fillColor=#FAE5C7;strokeColor=#0F8B8D;fontColor=#143642;" parent="1" vertex="1">
          <mxGeometry x="-400" y="130" width="80" height="110" as="geometry" />
        </mxCell>
        <mxCell id="wUTPFzmtWlpO7wMYFoVt-3" value="" style="html=1;shadow=0;dashed=0;align=center;verticalAlign=middle;shape=mxgraph.arrows2.twoWayArrow;dy=0.65;dx=22;movable=1;resizable=1;rotatable=1;deletable=1;editable=1;locked=0;connectable=1;labelBackgroundColor=none;fillColor=#FAE5C7;strokeColor=#0F8B8D;fontColor=#143642;" parent="1" vertex="1">
          <mxGeometry x="-300" y="155" width="100" height="60" as="geometry" />
        </mxCell>
        <mxCell id="wUTPFzmtWlpO7wMYFoVt-4" value="" style="shape=image;html=1;verticalAlign=top;verticalLabelPosition=bottom;labelBackgroundColor=none;imageAspect=0;aspect=fixed;image=https://cdn4.iconfinder.com/data/icons/scripting-and-programming-languages/512/js-128.png;movable=1;resizable=1;rotatable=1;deletable=1;editable=1;locked=0;connectable=1;fillColor=#FAE5C7;strokeColor=#0F8B8D;fontColor=#143642;" parent="1" vertex="1">
          <mxGeometry x="-420" y="330" width="128" height="128" as="geometry" />
        </mxCell>
        <mxCell id="wUTPFzmtWlpO7wMYFoVt-5" value="" style="html=1;shadow=0;dashed=0;align=center;verticalAlign=middle;shape=mxgraph.arrows2.twoWayArrow;dy=0.65;dx=22;direction=south;movable=1;resizable=1;rotatable=1;deletable=1;editable=1;locked=0;connectable=1;labelBackgroundColor=none;fillColor=#FAE5C7;strokeColor=#0F8B8D;fontColor=#143642;" parent="1" vertex="1">
          <mxGeometry x="-390" y="240" width="60" height="100" as="geometry" />
        </mxCell>
        <mxCell id="wUTPFzmtWlpO7wMYFoVt-7" value="&lt;b&gt;&lt;font style=&quot;font-size: 34px;&quot;&gt;CSS&lt;/font&gt;&lt;/b&gt;" style="text;strokeColor=none;align=center;fillColor=none;html=1;verticalAlign=middle;whiteSpace=wrap;rounded=0;movable=1;resizable=1;rotatable=1;deletable=1;editable=1;locked=0;connectable=1;labelBackgroundColor=none;fontColor=#143642;" parent="1" vertex="1">
          <mxGeometry x="-180" y="150" width="80" height="65" as="geometry" />
        </mxCell>
        <mxCell id="wUTPFzmtWlpO7wMYFoVt-8" value="&lt;b&gt;&lt;font style=&quot;font-size: 34px;&quot;&gt;FRONTEND&lt;/font&gt;&lt;/b&gt;" style="text;strokeColor=none;align=center;fillColor=none;html=1;verticalAlign=middle;whiteSpace=wrap;rounded=0;movable=1;resizable=1;rotatable=1;deletable=1;editable=1;locked=0;connectable=1;labelBackgroundColor=none;fontColor=#143642;" parent="1" vertex="1">
          <mxGeometry x="-310" y="40" width="80" height="65" as="geometry" />
        </mxCell>
        <mxCell id="wUTPFzmtWlpO7wMYFoVt-39" style="edgeStyle=orthogonalEdgeStyle;rounded=0;orthogonalLoop=1;jettySize=auto;html=1;entryX=0;entryY=0.5;entryDx=0;entryDy=0;labelBackgroundColor=none;strokeColor=#A8201A;fontColor=default;" parent="1" source="wUTPFzmtWlpO7wMYFoVt-9" target="wUTPFzmtWlpO7wMYFoVt-31" edge="1">
          <mxGeometry relative="1" as="geometry" />
        </mxCell>
        <mxCell id="wUTPFzmtWlpO7wMYFoVt-9" value="" style="aspect=fixed;sketch=0;html=1;dashed=0;whitespace=wrap;fillColor=#FAE5C7;strokeColor=#0F8B8D;points=[[0.005,0.63,0],[0.1,0.2,0],[0.9,0.2,0],[0.5,0,0],[0.995,0.63,0],[0.72,0.99,0],[0.5,1,0],[0.28,0.99,0]];shape=mxgraph.kubernetes.icon2;kubernetesLabel=1;prIcon=api;movable=1;resizable=1;rotatable=1;deletable=1;editable=1;locked=0;connectable=1;labelBackgroundColor=none;fontColor=#143642;" parent="1" vertex="1">
          <mxGeometry x="-240" y="320" width="130" height="124.8" as="geometry" />
        </mxCell>
        <mxCell id="wUTPFzmtWlpO7wMYFoVt-46" style="edgeStyle=orthogonalEdgeStyle;rounded=1;orthogonalLoop=1;jettySize=auto;html=1;entryX=0.5;entryY=0;entryDx=0;entryDy=0;strokeColor=#A8201A;fontColor=#143642;fillColor=#FAE5C7;shape=flexArrow;flowAnimation=1;" parent="1" source="wUTPFzmtWlpO7wMYFoVt-10" target="wUTPFzmtWlpO7wMYFoVt-41" edge="1">
          <mxGeometry relative="1" as="geometry" />
        </mxCell>
        <mxCell id="wUTPFzmtWlpO7wMYFoVt-10" value="" style="rounded=1;whiteSpace=wrap;html=1;labelBackgroundColor=none;" parent="1" vertex="1">
          <mxGeometry x="547.5" y="-42.5" width="330" height="522.5" as="geometry" />
        </mxCell>
        <mxCell id="wUTPFzmtWlpO7wMYFoVt-23" style="edgeStyle=orthogonalEdgeStyle;rounded=1;orthogonalLoop=1;jettySize=auto;html=1;shape=flexArrow;entryX=0;entryY=0.25;entryDx=0;entryDy=0;fillColor=#FAE5C7;strokeColor=#A8201A;labelBackgroundColor=none;fontColor=default;" parent="1" target="wUTPFzmtWlpO7wMYFoVt-10" edge="1">
          <mxGeometry relative="1" as="geometry">
            <mxPoint x="-70" y="230" as="sourcePoint" />
          </mxGeometry>
        </mxCell>
        <mxCell id="wUTPFzmtWlpO7wMYFoVt-11" value="&lt;b&gt;&lt;font style=&quot;font-size: 34px;&quot;&gt;LOGIC LAYER&lt;/font&gt;&lt;/b&gt;" style="text;strokeColor=none;align=center;fillColor=none;html=1;verticalAlign=middle;whiteSpace=wrap;rounded=0;movable=1;resizable=1;rotatable=1;deletable=1;editable=1;locked=0;connectable=1;labelBackgroundColor=none;fontColor=#143642;" parent="1" vertex="1">
          <mxGeometry x="567.5" y="-42.5" width="290" height="65" as="geometry" />
        </mxCell>
        <mxCell id="wUTPFzmtWlpO7wMYFoVt-12" value="" style="rounded=1;whiteSpace=wrap;html=1;labelBackgroundColor=none;fillColor=#FAE5C7;strokeColor=#0F8B8D;fontColor=#143642;" parent="1" vertex="1">
          <mxGeometry x="557.5" y="180.5" width="310" height="259.5" as="geometry" />
        </mxCell>
        <mxCell id="wUTPFzmtWlpO7wMYFoVt-29" style="edgeStyle=orthogonalEdgeStyle;rounded=0;orthogonalLoop=1;jettySize=auto;html=1;exitX=0.5;exitY=0;exitDx=0;exitDy=0;entryX=1;entryY=0.5;entryDx=0;entryDy=0;labelBackgroundColor=none;strokeColor=#A8201A;fontColor=default;" parent="1" source="wUTPFzmtWlpO7wMYFoVt-13" target="wUTPFzmtWlpO7wMYFoVt-22" edge="1">
          <mxGeometry relative="1" as="geometry" />
        </mxCell>
        <mxCell id="wUTPFzmtWlpO7wMYFoVt-13" value="&lt;b&gt;&lt;font style=&quot;font-size: 34px;&quot;&gt;SERVICES&lt;/font&gt;&lt;/b&gt;" style="text;strokeColor=none;align=center;fillColor=none;html=1;verticalAlign=middle;whiteSpace=wrap;rounded=0;movable=1;resizable=1;rotatable=1;deletable=1;editable=1;locked=0;connectable=1;labelBackgroundColor=none;fontColor=#143642;" parent="1" vertex="1">
          <mxGeometry x="567.5" y="175" width="290" height="65" as="geometry" />
        </mxCell>
        <mxCell id="wUTPFzmtWlpO7wMYFoVt-15" value="User Management" style="shape=module;align=left;spacingLeft=20;align=center;verticalAlign=top;whiteSpace=wrap;html=1;labelBackgroundColor=none;fillColor=#FAE5C7;strokeColor=#0F8B8D;fontColor=#143642;" parent="1" vertex="1">
          <mxGeometry x="567.5" y="240.5" width="100" height="50" as="geometry" />
        </mxCell>
        <mxCell id="wUTPFzmtWlpO7wMYFoVt-16" value="Course Management" style="shape=module;align=left;spacingLeft=20;align=center;verticalAlign=top;whiteSpace=wrap;html=1;labelBackgroundColor=none;fillColor=#FAE5C7;strokeColor=#0F8B8D;fontColor=#143642;" parent="1" vertex="1">
          <mxGeometry x="727.5" y="240" width="100" height="50" as="geometry" />
        </mxCell>
        <mxCell id="wUTPFzmtWlpO7wMYFoVt-17" value="Class Management" style="shape=module;align=left;spacingLeft=20;align=center;verticalAlign=top;whiteSpace=wrap;html=1;labelBackgroundColor=none;fillColor=#FAE5C7;strokeColor=#0F8B8D;fontColor=#143642;" parent="1" vertex="1">
          <mxGeometry x="567.5" y="307.5" width="100" height="50" as="geometry" />
        </mxCell>
        <mxCell id="wUTPFzmtWlpO7wMYFoVt-18" value="Communitcation Management" style="shape=module;align=left;spacingLeft=20;align=center;verticalAlign=top;whiteSpace=wrap;html=1;labelBackgroundColor=none;fillColor=#FAE5C7;strokeColor=#0F8B8D;fontColor=#143642;" parent="1" vertex="1">
          <mxGeometry x="717.5" y="307.5" width="110" height="50" as="geometry" />
        </mxCell>
        <mxCell id="wUTPFzmtWlpO7wMYFoVt-30" style="edgeStyle=orthogonalEdgeStyle;rounded=0;orthogonalLoop=1;jettySize=auto;html=1;exitX=1;exitY=0.25;exitDx=0;exitDy=0;labelBackgroundColor=none;strokeColor=#A8201A;fontColor=default;" parent="1" source="wUTPFzmtWlpO7wMYFoVt-22" target="wUTPFzmtWlpO7wMYFoVt-13" edge="1">
          <mxGeometry relative="1" as="geometry">
            <Array as="points">
              <mxPoint x="767.5" y="82.5" />
              <mxPoint x="787.5" y="82.5" />
              <mxPoint x="787.5" y="143.5" />
              <mxPoint x="712.5" y="143.5" />
            </Array>
          </mxGeometry>
        </mxCell>
        <mxCell id="wUTPFzmtWlpO7wMYFoVt-22" value="" style="rounded=1;whiteSpace=wrap;html=1;labelBackgroundColor=none;fillColor=#FAE5C7;strokeColor=#0F8B8D;fontColor=#143642;" parent="1" vertex="1">
          <mxGeometry x="647.5" y="52.5" width="120" height="60" as="geometry" />
        </mxCell>
        <mxCell id="wUTPFzmtWlpO7wMYFoVt-33" style="edgeStyle=orthogonalEdgeStyle;rounded=0;orthogonalLoop=1;jettySize=auto;html=1;exitX=0.5;exitY=1;exitDx=0;exitDy=0;entryX=0;entryY=0.5;entryDx=0;entryDy=0;labelBackgroundColor=none;strokeColor=#A8201A;fontColor=default;" parent="1" source="wUTPFzmtWlpO7wMYFoVt-4" target="wUTPFzmtWlpO7wMYFoVt-31" edge="1">
          <mxGeometry relative="1" as="geometry">
            <mxPoint x="450" y="350" as="sourcePoint" />
          </mxGeometry>
        </mxCell>
        <mxCell id="wUTPFzmtWlpO7wMYFoVt-31" value="" style="shape=image;imageAspect=0;aspect=fixed;verticalLabelPosition=bottom;verticalAlign=top;image=data:image/png,iVBORw0KGgoAAAANSUhEUgAAA+gAAAH0CAYAAACuKActAAAMvnpUWHRSYXcgcHJvZmlsZSB0eXBlIGV4aWYAAHja5ZlrktzIDYT/1yl8hHqhgDpOPSN8Ax/fHzjUyKOV5fXu/nCEpzXDbjZZDyCRmaDC+cffb/gbP6VKDVXUWm8t8lN77XnwxuLHz8cxxfr8fX6OxfKe/XI+3Pq+zRz9ko/LYjsfxzQ4L99v0Pqen1/PB10fb7K9A71ffBuw+MyZN+919g5U8sf59H4O/b1v1H/Zzvt7V36+lvnx1Y+fqxKMLYxXcsinpBL5az5LYQWll8Gx8jcXJuZMfc4If0vRn8cufL79IXjf4v1j7OJ4ryhfQxFiey9oP8ToPZ/k57F7IvSvK0rxM2tfvmj6Lbw/id3ddu/52N2ojUi18G4qvkM877iQcNby3NZ4Kb/Ce31enZexxUXGNtNNXiuknjLRvqmmnUa66TzHlRZLrPlk5ZjzyuU5Z0Vzz6t8pIBXullJzw7FyM0ia4XT+XMt6Zm3P/OtZMy8E1fmxGCJO37zCj87+UdenwPd67FNyYNpH7FiXdkxzTI8c/6Xq0hIum9M5Ynv8wqfaf3+44ktZFCeMBsbHHF+DDElfcdWefJcuE5iDfGjNJLudwBCxNzCYlIhA7GlIqmlqDlrSsTRyM9g5bnUPMlAEsk7hUtuSmkkx7LPzT2anmuz5I/TUAuJkNKKkhoKiGRVKKhRawaGhhT4SESaqJh0Ga202qS1ps05amjRqqJNVU27DitWTayZmlm30XMvUJj01jV0672PwaSDoQd3D64YY+ZZZp0y29Rps8+xgM+qS1Zbumz1NXbeZVP+u20N23bf46QDlE49ctrRY6efccHaLbdeue3qtdvv+Mzam9WvWUs/ZO7XWUtv1jxj9blOv2eN06rfhkhOJ+I5I2O5JjKungEAnT1n0VKt2TPnOYsd0iqSyVoST85OnjEyWE/KctNn7r5n7pd5C1L/q7zlf5e54Kn7KzIXPHVv5n6bt59kbY9HUcqTIK9Cj2ksF2LjgmMj23BN+sPH8GcH+J8faO6Ut4d2ZszAJulxy1hjnVQgGOg359mkH7ccKnunekBwjyf1zZ96wmliG9oZkurUIsdHHOtK2q4z1AQyss5Gdg9Sslers/dq5ciqNuaFg05bLRyYySTuW3JfaZw1q7CEJTLmAbHcCTRanEVmEjuL2htyZxx7jgMMbK029gkNcRHr65wsAIwXWz2Ap9zYNqIiWyYztD35dOvMY0ZFVlhWR6ziqm03s5Bag3O1TZgyMhygPH2cxnr63VqQucrUpxdQmQagpj6otiU93mIH0q2mWsM6Y5otYrZtGWVhp/ZYbwX4WhbB3Sxonrhm9LCmocuRLsMm0en5kKQTZ2jpUK8YPsZo2wihLiqOtLbin3A52ImbZJA26qyPsnuzOWxJZNFj7cnyW5iuBSXXG20P0VwtjzN7mWJJCjm6UepNfcWlv0JS+PNQ/DoQwVxZVDMx3K2dvOtq+eIULhGD8Fq6ZcyE9kOQetXy7B4tUDgxGD3kMteN59q8S8oB43Lg0yvVc7A5CVZXFWwQRLfOJXNoY0PmD04UV7kBRu1Bnu2nE7UvJeqt2lx1N0mL8BW+0rp201I3xgbMcfOAfnUdjPUU2WYZXAUHD6Z9DLXabm43Xl01zb6L8BmcWCY1SVcnze/a+CCapnbUAQrF9lgoZU67gusom2mynCg3ThKcuVX6nhOGfGAHlAYbIVicT+suik3vcEG4I6TVk5wy70RjBEqlBO3mfYCFIJvdqquQlgmfpjlz5D6oABeJ5RpQr6wFCwQqUnZf3DoHe4ewzbVkYRATeThb1tGeeizn5hnPXtq3ejjJylH2zEjsJQyFA9zMsYaFaZnJy3KgaZfCY5TIG8QPpaARWbfIcKPinNBQFWaj9pvc0BbgmFaZ7LS0hVBspkatJjW3J9A6Z0/qcJ02y3lAZ9MtEZJUWTEyy+dQwNWsnq6jk2HOyoCH1LI/JqCtgL7YALOgY+SdaB745BCTPK4pciZ8DMt26Yx8qWLiXcq2IqyyoXWtPVY31w6EwNdBPJkBFsUBbGvQcVIYA0oe4RIZkpPubBAKX7syn30TuIRWGGNtD8nB5MQycQRyJsFl+VqohARS2ioSvGcy5BSiHI29gcGTnKxhUO0wbHECcFHFG8SD0zlrORvQ9IET65RC050JNnzUSCyUJffhVcfbHmaVaA98zYydAJB4b8Eoa0iGV24TD7Fh0nKvNzV1NMiKfmJNe05xN1+3ce4qzrQAIm2YFkFBDiK1Xku6Gz4epQPlAVdXr/4Ws/uiS8cxmUhsNhgSFEwMGVSY+ddg2dWAds2bXbOutuD/sa/buQShwJDNO5EFmVRou8yi9JSwx8SAtIk7oo4xRNSqOzOEBzgUgNBH6uO2ykcIXzBapbOYijtjobRD2x1dKcNFVTEx+HGKA3xDPblKQ+S2EUko/BS3TYoylxrOpJmiHqiXvJb7QMzlEGwdEMRfodJeMRuuPBPWm9XbLC+r5qoF0mJ1Vxou4RIg5+T0PEPI+h5pX+fVCU0YM45NiBUADczkKMmcH2AkYjxRlR26Kgw9p67pcg+/LCQFrD6L27AgXJb8H236L47hP13wHHVAlZIdHNSkoUvXDPIFsBsRnpOedqRELC8ycdJCvpHFvBSpbpVNqhuP1LNR+a7JkKwTLxKX2FHCnGCke8MIBPbbu7uflElSdwU9sFKn8psA7WTuKq4qZI75n0SajKmKlxmkTK1ipacGeHRicXHQ5ANXA5V3nFLKVA7a02WPeiFqAI5gXCN6TpCMuzHqbEsdh3EEWI4cYsZo9LD3Dd7tsNasDJUKchdJEfea8824GIpL7oDnEx2PGni1MwNOo61eIvK3cQxrZNhJsrfmzAPj0w8SG/B74EfiaVixcWFd/GEHscu4YVrYmXrCRdWdUdwFnzArdw0Up97SKXlMDih1jsVQbMFsTQBK7czBIk8dnUWEvSjzug6SokJL4naLhSx3gpqjIQq2s1ZnGJpbqHiPS+OAN6Tjs73QMjLbAyLQG4UYK+3D8wDFrU3a0CDkzCrN/QO2tXtNXI9ub15WwBoyPrRMXIGuYWjJDghu7l0zTRaM3RQjCFouyrYR2HYLSFjUM6uk0KgBqgB8eGEyArByZENb9ExQFukoGNx2bitbUISp5nkBGGB2QLb4WBa28TaNuqYFnC5eWtsKbIS7yW2XhyW5eUopC3+YWwfo2CIkB2rRXggJh5UBbe23evvmMjdRsoA9BzakLh+Cbeg3jpWoKuiKpC8fF0gGyKCe/U4qz9kX1VuuemCrYMwlcOcoHkLnXgcZJemIwpUbI4DSQVeGKSbABIBS3IC0QhapgyQ88OpAzQLhrRgV5ILxkWHKDbw5T+puI/PbgBmm3HdSM7bW7QZoybA7omyZWiBgAf0v3fBo/lyqOqCB8UwYCEC+M9Q7YKXrfQlCRNTyhTkJH4K4V3SHYtyW6Y7uPtcpZXTDEcONVCFD9lv2s0w8kLffk3TjpQgJ7IdqGm6nIPsYIIhRQ8kjYwbQOtdFo+GHFWhaU8b00Wn47nACcMAZWAA6Ya8NoiVMvhINPK3+1h6oKPVnOjJie9JrLtNV88DmUdHwOqCGNCoaXan8Nm/DPGPJdgH3LmVGox8cJ3tf2ntU0HmSJmRTLDneIfV3kPV7DL/nwoRHcSljE6MAbH7TgB5wuN3Db+hFEDpDLwMkkFhmqrMoBUGCYFo3f9ILpQ7a64ZmMGEXj0kFIP+AwgmBdEoLJSL29HB4v17R9ygLuwIYEuKO4poUmME5EmcMMXX8k7SkJKo0RILGkjQASOl+1pY/LfUHZsvlOdGusSP8Fh0BHqjoxTQ9REbDNBHi67Uw+03Z+4I2RmBhtMPzkiU09QApJcPkgy0W0QsfQavt0u/RckLfpWWs0/BHixhI23xL4EYY5faeYtwZnGskZCCSzKFjkwmgAEWQ4FuaSUQoHg83S7+0J+wTn4BjyblBtSAecewYQxgaLce9F7jw0YdO9ZTn/creymN8DpirEHrC+lfCRABc+QJQlbsS1eBt+fa2HMtxqCXvAbJzPLLjz0rd3e4OYXp5ADhDA+hgmlfEyc5HUCF9KyrJXVALNdHsbL1wyGCBt0MZiwKbljJmdOA4jrbbN04UOjC38zGgLMrmBg4TpIx0Olsm6D5/ejZ1kJx4z8QdmvsAzBYEm12V6FfoD1jgRiBxq2vQTOEq1f/3gO7jeao30CUC4c+zU1NJLnp4IX/MRsGpPwrYvLlY98OKnY8WvadAxNnb1TESVNCqdxrerGM3j4eOCveNO8Md74YGt5BfoqndG/2ArBq+F4cHSEATMpHf55GAEeG4f2HR/h8OlO6llQDV/wTKOuaVQbv+rwAAAAZiS0dEAAAAAAAA+UO7fwAAAAlwSFlzAAAuIwAALiMBeKU/dgAAAAd0SU1FB+MEFwwFJsIqgrYAACAASURBVHja7N1flqL6dsDx3bfzLncEUnUGIDWARGoAifbKe6AGkOiZQKAnEOwRYI8ATyYAJ3m/2AO4F3sEeAbg+uXh+iOIqKBoWVXfz1qse7rKf1DodbP3b28RAAAAAAAAAAAAAAAAAAAAAAAAAAAAAAAAAAAAAAAAAAAAAAAAAAAAAAAAAAAAAAAAAAAAAAAAAAAAAAAAAAAAAAAAAAAAAAAAAAAAAAAAAAAAAAAAAAAAAAAAAAAAAAAAAAAAAAAAAAAAAAAAAAAAAAAAAAAAAAAAAAAAAAAAAAAAAAAAAAAAAAAAAAAAAAAAAAAAAAAAAAAAAAAAAAAAAAAAAAAAAAAAAAAAAAAAAAAAAAAAAAAAAAAAAAAAAAAAAAAAAAAAAAAAAAAAAAAAAAAAAAAAAAAAAAAAAAAAAAAAAAAAAAAAAAAAAAAAAAAAAAAAAAAAAAAAAAAAAAAAAAAAAAAAAAAAAAAAAAAAAAAAAAAAAAAAAAAAAAAAAAAAAAAAAAAAAAAAAAAAAAAAAAAAAAAAAAAAAAAAAAAAAAAAAAAAAAAAAAAAAAAAAAAAAAAAAAAAAAAAAAAAAAAAAAAAAAAAAAAAAAAAAAAAAAAAAAAAAAAAAAAAAAAAAAAAAAAAAAAAAAAAAAAAAAAAAAAAAAAAAAAAAAAAAAAAAAAAAAAAAAAAAAAAAAAAAAAAAAAAAAAAAAAAAAAAAAAAAAAAAAAAAAAAAAAAAAAAAAAAAAAAAAAAAAAAAAAAAAAAAAAAAAAAAAAAAAAAAAAAAAAAAAAAAAAAAAAAAAAAAAAAAAAAAAAAAAAAAAAAAAAAAAAAAAAAAAAAAAAAAAAAAAAAAAAAAAAAAAAAAAAAAAAAAAAAAAAAAAAAAAAAAAAAAAAAAAAAAAAAAAAAAAAAAAAAAAAAAAAAAAAAAAAAAAAAAAAAAAAAAAAAAAAAAAAAAAAAAAAAAAAAAAAAAAAAAAAAAAAAAAAAAAAAAAAAAAAAAAAAAAAAAAAAAAAAAAAAAAAAAAAAAAAAAAAAAAAAAAAAAAAAAAAAAAAAAAAAAAAAAAAAAAAAAAAAAAAAAAAAAAAAAAAAAAAAAAAAAAAAAAAAAAB2ZVmmZrOZsm1biUixWZalXNdVaZoqjhIAAAAAAFc0m82UYRhKRNRgMFBhGKosy1Qcx8rzPNXr9ZSIqPF4rDabzSNHDAAAAACAjnmeV2TLHcdRdbIsK4J0y7LIpAMAAAAA0KUsy4rgvN/vqzzP1SFhGBa3DYKAIB0AAAAAgK5sA20lIioMQ3VKv98niw4AAIB3408cAgD3Yr1eF/9t2/bJ2//5z38WEZHlcsnBAwAAAACgK3EcFxn0PM+VaZo7Hdxt2y626u84egAAAAAAdEg3fyuXu5/atqXuAAAAwJtGiTuAuzKdTkVE5LfffhPHcRrdp0k5PAAAAAAAaGkwGBTN3/Q89GPbtjQeAAAAAAB0qTznXChvBwAAAADg9aRpWoxRO7YNh0MCdAAAAAAArinP80fHcQjQAQAAAAC4B6PR6GiQvtlsHjlKAAAAAABcWZ7nj8cCdNd1CdIBAADw5n3iEAB4I46WspumKa7rHhy5tl6vZblcFv+2LEsGg4E8PDzwOQgAAAAAQBNpmjbq6H7ONp1OWcMOAAAAAEATlmXtBdZ6VnoX2/YCAAAAAPCq/sQhAHDPXNdV5dJ0EZHRaCRfvnypvX2/35cgCCSOY4njWCaTifR6vaPPsVgsONAAAAAAANTJ8/zRtu3W2fAsy1RZmqaqLgNf3qIoIoMOAAAAAEBVmqbKNM2zytVt2y42wzAaB/UcdQAAAAAASmaz2dUawtVt/X6f4BwAAAAAAO3ckvZLN8MwaBIHAAAAAIDIZSXtXQXprEMHAAAAAHxoeZ4/nmridqvNtm21WCwI1AEAAAAAH08QBFcJtvM8V1EUKcdxVK/Xa51Rd11XzedzlSQJATsAAAAAgAD93K0qTVM1mUx0U7jWm2mayrZt5fu+ms/nrFsHAAAAALw/juN0HqBX56GXxXGsRqNRJ2vXXddVcRwTrAMAAAAA3r48zx+7DtCDIFCnxHHcuvz90Oa6rtpsNo/8NQEAAAAAb9pwOOw0QDdN82hwnue5StNUpWnaWZA+Ho/JpAMAAAAA3rbJZHJ2YNzv99VoNFKe5ynP84qA2/O8o9lzHch32UWetekAAAAAgDfN87xWgfBwOFRBEKg0TWsbwukgPY7jg0F6V5nz8rbdDwAAAKC1P3EIANyD9Xp98jaDwUCCIJAsyyRJEnl6epI//vhDfv/9d1mtVsXtLMuS5XIpvV5Pvnz5IsvlsvbxLMviwAMAAAAAUAmWD2alB4OBiuNY5XmufN9XpmkezWJblqVs297pth5F0V4GvUlZ/blj2WzbVq7rUvIOAAAAAHg79HpwOTGDXC4sP7dtWy0WC5UkiZrP58owjL2yec/z9srioyi6uGEdo9gAAAAAAHctz/PHLpu0Scvmco7j1GbXy9qujz92gSDLMgJ1AAAAAMD9Beeu6940KB8MBsrzvNrmcnXSNN3LtF+yGYahZrMZQToAAAAA4D7EcaxukTkfDAbKcRwVhqHK81w1pW97aXm7kE0HAAAAANybJEmU7/tXDcz1OvKmGfJjAbp+jCAIrvJaDcNQvu+rzWbzyNkBAAAAALiaLMvUdDo92XVdLsyQTyaTo/POqyXrIqJc1z2ZUR8Oh0WQPhwOr7YPpmkq3/fJqAMAAHxwnzgEAK4hDEP18vLS+eMOBgOxbbvYDMOQ33//XURElsvlzjx10zTFNE0ZDofFzxaLhXz58kVERFzXlTAMDz6Xbdvy48cPCYJAbNuWh4eHqx8327bFNE2xLEv+/d///ZfPnz//jbMJAAAAAHCWLkvCe73ezhryLMvUfD5Xrus2LpU3DEO5rquyLCsy6Ho71sG9nDV3XfeqlQCHNtd1GdEGAADwQZBBB9CpLMtUF5lmx3FkPB7LeDyW3377TZIkkcViIavV6qLH9X1fwjCUnz9/isjfs+xpmophGPsfkJ/O+4js9XpiWZaI/D0jrp/HNM3iNoZhFLepkySJiPw94//t2zcxTVNc1xXHceTh4YHPbgAAAADAcZPJ5OKs8Xg8VovFQrmu2+mIMyll1KXSUb0qDMNGDekcx1Ge56koilQURWo2m52cq962WV2/3995Xsuy1Hw+p7kcAAAAAOCwNs3U+v3+XvD5WptlWSrLMqWUUnEc7wTxvV6v6A4fRdHBDvGO4+yUph8KuBeLRasu86PRiBJ4AAAAAEB3AXqv11Oj0ahYTz6fz6+SIZcO1r2PRiMVBEGrQLq6L9VMehiGxW2Gw2Hjx21SlWCaJll1AAAAAMD/O9QgbjQaqTzPi8D8NRqudR2QV9UFzVocx2owGCjHcVqXwLepSmC2OgAAAACg4HmeGgwGOwHpNdeUn7P1+/1W89PPCdBFpPhdOVhvuwZdzlxnP5vNKH0HAAAAgI8uz/PH2WzWeBTaLbbhcKiCICjWmndNX5goP59SSmVZpkaj0dmPKReurd+OlgMAAAAAfCRZlqnxeHw3pevlGep1zdp831e2bSvbtvcy0LZtd9qRva3qzPY222AwUMPhUPV6PSUiuis9AAAAAOAjBOau6756UD4YDJTneQfXkqdpWrxO3Z19OBzudZPXwf21su1NgvNLlgOUS/fDMFT9fl/vNwAAAADgvYqi6NXWlh/LkldNp9MiiK+7fRiGFzeKu4fgXG+z2WynYkBfvOCMBQAAAIB36NZZc914LgzDxoF0mqbF/PJTQfxrm81mRXCuLz54nqc8z1OTyWRnjXuTzTTNIpueZVkx/o0zFwAAAAAIzluPP/M876Ju657nvVqpelOLxWJnHfxgMDg6Ki2KIuU4TrHGXBqWvOugnbMXAAAAAAjOjwbkevRZk0x3NSOuG75Np9NXL1Nv8trn87maTqd7M+F7vV6rOeZRFKnRaHQyk74du0bTOAAAAAB4LyaTyVUy5kEQNA5wdbm3DtB1+XZ5m06nd5cld113LyCvOw7n/F02m81jGIZqNBqdzKwToAMAANyfTxwCAG1EUaS+fPly9v37/b6Ypimr1Up+/vy58zvDMGQ2m4njOGc99nw+l5eXl52fZVkmpmm+yrFarVby+++/y2KxkCRJZL1eN7pflmXy8PBw8edzmqZKP+9qtRLTNMUwDBmPx508PgAAAAjQAbwi0zTVarVqfPvRaCSWZYlt22Lb9v9/+Hz6dOw5xPf9k4H6t2/fZL1ei2maxW2Xy2URCBuGIZZl3eS4rNdr+fHjhyRJIsvlUpbLpbQ5TuULGD9//uSzGQAAAABw2Lb0+uQ2HA6Pjj1L0/TkY/T7/aON4cbj8c7tbdu+SYf2LMtUkiRqNpsVa94ty2pdzq+b3zmOs3fsONMAAAAAAEedms3tOE6jbul5np8MXk81WKu7n2VZZwXpeZ6rJEn2Nt/3LwrCD1280MdIv9bt2DMCdAAAAABAY62y3XmeH+ymvg1Ezwq0syxTcRyrIAhUv9/fy6Q36aDu+35nQfehQFzPMA+CQMVxvHeMysdGZ9IJ0AEAAAAAZwXo/X5/L5j2fX+vU7njODu3y/NcDQaDgwGuYRhqNps1yoAHQbDTtTyKotqLBbPZ7GQH9XO2fr+vHMdRYRiePd4tjmMCdAAAAADA+QF6NSCtzkcfDocHg9Y8z9WpkW2TyaRxmbrjOKrX6ynP83ay7a7rqlPl+ecE5UEQdDpvXbbzyjnNAAAAAACtAvRyIFxdSy0HsuuHStaDINgre+/1eioMw7ObuVUvFnS1jcfjqzSgK1UUAAAAAADQPECvZo9t2z4r+11X7n2sg/upTHpXgXmv11Oj0WinfF5vpmnWltJfonSBAgAAAACA5gH6qc7slmWpW8myTPm+32kpe7mbfJqmKgiCvYDddd3OxrvpAD3LMoJ0AAAAAMB5AbpuclbdmmTCy2POFouF8n1fjcfjosu6YRivUsp+LEOepqkKw1B5nnd2tr/K87zimHGq4RriOFbj8biYeLDZbB45KpjP58o0TWUYhgrDkM8fAACAtxiglzPHQRAc7MZ+qpHaoeBeSqXmdR3ZLx2TNhwO1XA43Cthrzaau5XRaESAjqtI03RvCYqI6PctPqg4jms/R6niAQAAeIMBejnDrLO/h4L0Y1nm7ZfBo03Z5vO5mk6ntUHGuZtpmp12YW8jSZKDJe5ksNCVzWbzeKzCZDtFAR/MqcojLhICAAC8wQDdcZxGAbreptOpyrJsLzCtdn+XDtaOH8roy5lj3Lqkj1X14oAO0Le/By4KzJv0ZHAch3ON84IAHQAA4C3SJdhSKYVsGqBLqbHaYrFQSZKo+Xze+Yxy0zQbZdp7vd7NM+h5nhf7Wx0hR4COLgIwvZ64yXuFc+3jnBez2azxeUGADgAA8AbUrRXXM8G3ZdnFNhgMVBRFKo7jzgPwLrZ+v/8q5e3lzH4QBEUFgVKKoAlnS9NUua7b+r3GufYxzou2n48E6ADwev6BQwCgqefn50+O46jv378XP1ssFrJYLMQ0zZ3bfvr0ST59+iQ/fvyQ9Xp9N/vQ7/fFdV3xff9Vnn+xWBT/PR6PZT6fy2q1kvF4XPx8uVxysjUUx7H6+vWriIhYliWGYYht28Xve72ePD09fbrla8qyTP38+bP2d6vVSlarVe3P9GufTqeNX28URerr16/y9PTEyYDCfD5Xs9mM8wIAAOAjBERS0wRuNpvdRWZ8Mpkox3F2OrMPBgPlOM7RsWm3Un5NunO7HtUmpe7ynGnNNC3ZfUtb0w7aXfRuIIP+/mwb/120kUEHAAB4Q/r9/l0GNrpk/F6Vg3DdnE53uC8vESBAb646Iu+tb9v9aUT3LCBARwUBOgC8YX/iEABoazqd8rrOUC5dN01TVquVrNdrsSxLkiThxDrDbDZ7V/tjWVbj25aXRQDaYDDgIAAAAHwkm83mUW6UUXQcR3mepzzPU8PhcGer3vaUKIpqx7zderyabDNUQRAUpe6WZVX3Bw1lWabHhb35rW1GO45jVTddoem2LZPHOxOGoRoMBmTQAQAAPopbBUSGYSjf92sD6zzPVRiGxXrze1hj3jRAj6JImaapgiDQa44J0C+UpulFQclbDNDLFynOCdQJxN63OI7VOUshOC8AAADemC4aVLXdxuOxWiwWBwNf27bfTICutzzPVRzHqqaxE2588cjzPJWm6VnHPk1TFcdxsYVhqDzPU6PRSLVZJ39pYFQdd0ggBs4LAACAD6KrBl39fv9g2breRqORGo1GajgcKsdxdjLq5YAsjuNGwfJrZNurX5IdxzkYwDft5I16bTtZX7sxXxiGqklzxS4Co7oLQQRiaBOkc14AAAC8QV2UuVeD1EOZ+UOBd3W8W9Ms+qH16K7rKsMwVJ7nnQfoeZ4X2dRer7f3/NvsLV+QO9Jm2sA2oL+qzWbzeKrcuKu/e9N95zz7WJqWu3NeAAAAvEFdlLnbtr0TDB/L/rmuqxaLhVosFsr3fXVoBnYYho2C5bpgXn+BbZqJbytNUzUajVSapkfnpPMF+XJtMoa3Gje22WweT6yT70TTLDrnGe8JzgsAAIB3pIsyd8uyVBRFynXdc+dG72ymaTYKlofDoRqPxzsXCPI83yuhv6XyBQLOrsuDYbnDeeDlSolrBegnnoNA7IPivAAAAHjnLhnxdGzTWfBTWfrJZFK7dr1JBlxnGQ3DULPZ7C4ayel9CYKAL8gdaFrqfcsAXeTo8pAuEYiB8wIA3pg/cQgAXGI8Htf+PI7jsx5vOBxKr9eTl5cXeXp6kq9fvx69/ffv3+X333/f+/l6vW78nOv1WqbTqTw9PclyubyL49rm9eMw0zTv8nX5vn/15+j1epwAAAAQoAP4SGzbrv35r7/+2vqxBoOBJEki0+lURESWy+XJgLkukB0MBgdf17H7LpdLmc/nnR6fJEk4SbDn4eHhk+M4V30Oy7I40AAAEKAD+GiBRr/fL/4dBEER7Lb18+dPeX5+lu/fv18cFBuGcfJ2s9mseL0iItPpVGazWafHxzTNs44FGfT3r5pFJ+ONWxgMBhwEACBAB/CelcvcLwmu1+u1JEkiq9Wq8X16vZ4Mh0MZDocyGo0kiqJGwXk5KE/TVIbDocxmM3l5eek8QD+nzPpeSu1xPQ8PD58mk0nx7yZVH8Cl2nw+AgBu7x84BAAuZdu2fPv27WaBZb/fF9/3ZTwet/6yOZ/P5efPn2KapgyHQzFNUyzLkiRJZD6fy2w2k/l8Lq7r8ofF1X379u1THMdqtVrJv/3bv/3y+fNnDgoAAB8YGXQAF/uXf/mXX271XIPBQJbLpbiu2zg4T5JEvn79KqvVSsbjsfR6PYmiSCzLkqenJ/n+/bus12txXbd47K4tFotWt//jjz84sT6I5+fnTy8vL58+f/78N44GAAAE6ABwkc+fP//t3HWNjuOI53kymUwarY2cTqets+ar1Up835eHhwf58uWLWJYli8VC1ut18dwPDw/y9evXq6z9NgyjcbM4HZhT4g4AAAAAOMtkMjlr3rlt2yrLsmIOeBzHqtfrHbx9mqZnzRcfDAY7j+O6rsrzvPh9GIZqOBxebSZ6HMcqiqKTt5PrzcT+kPRcebmzOej3su/Mu+Y9wXkBAPeFDDqATpzb4CpJEnl4eJCXlxdZrVZimqb8+c9/rvtSKYPBoNHoqMViUTyeVh2fNp/P5eHhoSg9d11XkiSRNE1FKdW6JL3J8Wl7jDabzSNnFgAAAADgnGBSXWMLgqBVtjrP8yJjXs6Uh2FYm50fj8c72fTXss1akcXqEBl0MqXgvACAt4QMOoBOHFqHPhgMJIqigzOee72eeJ4nnudJeZ56WZOsubZer4s134PBoMiUf/v2rWgCFwSBDIfD4j6LxUKen59vsu772Ag5Zp8DAAAAADpRtw59MpkU2Ws5kLnUsiyrzXCXb9MkC63XkJcz6VKTKc/zXIVhqPr9vhIRZRjG2Wvcu+B53s7+b48ZLkAGnUwpOC8A4C0hgw6gM3VrrH/77TcRERmPx7X3+fbtWzHmzDTN2tt9//795HPr7LNt25Lnuby8vMh6vS4y6SL/nynXtzUMQ1zXldVqJXEci+M4na89b0Nn+LVj2XYAAAAAAA46tA7dsiyVpqk6lbmxLEuZpnnWOvThcKh839/r2m7btkrTVI1GoyI7PRqN1D3Tr/09ZnVvjQw6mVJwXgAAAHxYuly8bjMMY+9nYRiqMAz3xqDV3bdcfj6fz3fGs+V5rnq9XnExIIqinfvq0vY8z3fud4/0F+jt/4IAnUAMnBcA8EFQ4g6gU8dGidU1Qfv111/lx48fe2PQ6u779PQkX758kaenJ3FdVx4eHuT5+VmSJCkaw2VZJk9PT/L169ed+06nUxH5e1m7aZr8oXB1aZoWF6X0hSOOCgAAAICbOdQM7tqbbdsqyzKVpmltoznLsmobyt1zBn274QKvmUEfjUY7z7H9913tO5lS3hOcFwBwX8igA+jUsQx6l/r9vnieJ5PJREREkiSRp6en4r+rlPr7983pdCq+74uIiO/7nY1WO/dxbjHaDa/jx48fO/9uMy4QAAAAALoKnmuzMr1erza7XbeZpqksy6r93WAw2BmXFsdx8bimaRbj08r3cRynGOWm7xvHsTJNs7MRaVV5nivLso6uedf3KzfBEzJZnXnlNeh7/Rbubd+DIOD84j1BBh0A7sg/cAgAdM2yLPn582ftz2ezWZHpPubQiLFer1esOdds25bZbCYvLy+yWq1kPp/LdDoVwzDE930xTVNms5mIyM76c9u2JYoiWa/XYhiGrFYrMQxj57GbqsuELxYLWS6XslgsijXwh/YzSRIZj8e16/Tx9sRxrJ6fn3d+do+9D+7xfNtsNo//+7//+1ddCbNer2W5XIphGEUVgm3b8o//+I+/fP78+W/3/vr1+1tEdvZBnxOmad7tvgAACNABvAO2bRfzz8t+//13sSxLJpOJfPv27azHrgbnmp4hrueqT6dTGY/HB+evly8alIPl1Wolrut2chx00N4kQP/x48fOhYTqF3u8LXV/t+fn508cmXqLxUItFgtJkkQ+f/587Hblf/7Vtm3xPO/Vj22WZerbt2+yWCyOvv6afSj2RX92WpYljuPI09PT3Z8vm83m8V//9V//qi9y6s/T6oWImv+P4L0AAABwK9tu1cUWRVExRi2KomIkmrRsBBeG4dEy8zzPlS6vP0eWZcq27aL0fDqddtLs7VgZvS5tHwwGSimlHMfZaRLHLPTLvFaJ+4HlGXe37695fsVxrFzXrR2/2HYbj8dqs9k8vsZnnW3bV2l8OR6P1WudF01L3LdLJK6+6TGbfKIBAACcqRyAh2GosixTvV5PTSaTIgDuMjifTqfKNM3i9ufOOhcRlaap/oKqXNftpBu7ZVnKsqydtfNl+rhoeg09s9DfXoA+m81q+yYQoP/dYrG4SlBrWdbNgvTNZvM4nU6vHpheIyjtMkBv+zl+yXbrKQgAAADviuM4ew3agiAosslts+iz2exgIFw32q06Qq3cxE2/nkNBtf69/iJ7bpCuqwaOvS7drC6Kor2fyTb7ztl0/QDdNM2jwV2apipJkp3N9/2dbTwe71wkKm+vcaHl3gJ03ZTxmkGc67pX35/NZvN4qIFl11sURXcdoOsLr7c4Ftv/TwEAAMA5qkGzzhwPh8MiGz6ZTM6adV7XCb16W/18URQp27ZVv98vLgwYhnG0q7psM/DbL8dnB+l1X4TrAvQ0TWsz6sIs9JsF6NfePnKArpeOnHotvV5POY6jPM9Tnucpx3HUoYkQ8kodyJsG54PBYGdf9DYajVoFtNf4+3TdxX2z2TzGcVz8za4RsPf7fUrcAQAALv1SLjUl6mmaqtFoVKz5ljPWIlazzXUBuqbXtw6Hw5116nVZ7DzPi8y1zqKXA4S2QXrdF+FDJe76tS0WC6WU2sk0MvLo7Qfor5H9u4cAva665VBAu/082BPHsWrzd7zmsd6uCz96PJuU2UdR1GifrnFh5xZj1s4tfe/3+2o0GinP81QYhiqOYwJzAACArpSD23KjtPJ66+26wosaxlWb0pUDdKmU2R9qDifbNY5KqSIDlKbpXvB/ai18WbnMv/q6jmXvt2W6zKp+RwH6a6z1fu0AvXoey5HMeZOgtu79dOgi3jX2p1xRIx2Vo8dxfDTjfI0lLjecg944KA+C4OAFGgAAAHSkWsKuO5ZnWVaUejfNsJ0K0qulsJr+8lteg36q+7sOBHRJvTQoUz/UoV1aZNB11nwwGOyUuG//GwTobyZAbxqctw1s6/o6yI2aqx0rbb8ka7/ZbB6P7VfXgestAnRdiSQnqgOoDgIAALihasbJMIwiQC0HudJiHW/5i2x5LXn1C2G1zPxQgJ5lmVosFipN06L0vfxYQRDsNXsr78epsW1SMzqpbh29vm2/3y8eWz8vndwJ0N9SgN7molvbc7tJ4CdXWBZyajnOpc93LEjvulHctQP0zWbzeKwZYL/fJzAHgCP+xCEAcC1fvnz51Ov1in+v12uZzWYiImIYRvkL48nHsixLnp+f5c9//vPO461WKxERsW1bJpPJ3v3089i2vfe75XIpT09PMh6P5du3bzuP1e/3RUTk69ev8vPnz537rddr+fLly8nXbJqmjEajnZ8tFoviecr0zxaLRfGaLcsSEZEfP35wMl0/mJUsy0REPpW3LMskjuO9LYoi8TxPPM9rdP5+JIvFovFt5/N5q8d+fn7+pN+bx6zX61fbp3N8/vz5b3/5y19+qdu3JEnezN8+TVP1yy+//LXuM05ExPM8+fnz56fn5+dPvFMAAABeQXWNuc4+53leNHs7t6FQ3XrwKIp2msjpx66WpWdZVjSQk0oJ/qHydDmj1D3P870MfF32XXd5Lv+ufFxu+h/kJwAAIABJREFUNd/5HQbeN8lwZ1mmjpUpf6QMetO14uc+d5PpD13v16nPqK4ywnX9NLal9Tc9L87ZnziO9z5TpdQEkGZvANAMGXQAVzUej3f+vV6vd7LEy+VSTNNs/bhRFInrurXPV31O/byazpxXs2xfv34tMtmu60o5+18TJBQZ7mMMw9jJvg0Gg53qgTLXdXeyZeWs/3//93//lbPpfj08PHz6y1/+8stgMPjwx6LJ+8JxHPn69etZWdRzPi8udSqLvVwuO3mep6enT57n7fxsW9lx18IwVM/Pz7WVC6PRSP7yl7/88vT0RNYcAADgtW0zv3udicsd3U+NLpIj3Zp9369tzGaaphqPx8X85fF4rJRSajabHczyyDZbpbPYh7LoemTbOSPXDq2F19UA5Sx+nuc0irvQrTLopWDqw2fQN5vN46H55b1e7+LnbLIOvev9OnUsTdPstMolCAI1HA7VZDK5+yZx0+n0ripHAAAAcELdKDVdhp7n+dExQ022clCdZdnFj6eD+eos8yAIVBRFajAYtA7Q8zzfCb6bolHc2wrQRepLvD9aF/fNZvOog8zhcKhGo1Fno7TuMUCX/x+P+C7eE00C9M1m83js4uq2WSAAAADuTd38YD1zvOl67/IX7zRNi/XmdUF6mqZ7QXq/31eHsnpyoHOyDqxHo9He3PW6TuzXUFn7ijcQoNetI/6Ic9Cv5TUC9Kbr6kujGd91gJ5lmTo2do7gHAAA4M7VZbXLQW7TrLdpmmo2m6n5fK6qo3wmk8lOEF3+Uq2bxx163MlkosqZ/vIFhEMZ8Vsov2ZGE72NAF1EpHoxiAD9tgH69qJfZ9pcRBQRNZ1O77ax46UBepqmB5cJ9Xo9msEBAAC8BXWdl8vrsZt0Zm6ylYP+cibdsixdgloE+seyYueUsV+q3BVe70d5TTPrOd9OgF49twjQu9Nk6kPXF7PqqiKkYY+Me8uoXxKgn5px3/XMdgD4iOjiDuAmptPp3s++fft29Pfn0HPWRf7eTTpJEhkMBrJcLndmLq9WK3FdV9I0Fcdx9h6nrhP8tZW7tuvXappm0U3+Lc1D/uhe4/zB9Tw9PX1qO+9+vV6L7/vy8PAgruvefen7Ka7rqpeXF04GAACA96JuTnR5bfexOdJNt3KH+GOzyGWb4dLr2XUGO47jnZ+9lnJ1QSXjhRZeK4NePt97vd6rLE94rxn0JuvBr3G8m5TWS4M16q+9VKVtBn2z2TweW28ulQabfOoAAAC8EXXlkeWAuknpapOtLsBuGqTfi/Ia9/JxYR362wnQ38K+v7X9PtZH4toBetOLA9Jw8sR8Plf3fl7EcXx0LOUtjz0AAAA6VjcTXUod089Z5ykHGkQdCnoPBenlTP69KR8X5qEToH+0AH2z2TwuFgt1bKTXLYPELip9pHSB8taBepPzwjAM1TRrXnfxgU8eAACAN6IuA2XbdhGMthmFduwLYl2Q67qumk6nO88xmUyKZnHT6fRug3T9mred60GA/m4D9DRN1Xw+V67rnh0kXjuL21UmvRyo36rBWtP3xCUbDS0BAADeiENZcp3BbjvOSBqUuVfHApmmWXR318+ry8hd173LAL0cEDDGiAD9PQXoWZap+XzeKkMud1BmHQRB4/GQ0mKN+rWbyd0iQOdzCgAA4I0GDqPRSA0GA2UYhsrzXOV53smXQz3iaDabHV1DqdfAl5+3PE/9XpTX3lLmToD+1gP0LMvUdDo9O0Mud7IOOssyNRqNOn3tesnNPQbobcr7TdO821nwAAAAKCk3i7Msq5hXrrPXXZSP9vt91fSLqM6il798lmeS30vTuPIXX84iAvS3FqBvNpvH+XyubNtu9V7u9XpqOBwqz/MafzbculFZHMeq68z0tf4257xOx3GKzP6pWejljYuJAAAAb0R5HXiWZUVpexiG+ovgRVs5sA3D8OiX59FopJRS+svkwXXsr62cqaN8lAD9rQTom83m0ff9xt3Ae72echyn/Fmwo/w+lTvrJB5FUaeB+jUy6W1eX7/frz2WbaoG6OoOAADwBpRHh+mZ3/qLY5qmF49cqxPHcW05qmEYtevfsyy7qwC9/PrITBGgv4UAfT6f64qPRkF5kwtPTUatvXZQ2GVGves16U1f12AwOFiivtlsHpuuvzcMg1J3AACAe1ceuaYD5HIDuSAILurofmxsWpZlajKZFF+g9QWC7Zf6o2XucRy/2tz0cmUBZe4E6PccoG82m8cmTd96vZ7yPE/led44gKu+T+WOs7ZxHF+8ZGd7/5ueF71e72RQ3abUndFrAAAAb0D5i6sOqMs/u6SBlGmaKs/z1kFwkwBdl8QfC6SvFcSX18lT5k6Afo8BepqmjbLmw+GwVWD+FgN0LcuyiwL1LrPoTc6LphU6baoEqPoBAAC4c+WMuZ6FnmVZZ6OLzhmZVg2AzxWG4VkXCE4pr7/lCy8B+r0F6FmWNVprfklW+C0G6JcG6tvlLTc7L5o+X9t+Ibea9Q4Ab9mfOAQAXsvT09On4XAoIiJJkshyuRTTNMV13U4ef7FYyHq9bnWf8nMnSXL2c7uuK4ZhdLIfq9Wq+G/btov//u233ziJcDc2m83jly9fTr7nhsOhfP/+/dNHPEYPDw+fvn///imOY+n3+43vd8ln0Tksy2q8P0EQNH7cl5cXofIHAADgjpWzYY7j7K21vnSzbbvVyLQ8z4u17/fSyV1KSwCqx4Yvu3IqGCSDfqP9btrY8dJz9i00iWt6QaNpN/Tt3/Jm50Xb49em1J356AAAAG8okNCd09uM8WkaqM/n80Zl52maFkF6FEUnR5+5rqvm8/neOvSuStx7vZ4yTbP4d7l5XtcNpAjQCdDPDTablLZvl5Bc/UJAlwH6fD5X8/lcvfY5es/nRZuu7rK9+EmQDgAAcKfqsuhNsmRypBlRdT25lDrGu657coRanudqOBwqwzDUYrFQSimVJImazWY7HeKrXzr1uvU8z5VhGJ0E6XrNqq4EKF+82AZFIEB/1QC9ybpw6SgTfMsAvbxftm1f5RxpUTF01+dF28/sbZd/AAAA3KNyVlgHz5eMWdt+mT7ZRO5YoH6oYZ3OZud5XnsBQAfSjuMoy7IuDtL1F1/9uOUyfNmWv3MGEaC/ZoC+bSr27gL06nN12aytzd9q+37vRJNKh3PPi7YN8FzX5bMLAADgHpVn6uosetM1rZdu0+n0YBB9KCsUx7E6NAdYZ851ZqyLIL3f7++spS9n9piJfhQB+g1mbDd9r3YxD/uWAXo14DQMo9ORZ033qcs16Nd8P2w2m8e6yiWCdAAAgDeomkXvslncqc0wDOX7fm0gXRfoGIZxdJyU53k75emXBulxHO9k+8sj6uSNNMW6tTbnz3bZwLvSdBb5LQN0ETlr9nnb5+rqgkvde/8a66dP7VPHvSauevzSNG09KpMgHQAA4A6VM9Lj8fimWfRjgXrT9bVSUwZfvm8XmfQ8z9V0Oj1U0o+SpmXX0lFm9w412vcugs02648vCf7yPH9scuHBMIyD3eLTNG2cBT9UhdB1kH6q2qGr+eFNP8suvWB1Tg8R13VpHAcAAHBvyln0OI731lvfMlB3XVclSVK71lwajpOqNqtzXfeiAH3bWOnNjpa6pW3Q3erv9V72vc1FpclkcvF+t6lWOBY8n9qnJsF59cKV3qr3bfJ+2R6bg0F6F+Xup47dNhvdiaYXPLtoPnnOxVXdaJNPLwAAgDsMLPQc8ks6ur/mprvJVzO5QRCcFZxXy9qFLPpBh/oDfJTg4NiFnLptNptdvN9tLqQZhqFms9nJcvc0TdVsNlNtL7ZIR5n8U0Gm3o9zj9lms3k81dCyq8Z0m83msc0Fji6e95xxmbqKiWw6AADAnSiXe+pg9lgmqy4wzrJMtZgv3FlAHsdxUZavm8VVs5nnjl9rUrLdVSnsW7/I06RTtRwptZ3P51dpBnYLvu+ftd+WZan5fH52YHROxtQwDGXbtvJ9v9hc11W2bV/0N+wqAG26T6ZpKt/3W50zcRyfvPDQZXO47TrvVtulgfI5TeMuOaYAAAC4UoBVF8y2+aKnO7Of++VwOByq4XDYqtmRbdtFIzd9QcG2bVX3xVg3kWtDP3YcxwcvPpim+WEzT0mSqHOCkCYBpOu6yvd9lSTJXR7fzWbzOJvNWpeAHzuXXddVs9msVVXBLZajdPEcTZuunXPRwTRNNR6PiwsOSZKoJEnUYrEoLkA0+TsNBoOLz7Usy1QX54Vt22o6nRb70yZoPjSu8pwLSHq5AuvVAQAAbqwcgOqGcW2/6FmWpc7N6pUz3GmaqiAIGmfkDwXl1QsAlzo0c/g9jgw7JE3Tq5Q/yxXWUF9LGIZXzzY3Xad+ahnGpUG1DgzPWcIg2/XcbapMbt2kssvgvK6ZZJebaZqN3wfndHaXG5TgAwAAoKFqWbieAX5OR/U2WxzHKggCNRqNasvQ8zxXYRgqx3Eu+sLZ7/cvCs51Nr0uSL/WrOZ7v5Bzy+1eLoJsg7hbZa0bXzDo6nl7vZ7yPK82WG37PJPJpHXQe80LDscuRFwanLeZYHDJ1qbbe9ef3R/pQiQAAMBdKAefpmkWAfO5AcBwODxZ8h5F0U7mvIt14XKkgdy5zeL0/Q+V8X+UhnGvFaDf2Vr/uwrEdGB7SSl6v99XYRieDFQPVZHIgcz7OdI0vfiCnDTMmnc1ieFWmf+250WXF2+2jwUA784nDgGAe5VlmXp4eCj+PZlMZDabiYiI67ry/fv3Vo9nWZZEUSSr1UrG47H88ccfOsgT3/clSRKxbVts2z75WMvlUr5//y7z+VzW63Wr1zEajWQ+n4thGGcdl9lsJkmSyGKxEBGRJEnk+flZPM+TxWIhP378EBGRIAjk119/fdef82maqul0Wvxb/+1M0xTTNPdubxiGPD09fUrTVB36uy2Xy52/afnf+vx4fn6+m+M6mUzUcrnc+Vl1/y3Lany+rddrKT+eYRjyH//xH798/vz5b21fWxiGyvd9+fnz58nb9vt9GY/H4rquPD09NT6+QRAo3/eL97OIyGAwkPF4LP/5n/951us+dr4lSSJJkshqtSrea+fq9Xrium7rfT4liiL15cuXo8e6fH4YhiGWZTV+/OVyKYZhyHQ6bf26wzBULy8vjW47GAz2zlvTNMV13bt6DwIAATqAD8PzPPX169fi33EcF0GYbdvy+++/t3o8/aXScRyxbbsIHMIwFNd1T95/tVrJy8uLJEnS6Mvljx8/ii+ZlmXJeDxudAGgSQBVfhzTNIuA/enpqdjXNE3l4eGBz3q8qizLlA5qq+9Hy7Lkn/7pny4OpHX2uYvHahu0r1ar4qLGarXa28/qhRPLssSyrKu+NzebzeP//M///FX/+54C2vL5UL44YJomn1cAAAD3bLPZPJZLZcul7nmen11Gq7tzS6Vk8pQ2M9lN01Tz+VzdQrlkvlx2z2x0AAAAAEBnqusWy8FoXRMn27ZbzU2XygzsJkF6m/Wo4/H4rLnnbegmenUd3ul2DAAAAADoTLUZWDkgrWsU5bpuq2ZyhmEUTeR0h/S6Du7lmcbVDLycGPl2zSC9GqCXZ7GLyF2NBQMAAAAAvGHVTHm11L0uo+26rmrS5blNEH2qC/xrBumHAnd9vC4d3QQAAAAAgIjsj1Qaj8dHs+iyzYxLy7XpddnosktGGBmG0Wh8W9fr0/Xx4iwCAAAAAFxss9k8VjPlem55m+ZtTbbZbHZyFvkl2XTf92+WTS8302M9OgAAAACgE9VA3DCMItANgqBV87a6bTgcFsGs67ong+jRaHRRNt11XeX7vkqSpLOAfTqdHu0+r8dRAQAAAABwkWrDuHKp+6WZbb1OPAxD1e/3T64bv/SCQDVgbzLq7ZTBYFDbjV4fN8MwVJZlBOkAAAAAgMtkWbYXGAdBsFPSfWmQrju5x3FclNHXadMpXjoc9XaMfk3VtfTboLzYR5rGAQAAAAAutl1LvZN9Lo9Hqwvi5UrrxMMw7DST3lWQXtfsrtzgznVdsugAAAAAgMtVS91t2+48u20YhvJ9/+Bs9HJpfddBehfl7scaxomIDtgBAAAAADhfdTa6VErdlVI7wah0kNU+FqjXXRDo9XpnB+7lBnjXmI1evhDA2QQAAAAAuEh1JrmeY64D22utEa8LnMtrvKXSdC7LMhUEQXHBwHGcRqPhPM+7OCCvu6hQ7j6vZ7NzNgEAAAAALlJtCDcajXYau3Vdeq6D2mrzuOq6+HKQnqbpTga7Wp5/7Hm6yJifKnWnszsAAAAA4GJ1DeHKWWPHcToP0KU04k0/V57nRwPvatO5aqB+6L51AfalAXpdqTud3QEAAAAAF6tmr8sN45qUkl+6lYPvYxcETNNUs9lsJ1CPokj1ej3l+35tFv7SAL2cNa+W5k8mk70LDpxNAAAAAICLlNdVlwPbPM+vHqBLpeN79bXIie7wWZYpx3H2KgEGg0FnjeLiOC7WxJdVM/eMXwMAAAAAXGSz2TyWA1zTNGubosmFo8/CMFSTyURV177LBU3nqmvUwzBUURR12sVdN7Ebj8d7mfXqvtDZHQAAAABwkeq6at0Fvcsyd8uy1Gw2U/P5XFmWdfL2cRyrKIpOroW3bVvN53N1TTpb7rruyTnu22MJAAAAAMB5yuuqdXdypVQnGW/HcfbWbct2/noQBLWZej3GTGexPc872lm+bp36NWagV7vQV4N0xq8BAAAAAC5WDsZ1SXddllg6no+eJImaTqcHM+++76s0TRuvU3ddt3aO+SX085aXABwL0hm/BgAAAAA4W3X0ms4Wp2m6M//7nK3X66nhcKgmk4kaDoeNZ5rXBezSYpxbl93c9QWMMAxPBumMXwMAAAAAXKRczm0YRlEynue5CoJADYfDs8reyw3dqoFtXZm7aZqdZelt21aLxeLiIF0H4aPRiBnpAAAAAIDrK88Vr3Yv1041b5Oa9eZNstRhGB7M1gdBUNymnIEvr1cvB/3VLL1pmhc3lEvT9GCArpTam8lOkA4AAAAAuEg5o11X0q2UalX2Xg2imzRmcxxn7zmm0+nObcpBuG3be43iwjDcW0PfRaB+jGEYBOkAAAAAgG5sNptHXcpe7upe1nYMm2EYZ60JT9N0J2NvWdbeDPRyIK8D8HKgnqapiqJoZxa7bdudrVE/VVlAkA4AAAAAOFu58ZllWbUjzM5p9jYej5Xv+607rVdHwZWD9DzPled5e6/Htm01nU7VfD5XSZIUm+u6O7fpqut7dR16NUhnBBsAAAAA4CxhGO6MRGsTkDbZptNpo9L3+Xy+VzpuGEZtoK/XqbcdDzedTjuZo16d+T4YDIomeLqKgDMLAAAAANBauWy7rtlbNSCVC7qt64z3eDxWtm03Hqums/LlLPl4PG79GgzDKMbLXTKSrVxyn6apyvN853m2Fz4AAAAAAGiuvB5dDjSNO3eu+b1u5WZ0l5a6m6apbNuufQ7OLgAAAABAK+X16IeCdM/zzgqGB4NBq47wcmSUm+d5Z81plwNZ+UtK3svLA+TIunSaxwEAAAAAWilnhY+NTYvjWAVBoEzTbBQIm6apZrNZo1J50zRVHMe168vLXeKzLFOe57Veh14XQF87SGddOgAAAACgtXLAeWy99qFxY7fYXNdVi8WiWA9+6Wu5RpA+mUz2lgX4vk+QDgAAAABorlrKXlfufml393vbLg3SoyjayeZPp1OVJMleZ3pGsQEAAAAAWqlmpX3fP6u8+7W3Xq+nhsNho3XrlwbpWZY1Xh8/m80I0gEAAAAA5wXptm3vBbD3HqR7nle7fn40GtU2rrNt++IRbHVr7R3H2Vsvb9u2yrKMQB0AAAAA0D5Ir1uXfosgXTePC4KgduTbZDKpbRrnOM7BRneu69Y2unNdV10qTdPG2XTWpgMAAAAAzgrSpWZdetdBer/fV8PhcCfgLgfOaZruNIcbj8dqPp+r8Xi891i683t5vbg0aETXhTAMG42Y0xcgONsAAAAAAEfVlW1Xg3TP8zqZdy7bNdp6XbdUysLLAXeWZbUZdTmytjzLskbj2boK0tsE6uPxmLJ3AAAAAMBxdVnyug7veZ6rIAgunlEu28zyoZ/7vq+SJFFKKRUEwdHHsW17Z657nueNLiiMx+OLGsdVj0sYhidL3w3DUL7vq81m88hZBwAAAAA4GKRXA+9qCfmphmm32AzDqL1A4Lru3utN01QFQaA8z1OTyUQ5jqM8z1NhGHYWnNetUa9rHFe9CDGfz8mmAwAAAADqpWm6E1gahrGTnT41I/weNtM0leu6aj6fF1n41xJF0dFgXZf1v5fzZ7PZPM5mM+W6rrJtW9m2rabTKaX9AAAAAHCO6sxvwzBqy93LGeN7C9KlJuteDhh93y+2JEmOXoToShzHyvO82jJ4Xab/lgNz3/eVYRg7+zUYDNRoNFIiohv4AQAAAADaBlw6sJLSyLBjQfo9B+intmMXILqW57nK8/xgmf5bC9TTND3YT0AvL5Dt3HreWQAAAABwJh1cyYFO69VO73JivFoQBCqO40br1x3HUXEcqyiKVPViQZfbYDC4edn7qYsatm2/iTXqTUbw6eD9LVcIAAAAAMBdqFtnblmWmk6nO6Xh27XUR7um+76vptNp4+DZtm3l+76yLKv4Wa/XU8Ph8OQItiZbr9dTWZa92hr1UwGu7vp+j2u42/wdt38rAAAAAMCl0jQ9OELMNE1l2/bBMueut3Kp/aWl9V3OQ79WkC6VLvX3cD64rtvqOL+nRngAAAAA8Orq1qV3tZ2aWV53UWA6neoy8MbbZDJRURQVpfOyzaIfKtu/tyC9vO+vVTLeNjhn7TkAAAAAXEkQBJ13WC+XsMsVO7nP53OVZZlaLBbFc75miXu1y3vbbviWZanZbHazEnjXdYuGek0qJihtBwAAAIAraxtM6lFttyqDlzvt4N6kw/u5a+uvHazrJoCu6zbqIzAYDNRms3nk3QIAAAAAV7bZbB4PrUt/a9ux7vSvVfKuL4AMh8OTHfLlQBn8YrHoJEhuU4IvpeZ7vEsAAAAA4IaajEyTI+uTrxnkG4ZRdI/3fV+5rnu0oZ3rumo+nxe/113U2+iyZD4Mw06Oj2VZyvd9lSRJ66C5bXAujFQDAAANfeIQAED3oihSruvKH3/8cfR2o9FILMuS5XIpv/32m4zHY0mSRNbr9b1fhJDZbHb0NsvlUqbTqSwWCzEMo/j5er2WHz9+7Ny21+uJZVmNn3+9XkuSJLJcLot/6+ewLEt+/fVXWa1WjR7LMAyxLEts2xbLsuSf//mff/n8+fPfDgXnLy8vrY6V53ny9etX/v8WAAAAAF7LZrN5dBznYMmz/u/pdKryPFd5nh/MEPf7fZVlmcqyrHWH92ttx0rg0zRV/X5/Zy78bDY72vzOMAxl27aazWY792uri6Z9pmkWlQZJkqjNZvM4m83OfbyboIQeAAAAAE6I43gvqB6PxyqOY6UDeNM0dwLe8pprvenAVe5knbppmirP89rgXDfBU0qpKIrOaoZnmqbyfb91ifwljeWudSHj2PmRpunF69P1MR+PxzSiAwAAAIBTqo3NTNNUURSpLMuKQH08HhcBaZ7nrZuh3XpzXXdvNJphGMpxHBXHsbJtu9Xs98lkUlshoC9otBFFkbrWnHo5Y+2/bds7W91FCx1kt+k+H0WRMgxj5zF832fdOwAAAAAck2XZXnZXB+Xl3/m+X2SnywH8PW66FNx13cb3GQ6HRfDc6/VUEAQ7TeXkSFZ9Pp+3zqhHUaQcx7mb5QFyRvf5asC9WCzUeDxu1JH/0HbseV3XpfM8AAAAgPcviqK9YFEH5WEYqn6/X2RC30qgfiwYl9La+yAIlO6EPhgMateby4E54vqY6WNzTof4LMtUFEVqMpmc1RF+MBgox3GU53k7m+M4ajgc3lV5vXSQ+ScTDwAAAODd22w2j57n7aw1NwyjyBDrQL2aNc6yTE0mk7016ve6lZu2jcfjInM7Go1q17ArpYrAudfrKc/zitvVlfy7rqsWi8XZTeWyLFNhGJ4MrI+93kPiOFZxHO8E8NfI4g+HQ3XO+Lcm2/aiEAAAAAC8f3WZ8XLTuCiK1HA4LJqm6SAxz3MVBMGbK9vWAeUxOpAtZ8i3zdZOzje3bbvovt7WoTXro9FIdS3LMhXHcW1gHQRBq270ruuq6XS6NylgMpkoz/NUFEXFxYK6tfx5nh/sGbBd3w4AAAAAHytQr2ZxdfY8z/OixL3f76vpdLpTGq6DeH0/HZDda5O5KIqKIFWvdT7UBV6PaJMDjeWOlakbhlFk2A9lv/M8V/P5/OiabD3+LUmSYpvP58r3fTWfz3d+3ibLvlgsakfP+b7faH25nChPn06nO69Nb4vFQvm+r3zfV7ZtHx1/JzccFQcAAAAAdyWO471AXQdbWZbtzEu3bXsnuNXl74PBoAjArh1s6+7rbe4zm83UbDYruo/rJnE6OJdtOXye58q2bdXv9/eqBfR92pR227ZdNLXrIgiWhhn9Ng3a7m3bHnMAAAAAIFCXIyPH9PrpOofWVff7/U7L4qMo2inHHgwGrZuv6QsQdb+bTCZF8F5+jlPB+Xtq1iav3+QPAAAAABDHce3a6HL5+6m1zuX54roRnV537HmeGg6HZzedq87zNk2zdsa3nNmgTJehl8uwy1nofr+vwjAsjtFoNFJpmha31w3U7mUm+lvbtsskAAAAAADaoTFrep11k5FjURQVgWp1jJvOUgdBoEaj0V00nzMMQ9m2fTDgHwwGKs/zojR+Mpmo+XyuLMtSvV6vqDS4Vofz97zpDvqbzeaRdx8AAAAA1NhsNo9BENSWkVuW1Tirrtd06/Lyunnkema4zrLfW9m4riLQ69bLm96fQ6XzbIfHyQVBQGAOAAAAAG2kaaocx9krTy93L28yq1tn5k3TbNT1/Jbj3Xzfb9JlfG8Lw/DtDGSdAAAFFUlEQVSs+8kHypAPh0PlOI4KgkCPsQMAAAAAXCqKomIMW12wXpchrwbenuft3N+yLOW6bjFirBq0t5nVzfa6wXg5ECc7DgAAAAA3kqbpTmO4arB+qgz+UAd4qYwPI0N935vjOLr7PQAAeAM+cQgA4P0H6/P5XBaLhfz8+XPnd5ZliW3bYtu2DAYDMU1z5/er1UpWq5Usl0tZr9eSJIms12v58eMHB/bGBoOBGIYhlmWJYRiyXq9luVzKcrmUP/74Y+e2k8lE/uu//uuXz58//40jBwAAAToA4E6D9SRJRG/VwM40TTFNUyzLKv5XB4ZV5aC9HMhXHxPn6ff7Mh6PZTwey/Pz86dTf9fZbCZJksh8Pj95ewAAQIAOAHhjAXuZbdtFBlcH8sPhsPa2OnjXgbuWJEnt7fXj6ce3LEtERObzucxms73M/3sPyl3XlaenJ/4/GgAAAnQAwEcP2HU2/Pfffz95n2rQrkuwDwXv59CvZ7lc7gX9tm3XXkyo0iXhq9VKkiSpDfr7/b4YhnHTEn6CcgAAQIAOAGgctOsA+Zw16HWZ916vV2TJX0uSJPLrr7/KcrkUERHP88T3fZnP5/Ly8nK159X7Ph6PxbZtgnIAAECADgC4TJZlqtpATkQaZd2rAbzIfpl72aF18MeULyTorHu5sdp6vd67j2VZRcDeVr/f31u/X2Wapjw8PPD/vQAAgAAdAHA7aZqq6jr08hr0toF8HV1Of2hte9f0hYJqOT9N2QAAAAE6AOBdiOO4mNVdDrbLwf01xrvVldpXM/oiQgAOAAAI0AEAaBLUN2UYBmu+AQAAAAAAAAAAAAAAAAAAAAAAAAAAAAAAAAAAAAAAAAAAAAAAAAAAAAAAAAAAAAAAAAAAAAAAAAAAAAAAAAAAAAAAAAAAAAAAAAAAAAAAAAAAAAAAAAAAAAAAAAAAAAAAAAAAAAAAAAAAAAAAAAAAAAAAAAAAAAAAAAAAAAAAAAAAAAAAAAAAAAAAAAAAAAAAAAAAAAAAAAAAAAAAAAAAAAAAAAAAAAAAAAAAAAAAAAAAAAAAAAAAAAAAAAAAAAAAAAAAAAAAAAAAAAAAAAAAAAAAAAAAAAAAAAAAAAAAAAAAAAAAAAAAAAAAAAAAAAAAAAAAAAAAAAAAAAAAAAAAAAAAAAAAAAAAAAAAAAAAAAAAAAAAAAAAAAAAAAAAAAAAAAAAAAAAAAAAAAAAAAAAAAAAAAAAAAAAAAAAAAAAAAAAAAAAAAAAAAAAAAAAAAAAAADA/7UHByQAAAAAgv6/bkegAgAAAAAAAAAAAAAAAAAAAAAAAAAAAAAAAAAAAAAAAAAAAAAAAAAAAAAAAAAAAAAAAAAAAAAAAAAAAAAAAAAAAAAAAAAAAAAAAAAAAAAAAAAAAAAAAAAAAAAAAAAAAAAAAAAAAAAAAAAAAAAAAAAAAAAAAAAAAAAAAAAAAAAAAAAAAAAAAAAAAAAAAAAAAAAAAAAAAAAAAAAAAAAAAAAAAAAAAAAAAAAAAAAAAAAAAAAAAAAAAAAAAAAAAAAAAAAAAAAAAAAAAAAAAAAAAAAAAAAAAAAAAAAAAAAAAAAAAAAAAAAAAAAAAAAAAAAAAAAAAAAAAAAAAAAAAAAAAAAAAAAAAAAAAAAAAAAAAAAAAAAAAAAAAAAAAAAAAAAAAAAAAAAAAAAAAAAAAAAAAAAAAAAAAAAAAAAAAAAAAAAAAAAAAAAAAAAAAAAAAAAAADAVv8ZyDWOzxCoAAAAASUVORK5CYII=;labelBackgroundColor=none;fillColor=#FAE5C7;strokeColor=#0F8B8D;fontColor=#143642;" parent="1" vertex="1">
          <mxGeometry x="647.5" y="52.5" width="120" height="60" as="geometry" />
        </mxCell>
        <mxCell id="wUTPFzmtWlpO7wMYFoVt-35" style="edgeStyle=orthogonalEdgeStyle;rounded=0;orthogonalLoop=1;jettySize=auto;html=1;exitX=0;exitY=0.5;exitDx=0;exitDy=0;entryX=0.5;entryY=1;entryDx=0;entryDy=0;labelBackgroundColor=none;strokeColor=#A8201A;fontColor=default;" parent="1" source="wUTPFzmtWlpO7wMYFoVt-31" target="wUTPFzmtWlpO7wMYFoVt-4" edge="1">
          <mxGeometry relative="1" as="geometry">
            <mxPoint x="218" y="418" as="targetPoint" />
            <mxPoint x="700" y="125" as="sourcePoint" />
          </mxGeometry>
        </mxCell>
        <mxCell id="wUTPFzmtWlpO7wMYFoVt-40" style="edgeStyle=orthogonalEdgeStyle;rounded=0;orthogonalLoop=1;jettySize=auto;html=1;exitX=0;exitY=0.5;exitDx=0;exitDy=0;entryX=1;entryY=0.513;entryDx=0;entryDy=0;entryPerimeter=0;labelBackgroundColor=none;strokeColor=#A8201A;fontColor=default;" parent="1" source="wUTPFzmtWlpO7wMYFoVt-31" target="wUTPFzmtWlpO7wMYFoVt-9" edge="1">
          <mxGeometry relative="1" as="geometry" />
        </mxCell>
        <mxCell id="wUTPFzmtWlpO7wMYFoVt-41" value="" style="rounded=1;whiteSpace=wrap;html=1;movable=1;resizable=1;rotatable=1;deletable=1;editable=1;locked=0;connectable=1;" parent="1" vertex="1">
          <mxGeometry x="522.5" y="760" width="380" height="455.2" as="geometry" />
        </mxCell>
        <mxCell id="wUTPFzmtWlpO7wMYFoVt-42" value="&lt;span style=&quot;font-size: 34px;&quot;&gt;&lt;b&gt;DATA LAYER&lt;/b&gt;&lt;/span&gt;" style="text;strokeColor=none;align=center;fillColor=none;html=1;verticalAlign=middle;whiteSpace=wrap;rounded=0;movable=1;resizable=1;rotatable=1;deletable=1;editable=1;locked=0;connectable=1;labelBackgroundColor=none;fontColor=#143642;" parent="1" vertex="1">
          <mxGeometry x="567.5" y="770" width="290" height="65" as="geometry" />
        </mxCell>
        <mxCell id="wUTPFzmtWlpO7wMYFoVt-58" style="edgeStyle=orthogonalEdgeStyle;rounded=0;orthogonalLoop=1;jettySize=auto;html=1;exitX=0.5;exitY=1;exitDx=0;exitDy=0;entryX=0.5;entryY=0;entryDx=0;entryDy=0;strokeColor=#A8201A;fontColor=#143642;fillColor=#FAE5C7;" parent="1" source="wUTPFzmtWlpO7wMYFoVt-45" target="wUTPFzmtWlpO7wMYFoVt-50" edge="1">
          <mxGeometry relative="1" as="geometry" />
        </mxCell>
        <mxCell id="wUTPFzmtWlpO7wMYFoVt-45" value="" style="shape=image;imageAspect=0;aspect=fixed;verticalLabelPosition=bottom;verticalAlign=top;strokeColor=#0F8B8D;fontColor=#143642;fillColor=#FAE5C7;image=https://th.bing.com/th/id/OIP.72CBS10q49yCePavXFsPlAHaB8?rs=1&amp;pid=ImgDetMain;" parent="1" vertex="1">
          <mxGeometry x="578.71" y="870" width="267.58" height="70" as="geometry" />
        </mxCell>
        <mxCell id="wUTPFzmtWlpO7wMYFoVt-50" value="" style="rounded=1;whiteSpace=wrap;html=1;strokeColor=#0F8B8D;fontColor=#143642;fillColor=#FAE5C7;" parent="1" vertex="1">
          <mxGeometry x="532.5" y="990" width="360" height="200" as="geometry" />
        </mxCell>
        <mxCell id="wUTPFzmtWlpO7wMYFoVt-54" style="edgeStyle=orthogonalEdgeStyle;rounded=0;orthogonalLoop=1;jettySize=auto;html=1;exitX=1;exitY=0.5;exitDx=0;exitDy=0;exitPerimeter=0;strokeColor=#A8201A;fontColor=#143642;fillColor=#FAE5C7;" parent="1" source="wUTPFzmtWlpO7wMYFoVt-51" target="wUTPFzmtWlpO7wMYFoVt-53" edge="1">
          <mxGeometry relative="1" as="geometry" />
        </mxCell>
        <mxCell id="wUTPFzmtWlpO7wMYFoVt-51" value="" style="outlineConnect=0;dashed=0;verticalLabelPosition=bottom;verticalAlign=top;align=center;html=1;shape=mxgraph.aws3.mysql_db_instance;fillColor=#2E73B8;gradientColor=none;strokeColor=#0F8B8D;fontColor=#143642;" parent="1" vertex="1">
          <mxGeometry x="542.5" y="1010" width="130" height="160" as="geometry" />
        </mxCell>
        <mxCell id="wUTPFzmtWlpO7wMYFoVt-53" value="SQL replica" style="sketch=0;outlineConnect=0;strokeColor=#d79b00;fillColor=#ffe6cc;dashed=0;verticalLabelPosition=bottom;verticalAlign=top;align=center;html=1;fontSize=12;fontStyle=0;aspect=fixed;shape=mxgraph.aws4.resourceIcon;resIcon=mxgraph.aws4.sql_replica;" parent="1" vertex="1">
          <mxGeometry x="732.5" y="1005" width="150" height="150" as="geometry" />
        </mxCell>
        <mxCell id="wUTPFzmtWlpO7wMYFoVt-60" value="&lt;b&gt;&lt;font style=&quot;font-size: 34px;&quot;&gt;WEB APPLICATION SERVERS&lt;/font&gt;&lt;/b&gt;" style="text;strokeColor=none;align=center;fillColor=none;html=1;verticalAlign=middle;whiteSpace=wrap;rounded=0;movable=1;resizable=1;rotatable=1;deletable=1;editable=1;locked=0;connectable=1;labelBackgroundColor=none;fontColor=#143642;" parent="1" vertex="1">
          <mxGeometry x="551.25" y="-160" width="322.5" height="65" as="geometry" />
        </mxCell>
        <mxCell id="wUTPFzmtWlpO7wMYFoVt-65" value="" style="outlineConnect=0;dashed=0;verticalLabelPosition=bottom;verticalAlign=top;align=center;html=1;shape=mxgraph.aws3.classic_load_balancer;fillColor=#F58534;gradientColor=none;strokeColor=#0F8B8D;fontColor=#143642;" parent="1" vertex="1">
          <mxGeometry x="600" y="-390" width="136.5" height="132" as="geometry" />
        </mxCell>
        <mxCell id="wUTPFzmtWlpO7wMYFoVt-66" style="edgeStyle=orthogonalEdgeStyle;rounded=0;orthogonalLoop=1;jettySize=auto;html=1;entryX=0.487;entryY=0.004;entryDx=0;entryDy=0;entryPerimeter=0;strokeColor=#A8201A;fontColor=#143642;fillColor=#FAE5C7;shape=flexArrow;flowAnimation=1;" parent="1" source="wUTPFzmtWlpO7wMYFoVt-65" target="wUTPFzmtWlpO7wMYFoVt-59" edge="1">
          <mxGeometry relative="1" as="geometry" />
        </mxCell>
        <mxCell id="wUTPFzmtWlpO7wMYFoVt-67" value="&lt;span style=&quot;font-size: 34px;&quot;&gt;&lt;b&gt;LOAD BALANCER&lt;/b&gt;&lt;/span&gt;" style="text;strokeColor=none;align=center;fillColor=none;html=1;verticalAlign=middle;whiteSpace=wrap;rounded=0;movable=1;resizable=1;rotatable=1;deletable=1;editable=1;locked=0;connectable=1;labelBackgroundColor=none;fontColor=#143642;" parent="1" vertex="1">
          <mxGeometry x="530" y="-440" width="300" height="65" as="geometry" />
        </mxCell>
        <mxCell id="wUTPFzmtWlpO7wMYFoVt-69" value="" style="rounded=1;whiteSpace=wrap;html=1;strokeColor=#0F8B8D;fontColor=#143642;fillColor=#FAE5C7;" parent="1" vertex="1">
          <mxGeometry x="430" y="100" width="120" height="60" as="geometry" />
        </mxCell>
        <mxCell id="wUTPFzmtWlpO7wMYFoVt-70" value="&lt;span style=&quot;font-size: 34px;&quot;&gt;&lt;b style=&quot;font-size: 67px;&quot;&gt;BACKEND&lt;/b&gt;&lt;/span&gt;" style="text;strokeColor=none;align=center;fillColor=none;html=1;verticalAlign=middle;whiteSpace=wrap;rounded=0;movable=1;resizable=1;rotatable=1;deletable=1;editable=1;locked=0;connectable=1;labelBackgroundColor=none;fontColor=#143642;" parent="1" vertex="1">
          <mxGeometry x="522.5" y="-580" width="300" height="65" as="geometry" />
        </mxCell>
        <mxCell id="wUTPFzmtWlpO7wMYFoVt-71" value="" style="image;aspect=fixed;html=1;points=[];align=center;fontSize=12;image=img/lib/azure2/networking/Azure_Firewall_Manager.svg;strokeColor=#0F8B8D;fontColor=#143642;fillColor=#FAE5C7;" parent="1" vertex="1">
          <mxGeometry x="70" y="-474" width="319.67" height="274" as="geometry" />
        </mxCell>
        <mxCell id="wUTPFzmtWlpO7wMYFoVt-72" style="edgeStyle=orthogonalEdgeStyle;rounded=0;orthogonalLoop=1;jettySize=auto;html=1;entryX=0;entryY=0.5;entryDx=0;entryDy=0;entryPerimeter=0;strokeColor=#A8201A;fontColor=#143642;fillColor=#FAE5C7;shape=flexArrow;flowAnimation=1;" parent="1" source="wUTPFzmtWlpO7wMYFoVt-71" target="wUTPFzmtWlpO7wMYFoVt-65" edge="1">
          <mxGeometry relative="1" as="geometry" />
        </mxCell>
        <mxCell id="wUTPFzmtWlpO7wMYFoVt-73" value="&lt;span style=&quot;font-size: 34px;&quot;&gt;&lt;b&gt;FIREWALL&lt;/b&gt;&lt;/span&gt;" style="text;strokeColor=none;align=center;fillColor=none;html=1;verticalAlign=middle;whiteSpace=wrap;rounded=0;movable=1;resizable=1;rotatable=1;deletable=1;editable=1;locked=0;connectable=1;labelBackgroundColor=none;fontColor=#143642;" parent="1" vertex="1">
          <mxGeometry x="49.99999999999997" y="-530" width="300" height="65" as="geometry" />
        </mxCell>
        <mxCell id="wUTPFzmtWlpO7wMYFoVt-77" style="edgeStyle=orthogonalEdgeStyle;rounded=0;orthogonalLoop=1;jettySize=auto;html=1;entryX=0.25;entryY=0;entryDx=0;entryDy=0;strokeColor=#A8201A;fontColor=#143642;fillColor=#FAE5C7;shape=flexArrow;flowAnimation=1;" parent="1" source="wUTPFzmtWlpO7wMYFoVt-74" target="wUTPFzmtWlpO7wMYFoVt-8" edge="1">
          <mxGeometry relative="1" as="geometry">
            <Array as="points">
              <mxPoint x="-525" y="-130" />
              <mxPoint x="-290" y="-130" />
            </Array>
          </mxGeometry>
        </mxCell>
        <mxCell id="wUTPFzmtWlpO7wMYFoVt-74" value="" style="strokeWidth=1;shadow=0;dashed=0;align=center;html=1;shape=mxgraph.mockup.containers.browserWindow;rSize=0;strokeColor=#666666;strokeColor2=#008cff;strokeColor3=#c4c4c4;mainText=,;recursiveResize=0;fontColor=#143642;fillColor=#FAE5C7;" parent="1" vertex="1">
          <mxGeometry x="-800" y="-687.5" width="550" height="380" as="geometry" />
        </mxCell>
        <mxCell id="wUTPFzmtWlpO7wMYFoVt-75" value="Page 1" style="strokeWidth=1;shadow=0;dashed=0;align=center;html=1;shape=mxgraph.mockup.containers.anchor;fontSize=17;fontColor=#666666;align=left;whiteSpace=wrap;strokeColor=#0F8B8D;fillColor=#FAE5C7;" parent="wUTPFzmtWlpO7wMYFoVt-74" vertex="1">
          <mxGeometry x="60" y="12" width="110" height="26" as="geometry" />
        </mxCell>
        <mxCell id="wUTPFzmtWlpO7wMYFoVt-76" value="https://www.sms.edu" style="strokeWidth=1;shadow=0;dashed=0;align=center;html=1;shape=mxgraph.mockup.containers.anchor;rSize=0;fontSize=17;fontColor=#666666;align=left;strokeColor=#0F8B8D;fillColor=#FAE5C7;" parent="wUTPFzmtWlpO7wMYFoVt-74" vertex="1">
          <mxGeometry x="130" y="60" width="250" height="26" as="geometry" />
        </mxCell>
        <mxCell id="wUTPFzmtWlpO7wMYFoVt-78" style="edgeStyle=orthogonalEdgeStyle;rounded=0;orthogonalLoop=1;jettySize=auto;html=1;strokeColor=#A8201A;fontColor=#143642;fillColor=#FAE5C7;shape=flexArrow;exitX=0.25;exitY=0;exitDx=0;exitDy=0;flowAnimation=1;endWidth=19;endSize=5.67;entryX=0.518;entryY=0.993;entryDx=0;entryDy=0;entryPerimeter=0;" parent="1" source="wUTPFzmtWlpO7wMYFoVt-8" edge="1" target="wUTPFzmtWlpO7wMYFoVt-74">
          <mxGeometry relative="1" as="geometry">
            <mxPoint x="-280" y="50" as="sourcePoint" />
            <mxPoint x="-515" y="-290" as="targetPoint" />
            <Array as="points">
              <mxPoint x="-290" y="-130" />
              <mxPoint x="-525" y="-130" />
              <mxPoint x="-525" y="-280" />
              <mxPoint x="-515" y="-280" />
            </Array>
          </mxGeometry>
        </mxCell>
        <mxCell id="wUTPFzmtWlpO7wMYFoVt-79" value="" style="image;aspect=fixed;html=1;points=[];align=center;fontSize=12;image=img/lib/azure2/networking/DNS_Zones.svg;strokeColor=#0F8B8D;fontColor=#143642;fillColor=#FAE5C7;" parent="1" vertex="1">
          <mxGeometry x="-110" y="-810" width="230" height="230" as="geometry" />
        </mxCell>
        <mxCell id="wUTPFzmtWlpO7wMYFoVt-80" style="edgeStyle=orthogonalEdgeStyle;rounded=0;orthogonalLoop=1;jettySize=auto;html=1;entryX=1.011;entryY=0.088;entryDx=0;entryDy=0;entryPerimeter=0;strokeColor=#A8201A;fontColor=#143642;fillColor=#FAE5C7;shape=flexArrow;" parent="1" source="wUTPFzmtWlpO7wMYFoVt-79" target="wUTPFzmtWlpO7wMYFoVt-74" edge="1">
          <mxGeometry relative="1" as="geometry" />
        </mxCell>
        <mxCell id="wUTPFzmtWlpO7wMYFoVt-81" style="edgeStyle=orthogonalEdgeStyle;rounded=0;orthogonalLoop=1;jettySize=auto;html=1;entryX=1.011;entryY=0.088;entryDx=0;entryDy=0;entryPerimeter=0;strokeColor=#A8201A;fontColor=#143642;fillColor=#FAE5C7;shape=flexArrow;" parent="1" edge="1">
          <mxGeometry relative="1" as="geometry">
            <mxPoint x="-244" y="-659" as="sourcePoint" />
            <mxPoint x="-110" y="-700" as="targetPoint" />
            <Array as="points">
              <mxPoint x="-130" y="-658" />
              <mxPoint x="-130" y="-700" />
            </Array>
          </mxGeometry>
        </mxCell>
        <mxCell id="Fofwsoo18Ka0ADrm3eSA-1" value="&lt;span style=&quot;font-size: 34px;&quot;&gt;&lt;b style=&quot;font-size: 67px;&quot;&gt;ARCHITECTURE&lt;/b&gt;&lt;/span&gt;" style="text;strokeColor=none;align=center;fillColor=none;html=1;verticalAlign=middle;whiteSpace=wrap;rounded=0;movable=1;resizable=1;rotatable=1;deletable=1;editable=1;locked=0;connectable=1;labelBackgroundColor=none;fontColor=#143642;" vertex="1" parent="1">
          <mxGeometry x="100" y="-990" width="300" height="65" as="geometry" />
        </mxCell>
        <mxCell id="Fofwsoo18Ka0ADrm3eSA-2" value="&lt;span style=&quot;font-size: 34px;&quot;&gt;&lt;b style=&quot;font-size: 67px;&quot;&gt;APIs AND METHODS&lt;/b&gt;&lt;/span&gt;" style="text;strokeColor=none;align=center;fillColor=none;html=1;verticalAlign=middle;whiteSpace=wrap;rounded=0;movable=1;resizable=1;rotatable=1;deletable=1;editable=1;locked=0;connectable=1;labelBackgroundColor=none;fontColor=#143642;" vertex="1" parent="1">
          <mxGeometry x="57.5" y="1830" width="1500" height="65" as="geometry" />
        </mxCell>
        <mxCell id="Fofwsoo18Ka0ADrm3eSA-13" value="&lt;b&gt;&lt;font style=&quot;font-size: 33px;&quot;&gt;AUTHENTICATION&lt;/font&gt;&lt;/b&gt;" style="text;html=1;align=center;verticalAlign=middle;whiteSpace=wrap;rounded=0;fontColor=#FF8000;" vertex="1" parent="1">
          <mxGeometry x="-380" y="2070" width="60" height="30" as="geometry" />
        </mxCell>
        <mxCell id="Fofwsoo18Ka0ADrm3eSA-18" value="" style="rounded=1;whiteSpace=wrap;html=1;fillColor=#f8cecc;strokeColor=#b85450;" vertex="1" parent="1">
          <mxGeometry x="-670" y="2180" width="170" height="360" as="geometry" />
        </mxCell>
        <mxCell id="Fofwsoo18Ka0ADrm3eSA-20" style="edgeStyle=orthogonalEdgeStyle;rounded=0;orthogonalLoop=1;jettySize=auto;html=1;" edge="1" parent="1">
          <mxGeometry relative="1" as="geometry">
            <mxPoint x="-260" y="2375" as="sourcePoint" />
            <mxPoint x="-260" y="2395" as="targetPoint" />
          </mxGeometry>
        </mxCell>
        <mxCell id="Fofwsoo18Ka0ADrm3eSA-21" value="&lt;span style=&quot;font-size: 33px;&quot;&gt;&lt;b&gt;METHOD&lt;/b&gt;&lt;/span&gt;" style="text;html=1;align=center;verticalAlign=middle;whiteSpace=wrap;rounded=0;" vertex="1" parent="1">
          <mxGeometry x="-745" y="2130" width="320" height="30" as="geometry" />
        </mxCell>
        <mxCell id="Fofwsoo18Ka0ADrm3eSA-22" value="&lt;span style=&quot;font-size: 33px;&quot;&gt;&lt;b&gt;URL&lt;/b&gt;&lt;/span&gt;" style="text;html=1;align=center;verticalAlign=middle;whiteSpace=wrap;rounded=0;" vertex="1" parent="1">
          <mxGeometry x="-470" y="2125" width="320" height="30" as="geometry" />
        </mxCell>
        <mxCell id="Fofwsoo18Ka0ADrm3eSA-23" style="edgeStyle=orthogonalEdgeStyle;rounded=0;orthogonalLoop=1;jettySize=auto;html=1;" edge="1" parent="1">
          <mxGeometry relative="1" as="geometry">
            <mxPoint x="-260" y="2375" as="sourcePoint" />
            <mxPoint x="-260" y="2395" as="targetPoint" />
          </mxGeometry>
        </mxCell>
        <mxCell id="Fofwsoo18Ka0ADrm3eSA-24" value="" style="rounded=1;whiteSpace=wrap;html=1;fillColor=#dae8fc;strokeColor=#6c8ebf;" vertex="1" parent="1">
          <mxGeometry x="-480" y="2180" width="430" height="360" as="geometry" />
        </mxCell>
        <mxCell id="Fofwsoo18Ka0ADrm3eSA-25" value="&lt;font style=&quot;font-size: 28px;&quot;&gt;POST&lt;/font&gt;" style="text;html=1;align=center;verticalAlign=middle;whiteSpace=wrap;rounded=0;" vertex="1" parent="1">
          <mxGeometry x="-620" y="2200" width="60" height="30" as="geometry" />
        </mxCell>
        <mxCell id="Fofwsoo18Ka0ADrm3eSA-26" value="&lt;font style=&quot;font-size: 28px;&quot;&gt;POST&lt;/font&gt;" style="text;html=1;align=center;verticalAlign=middle;whiteSpace=wrap;rounded=0;" vertex="1" parent="1">
          <mxGeometry x="-620" y="2452.5" width="60" height="30" as="geometry" />
        </mxCell>
        <mxCell id="Fofwsoo18Ka0ADrm3eSA-27" value="&lt;font style=&quot;font-size: 28px;&quot;&gt;/api/v1/auth/login&lt;/font&gt;" style="text;html=1;align=center;verticalAlign=middle;whiteSpace=wrap;rounded=0;" vertex="1" parent="1">
          <mxGeometry x="-340" y="2200" width="60" height="30" as="geometry" />
        </mxCell>
        <mxCell id="Fofwsoo18Ka0ADrm3eSA-28" value="&lt;font style=&quot;font-size: 28px;&quot;&gt;/api/v1/auth/logout&lt;/font&gt;" style="text;html=1;align=center;verticalAlign=middle;whiteSpace=wrap;rounded=0;" vertex="1" parent="1">
          <mxGeometry x="-350" y="2380" width="60" height="30" as="geometry" />
        </mxCell>
        <mxCell id="Fofwsoo18Ka0ADrm3eSA-30" value="" style="rounded=1;whiteSpace=wrap;html=1;" vertex="1" parent="1">
          <mxGeometry x="-460" y="2230" width="380" height="75" as="geometry" />
        </mxCell>
        <mxCell id="Fofwsoo18Ka0ADrm3eSA-31" value="Authenticate users and generate authentication tokens" style="text;html=1;align=center;verticalAlign=middle;whiteSpace=wrap;rounded=0;" vertex="1" parent="1">
          <mxGeometry x="-450" y="2250" width="360" height="30" as="geometry" />
        </mxCell>
        <mxCell id="Fofwsoo18Ka0ADrm3eSA-32" value="" style="rounded=1;whiteSpace=wrap;html=1;" vertex="1" parent="1">
          <mxGeometry x="-460" y="2430" width="380" height="75" as="geometry" />
        </mxCell>
        <mxCell id="Fofwsoo18Ka0ADrm3eSA-33" value="Logout users and invalidate authentication tokens." style="text;html=1;align=center;verticalAlign=middle;whiteSpace=wrap;rounded=0;" vertex="1" parent="1">
          <mxGeometry x="-450" y="2450" width="360" height="30" as="geometry" />
        </mxCell>
        <mxCell id="Fofwsoo18Ka0ADrm3eSA-39" style="edgeStyle=orthogonalEdgeStyle;rounded=0;orthogonalLoop=1;jettySize=auto;html=1;strokeColor=#A8201A;fontColor=#143642;fillColor=#FAE5C7;shape=flexArrow;flowAnimation=1;entryX=0.5;entryY=1;entryDx=0;entryDy=0;entryPerimeter=0;" edge="1" parent="1" target="wUTPFzmtWlpO7wMYFoVt-65">
          <mxGeometry relative="1" as="geometry">
            <mxPoint x="700" y="-180" as="sourcePoint" />
            <mxPoint x="678" y="-248" as="targetPoint" />
          </mxGeometry>
        </mxCell>
        <mxCell id="Fofwsoo18Ka0ADrm3eSA-40" value="" style="rounded=1;whiteSpace=wrap;html=1;" vertex="1" parent="1">
          <mxGeometry x="312.5" y="2180" width="470" height="270" as="geometry" />
        </mxCell>
        <mxCell id="Fofwsoo18Ka0ADrm3eSA-41" value="" style="rounded=1;whiteSpace=wrap;html=1;" vertex="1" parent="1">
          <mxGeometry x="112.5" y="2050" width="680" height="1220" as="geometry" />
        </mxCell>
        <mxCell id="Fofwsoo18Ka0ADrm3eSA-42" value="&lt;b&gt;&lt;font style=&quot;font-size: 33px;&quot;&gt;STUDENT MANAGEMENT&lt;/font&gt;&lt;/b&gt;" style="text;html=1;align=center;verticalAlign=middle;whiteSpace=wrap;rounded=0;fontColor=#FF8000;" vertex="1" parent="1">
          <mxGeometry x="267.5" y="2070" width="430" height="30" as="geometry" />
        </mxCell>
        <mxCell id="Fofwsoo18Ka0ADrm3eSA-43" value="" style="rounded=1;whiteSpace=wrap;html=1;fillColor=#f8cecc;strokeColor=#b85450;" vertex="1" parent="1">
          <mxGeometry x="132.5" y="2180" width="177.5" height="1050" as="geometry" />
        </mxCell>
        <mxCell id="Fofwsoo18Ka0ADrm3eSA-44" style="edgeStyle=orthogonalEdgeStyle;rounded=0;orthogonalLoop=1;jettySize=auto;html=1;" edge="1" parent="1">
          <mxGeometry relative="1" as="geometry">
            <mxPoint x="542.5" y="2375" as="sourcePoint" />
            <mxPoint x="542.5" y="2395" as="targetPoint" />
          </mxGeometry>
        </mxCell>
        <mxCell id="Fofwsoo18Ka0ADrm3eSA-45" value="&lt;span style=&quot;font-size: 33px;&quot;&gt;&lt;b&gt;METHOD&lt;/b&gt;&lt;/span&gt;" style="text;html=1;align=center;verticalAlign=middle;whiteSpace=wrap;rounded=0;" vertex="1" parent="1">
          <mxGeometry x="57.5" y="2130" width="320" height="30" as="geometry" />
        </mxCell>
        <mxCell id="Fofwsoo18Ka0ADrm3eSA-46" value="&lt;span style=&quot;font-size: 33px;&quot;&gt;&lt;b&gt;URL&lt;/b&gt;&lt;/span&gt;" style="text;html=1;align=center;verticalAlign=middle;whiteSpace=wrap;rounded=0;" vertex="1" parent="1">
          <mxGeometry x="332.5" y="2125" width="320" height="30" as="geometry" />
        </mxCell>
        <mxCell id="Fofwsoo18Ka0ADrm3eSA-47" style="edgeStyle=orthogonalEdgeStyle;rounded=0;orthogonalLoop=1;jettySize=auto;html=1;" edge="1" parent="1">
          <mxGeometry relative="1" as="geometry">
            <mxPoint x="542.5" y="2375" as="sourcePoint" />
            <mxPoint x="542.5" y="2395" as="targetPoint" />
          </mxGeometry>
        </mxCell>
        <mxCell id="Fofwsoo18Ka0ADrm3eSA-48" value="" style="rounded=1;whiteSpace=wrap;html=1;fillColor=#dae8fc;strokeColor=#6c8ebf;" vertex="1" parent="1">
          <mxGeometry x="322.5" y="2180" width="430" height="1050" as="geometry" />
        </mxCell>
        <mxCell id="Fofwsoo18Ka0ADrm3eSA-49" value="&lt;font style=&quot;font-size: 28px;&quot;&gt;GET&lt;/font&gt;" style="text;html=1;align=center;verticalAlign=middle;whiteSpace=wrap;rounded=0;" vertex="1" parent="1">
          <mxGeometry x="182.5" y="2260" width="60" height="30" as="geometry" />
        </mxCell>
        <mxCell id="Fofwsoo18Ka0ADrm3eSA-50" value="&lt;font style=&quot;font-size: 28px;&quot;&gt;GET&lt;/font&gt;" style="text;html=1;align=center;verticalAlign=middle;whiteSpace=wrap;rounded=0;" vertex="1" parent="1">
          <mxGeometry x="182.5" y="2452.5" width="60" height="30" as="geometry" />
        </mxCell>
        <mxCell id="Fofwsoo18Ka0ADrm3eSA-51" value="&lt;font style=&quot;font-size: 28px;&quot;&gt;/api/v1/students&lt;/font&gt;" style="text;html=1;align=center;verticalAlign=middle;whiteSpace=wrap;rounded=0;" vertex="1" parent="1">
          <mxGeometry x="500" y="2190" width="60" height="30" as="geometry" />
        </mxCell>
        <mxCell id="Fofwsoo18Ka0ADrm3eSA-52" value="&lt;font style=&quot;font-size: 28px;&quot;&gt;/api/v1/students/{student_id}&lt;/font&gt;" style="text;html=1;align=center;verticalAlign=middle;whiteSpace=wrap;rounded=0;" vertex="1" parent="1">
          <mxGeometry x="497.5" y="2380" width="60" height="30" as="geometry" />
        </mxCell>
        <mxCell id="Fofwsoo18Ka0ADrm3eSA-53" value="" style="rounded=1;whiteSpace=wrap;html=1;" vertex="1" parent="1">
          <mxGeometry x="342.5" y="2230" width="380" height="100" as="geometry" />
        </mxCell>
        <mxCell id="Fofwsoo18Ka0ADrm3eSA-54" value="Retrieve a list of students. Filters can be applied like&lt;br&gt;&lt;b&gt;LIMIT: Limit the number of results return.&lt;/b&gt;&lt;div&gt;&lt;b&gt;SORT_BY: Sort the resukts by a specific attribute (e.g. name, date_of_birth, etc.)&lt;br&gt;SEARCH: Search for students whose names start with or contains the provided query string&lt;/b&gt;&lt;/div&gt;" style="text;html=1;align=center;verticalAlign=middle;whiteSpace=wrap;rounded=0;" vertex="1" parent="1">
          <mxGeometry x="350" y="2265" width="360" height="30" as="geometry" />
        </mxCell>
        <mxCell id="Fofwsoo18Ka0ADrm3eSA-55" value="" style="rounded=1;whiteSpace=wrap;html=1;" vertex="1" parent="1">
          <mxGeometry x="342.5" y="2430" width="380" height="75" as="geometry" />
        </mxCell>
        <mxCell id="Fofwsoo18Ka0ADrm3eSA-56" value="Retrieve details of a specific student" style="text;html=1;align=center;verticalAlign=middle;whiteSpace=wrap;rounded=0;" vertex="1" parent="1">
          <mxGeometry x="352.5" y="2450" width="360" height="30" as="geometry" />
        </mxCell>
        <mxCell id="Fofwsoo18Ka0ADrm3eSA-59" value="&lt;font style=&quot;font-size: 28px;&quot;&gt;POST&lt;/font&gt;" style="text;html=1;align=center;verticalAlign=middle;whiteSpace=wrap;rounded=0;" vertex="1" parent="1">
          <mxGeometry x="187.5" y="2660" width="60" height="30" as="geometry" />
        </mxCell>
        <mxCell id="Fofwsoo18Ka0ADrm3eSA-61" value="&lt;font style=&quot;font-size: 28px;&quot;&gt;/api/v1/students/&lt;/font&gt;" style="text;html=1;align=center;verticalAlign=middle;whiteSpace=wrap;rounded=0;" vertex="1" parent="1">
          <mxGeometry x="497.5" y="2590" width="60" height="30" as="geometry" />
        </mxCell>
        <mxCell id="Fofwsoo18Ka0ADrm3eSA-62" value="" style="rounded=1;whiteSpace=wrap;html=1;" vertex="1" parent="1">
          <mxGeometry x="347.5" y="2640" width="380" height="75" as="geometry" />
        </mxCell>
        <mxCell id="Fofwsoo18Ka0ADrm3eSA-63" value="Create a new student profile." style="text;html=1;align=center;verticalAlign=middle;whiteSpace=wrap;rounded=0;" vertex="1" parent="1">
          <mxGeometry x="347.5" y="2662.5" width="360" height="30" as="geometry" />
        </mxCell>
        <mxCell id="Fofwsoo18Ka0ADrm3eSA-64" value="&lt;font style=&quot;font-size: 28px;&quot;&gt;/api/v1/students/{student_id}&lt;/font&gt;" style="text;html=1;align=center;verticalAlign=middle;whiteSpace=wrap;rounded=0;" vertex="1" parent="1">
          <mxGeometry x="500" y="2820" width="60" height="30" as="geometry" />
        </mxCell>
        <mxCell id="Fofwsoo18Ka0ADrm3eSA-65" value="" style="rounded=1;whiteSpace=wrap;html=1;" vertex="1" parent="1">
          <mxGeometry x="345" y="2870" width="380" height="75" as="geometry" />
        </mxCell>
        <mxCell id="Fofwsoo18Ka0ADrm3eSA-66" value="Update an existing student profile" style="text;html=1;align=center;verticalAlign=middle;whiteSpace=wrap;rounded=0;" vertex="1" parent="1">
          <mxGeometry x="355" y="2890" width="360" height="30" as="geometry" />
        </mxCell>
        <mxCell id="Fofwsoo18Ka0ADrm3eSA-67" value="&lt;font style=&quot;font-size: 28px;&quot;&gt;PUT&lt;/font&gt;" style="text;html=1;align=center;verticalAlign=middle;whiteSpace=wrap;rounded=0;" vertex="1" parent="1">
          <mxGeometry x="199.84" y="2890" width="60" height="30" as="geometry" />
        </mxCell>
        <mxCell id="Fofwsoo18Ka0ADrm3eSA-68" value="&lt;font style=&quot;font-size: 28px;&quot;&gt;DELETE&lt;/font&gt;" style="text;html=1;align=center;verticalAlign=middle;whiteSpace=wrap;rounded=0;" vertex="1" parent="1">
          <mxGeometry x="199.84" y="3080" width="60" height="30" as="geometry" />
        </mxCell>
        <mxCell id="Fofwsoo18Ka0ADrm3eSA-71" value="&lt;font style=&quot;font-size: 28px;&quot;&gt;/api/v1/students/{student_id}&lt;/font&gt;" style="text;html=1;align=center;verticalAlign=middle;whiteSpace=wrap;rounded=0;" vertex="1" parent="1">
          <mxGeometry x="507.5" y="3010" width="60" height="30" as="geometry" />
        </mxCell>
        <mxCell id="Fofwsoo18Ka0ADrm3eSA-72" value="" style="rounded=1;whiteSpace=wrap;html=1;" vertex="1" parent="1">
          <mxGeometry x="352.5" y="3060" width="380" height="75" as="geometry" />
        </mxCell>
        <mxCell id="Fofwsoo18Ka0ADrm3eSA-73" value="Delete a student profile." style="text;html=1;align=center;verticalAlign=middle;whiteSpace=wrap;rounded=0;" vertex="1" parent="1">
          <mxGeometry x="362.5" y="3080" width="360" height="30" as="geometry" />
        </mxCell>
        <mxCell id="Fofwsoo18Ka0ADrm3eSA-74" value="" style="rounded=1;whiteSpace=wrap;html=1;" vertex="1" parent="1">
          <mxGeometry x="1147.5" y="2170" width="470" height="270" as="geometry" />
        </mxCell>
        <mxCell id="Fofwsoo18Ka0ADrm3eSA-75" value="" style="rounded=1;whiteSpace=wrap;html=1;" vertex="1" parent="1">
          <mxGeometry x="947.5" y="2040" width="680" height="1230" as="geometry" />
        </mxCell>
        <mxCell id="Fofwsoo18Ka0ADrm3eSA-76" value="&lt;b&gt;&lt;font style=&quot;font-size: 33px;&quot;&gt;TEACHER MANAGEMENT&lt;/font&gt;&lt;/b&gt;" style="text;html=1;align=center;verticalAlign=middle;whiteSpace=wrap;rounded=0;fontColor=#FF8000;" vertex="1" parent="1">
          <mxGeometry x="1080" y="2060" width="440" height="30" as="geometry" />
        </mxCell>
        <mxCell id="Fofwsoo18Ka0ADrm3eSA-77" value="" style="rounded=1;whiteSpace=wrap;html=1;fillColor=#f8cecc;strokeColor=#b85450;" vertex="1" parent="1">
          <mxGeometry x="967.5" y="2170" width="170" height="1050" as="geometry" />
        </mxCell>
        <mxCell id="Fofwsoo18Ka0ADrm3eSA-78" style="edgeStyle=orthogonalEdgeStyle;rounded=0;orthogonalLoop=1;jettySize=auto;html=1;" edge="1" parent="1">
          <mxGeometry relative="1" as="geometry">
            <mxPoint x="1377.5" y="2365" as="sourcePoint" />
            <mxPoint x="1377.5" y="2385" as="targetPoint" />
          </mxGeometry>
        </mxCell>
        <mxCell id="Fofwsoo18Ka0ADrm3eSA-79" value="&lt;span style=&quot;font-size: 33px;&quot;&gt;&lt;b&gt;METHOD&lt;/b&gt;&lt;/span&gt;" style="text;html=1;align=center;verticalAlign=middle;whiteSpace=wrap;rounded=0;" vertex="1" parent="1">
          <mxGeometry x="892.5" y="2120" width="320" height="30" as="geometry" />
        </mxCell>
        <mxCell id="Fofwsoo18Ka0ADrm3eSA-80" value="&lt;span style=&quot;font-size: 33px;&quot;&gt;&lt;b&gt;URL&lt;/b&gt;&lt;/span&gt;" style="text;html=1;align=center;verticalAlign=middle;whiteSpace=wrap;rounded=0;" vertex="1" parent="1">
          <mxGeometry x="1167.5" y="2115" width="320" height="30" as="geometry" />
        </mxCell>
        <mxCell id="Fofwsoo18Ka0ADrm3eSA-81" style="edgeStyle=orthogonalEdgeStyle;rounded=0;orthogonalLoop=1;jettySize=auto;html=1;" edge="1" parent="1">
          <mxGeometry relative="1" as="geometry">
            <mxPoint x="1377.5" y="2365" as="sourcePoint" />
            <mxPoint x="1377.5" y="2385" as="targetPoint" />
          </mxGeometry>
        </mxCell>
        <mxCell id="Fofwsoo18Ka0ADrm3eSA-82" value="" style="rounded=1;whiteSpace=wrap;html=1;fillColor=#dae8fc;strokeColor=#6c8ebf;" vertex="1" parent="1">
          <mxGeometry x="1157.5" y="2170" width="430" height="1050" as="geometry" />
        </mxCell>
        <mxCell id="Fofwsoo18Ka0ADrm3eSA-83" value="&lt;font style=&quot;font-size: 28px;&quot;&gt;GET&lt;/font&gt;" style="text;html=1;align=center;verticalAlign=middle;whiteSpace=wrap;rounded=0;" vertex="1" parent="1">
          <mxGeometry x="1017.5" y="2240" width="60" height="30" as="geometry" />
        </mxCell>
        <mxCell id="Fofwsoo18Ka0ADrm3eSA-84" value="&lt;font style=&quot;font-size: 28px;&quot;&gt;GET&lt;/font&gt;" style="text;html=1;align=center;verticalAlign=middle;whiteSpace=wrap;rounded=0;" vertex="1" parent="1">
          <mxGeometry x="1017.5" y="2442.5" width="60" height="30" as="geometry" />
        </mxCell>
        <mxCell id="Fofwsoo18Ka0ADrm3eSA-85" value="&lt;font style=&quot;font-size: 28px;&quot;&gt;/api/v1/teachers&lt;/font&gt;" style="text;html=1;align=center;verticalAlign=middle;whiteSpace=wrap;rounded=0;" vertex="1" parent="1">
          <mxGeometry x="1297.5" y="2190" width="60" height="30" as="geometry" />
        </mxCell>
        <mxCell id="Fofwsoo18Ka0ADrm3eSA-86" value="&lt;font style=&quot;font-size: 28px;&quot;&gt;/api/v1/teachers/{teacher_id}&lt;/font&gt;" style="text;html=1;align=center;verticalAlign=middle;whiteSpace=wrap;rounded=0;" vertex="1" parent="1">
          <mxGeometry x="1342.5" y="2370" width="60" height="30" as="geometry" />
        </mxCell>
        <mxCell id="Fofwsoo18Ka0ADrm3eSA-87" value="" style="rounded=1;whiteSpace=wrap;html=1;" vertex="1" parent="1">
          <mxGeometry x="1177.5" y="2220" width="380" height="100" as="geometry" />
        </mxCell>
        <mxCell id="Fofwsoo18Ka0ADrm3eSA-88" value="Retrieve a list of teachers. Filters can be applied like&lt;br&gt;&lt;b&gt;LIMIT: Limit the number of results return.&lt;/b&gt;&lt;div&gt;&lt;b&gt;SORT_BY: Sort the results by a specific attribute (e.g. name, date_of_birth, etc.)&lt;br&gt;SEARCH: Search for teachers whose names start with or contains the provided query string&lt;/b&gt;&lt;/div&gt;" style="text;html=1;align=center;verticalAlign=middle;whiteSpace=wrap;rounded=0;" vertex="1" parent="1">
          <mxGeometry x="1187.5" y="2255" width="360" height="30" as="geometry" />
        </mxCell>
        <mxCell id="Fofwsoo18Ka0ADrm3eSA-89" value="" style="rounded=1;whiteSpace=wrap;html=1;" vertex="1" parent="1">
          <mxGeometry x="1177.5" y="2420" width="380" height="75" as="geometry" />
        </mxCell>
        <mxCell id="Fofwsoo18Ka0ADrm3eSA-90" value="Retrieve a profile of a specific teacher" style="text;html=1;align=center;verticalAlign=middle;whiteSpace=wrap;rounded=0;" vertex="1" parent="1">
          <mxGeometry x="1187.5" y="2440" width="360" height="30" as="geometry" />
        </mxCell>
        <mxCell id="Fofwsoo18Ka0ADrm3eSA-98" value="&lt;font style=&quot;font-size: 28px;&quot;&gt;POST&lt;/font&gt;" style="text;html=1;align=center;verticalAlign=middle;whiteSpace=wrap;rounded=0;" vertex="1" parent="1">
          <mxGeometry x="1015" y="2650" width="60" height="30" as="geometry" />
        </mxCell>
        <mxCell id="Fofwsoo18Ka0ADrm3eSA-99" value="&lt;font style=&quot;font-size: 28px;&quot;&gt;/api/v1/teacher&lt;/font&gt;" style="text;html=1;align=center;verticalAlign=middle;whiteSpace=wrap;rounded=0;" vertex="1" parent="1">
          <mxGeometry x="1325" y="2580" width="60" height="30" as="geometry" />
        </mxCell>
        <mxCell id="Fofwsoo18Ka0ADrm3eSA-100" value="" style="rounded=1;whiteSpace=wrap;html=1;" vertex="1" parent="1">
          <mxGeometry x="1175" y="2630" width="380" height="75" as="geometry" />
        </mxCell>
        <mxCell id="Fofwsoo18Ka0ADrm3eSA-101" value="Create a new teacher profile." style="text;html=1;align=center;verticalAlign=middle;whiteSpace=wrap;rounded=0;" vertex="1" parent="1">
          <mxGeometry x="1175" y="2652.5" width="360" height="30" as="geometry" />
        </mxCell>
        <mxCell id="Fofwsoo18Ka0ADrm3eSA-102" value="&lt;font style=&quot;font-size: 28px;&quot;&gt;/api/v1/teachers/{teacher_id}&lt;/font&gt;" style="text;html=1;align=center;verticalAlign=middle;whiteSpace=wrap;rounded=0;" vertex="1" parent="1">
          <mxGeometry x="1327.5" y="2810" width="60" height="30" as="geometry" />
        </mxCell>
        <mxCell id="Fofwsoo18Ka0ADrm3eSA-103" value="" style="rounded=1;whiteSpace=wrap;html=1;" vertex="1" parent="1">
          <mxGeometry x="1172.5" y="2860" width="380" height="75" as="geometry" />
        </mxCell>
        <mxCell id="Fofwsoo18Ka0ADrm3eSA-104" value="Update an existing teacher profile." style="text;html=1;align=center;verticalAlign=middle;whiteSpace=wrap;rounded=0;" vertex="1" parent="1">
          <mxGeometry x="1182.5" y="2880" width="360" height="30" as="geometry" />
        </mxCell>
        <mxCell id="Fofwsoo18Ka0ADrm3eSA-105" value="&lt;font style=&quot;font-size: 28px;&quot;&gt;PUT&lt;/font&gt;" style="text;html=1;align=center;verticalAlign=middle;whiteSpace=wrap;rounded=0;" vertex="1" parent="1">
          <mxGeometry x="1027.34" y="2880" width="60" height="30" as="geometry" />
        </mxCell>
        <mxCell id="Fofwsoo18Ka0ADrm3eSA-106" value="&lt;font style=&quot;font-size: 28px;&quot;&gt;DELETE&lt;/font&gt;" style="text;html=1;align=center;verticalAlign=middle;whiteSpace=wrap;rounded=0;" vertex="1" parent="1">
          <mxGeometry x="1027.34" y="3070" width="60" height="30" as="geometry" />
        </mxCell>
        <mxCell id="Fofwsoo18Ka0ADrm3eSA-107" value="&lt;font style=&quot;font-size: 28px;&quot;&gt;/api/v1/teachers/{teacher_id}&lt;/font&gt;" style="text;html=1;align=center;verticalAlign=middle;whiteSpace=wrap;rounded=0;" vertex="1" parent="1">
          <mxGeometry x="1335" y="3000" width="60" height="30" as="geometry" />
        </mxCell>
        <mxCell id="Fofwsoo18Ka0ADrm3eSA-108" value="" style="rounded=1;whiteSpace=wrap;html=1;" vertex="1" parent="1">
          <mxGeometry x="1180" y="3050" width="380" height="75" as="geometry" />
        </mxCell>
        <mxCell id="Fofwsoo18Ka0ADrm3eSA-109" value="Delete a teacher profile." style="text;html=1;align=center;verticalAlign=middle;whiteSpace=wrap;rounded=0;" vertex="1" parent="1">
          <mxGeometry x="1190" y="3070" width="360" height="30" as="geometry" />
        </mxCell>
        <mxCell id="Fofwsoo18Ka0ADrm3eSA-129" value="" style="rounded=1;whiteSpace=wrap;html=1;" vertex="1" parent="1">
          <mxGeometry x="312.5" y="3575" width="470" height="270" as="geometry" />
        </mxCell>
        <mxCell id="Fofwsoo18Ka0ADrm3eSA-130" value="" style="rounded=1;whiteSpace=wrap;html=1;" vertex="1" parent="1">
          <mxGeometry x="112.5" y="3445" width="707.5" height="1485" as="geometry" />
        </mxCell>
        <mxCell id="Fofwsoo18Ka0ADrm3eSA-131" value="&lt;b&gt;&lt;font style=&quot;font-size: 33px;&quot;&gt;COURSE MANAGEMENT&lt;/font&gt;&lt;/b&gt;" style="text;html=1;align=center;verticalAlign=middle;whiteSpace=wrap;rounded=0;fontColor=#FF8000;" vertex="1" parent="1">
          <mxGeometry x="245" y="3465" width="440" height="30" as="geometry" />
        </mxCell>
        <mxCell id="Fofwsoo18Ka0ADrm3eSA-132" value="" style="rounded=1;whiteSpace=wrap;html=1;fillColor=#f8cecc;strokeColor=#b85450;" vertex="1" parent="1">
          <mxGeometry x="132.5" y="3575" width="170" height="1305" as="geometry" />
        </mxCell>
        <mxCell id="Fofwsoo18Ka0ADrm3eSA-133" style="edgeStyle=orthogonalEdgeStyle;rounded=0;orthogonalLoop=1;jettySize=auto;html=1;" edge="1" parent="1">
          <mxGeometry relative="1" as="geometry">
            <mxPoint x="542.5" y="3770" as="sourcePoint" />
            <mxPoint x="542.5" y="3790" as="targetPoint" />
          </mxGeometry>
        </mxCell>
        <mxCell id="Fofwsoo18Ka0ADrm3eSA-134" value="&lt;span style=&quot;font-size: 33px;&quot;&gt;&lt;b&gt;METHOD&lt;/b&gt;&lt;/span&gt;" style="text;html=1;align=center;verticalAlign=middle;whiteSpace=wrap;rounded=0;" vertex="1" parent="1">
          <mxGeometry x="57.5" y="3525" width="320" height="30" as="geometry" />
        </mxCell>
        <mxCell id="Fofwsoo18Ka0ADrm3eSA-135" value="&lt;span style=&quot;font-size: 33px;&quot;&gt;&lt;b&gt;URL&lt;/b&gt;&lt;/span&gt;" style="text;html=1;align=center;verticalAlign=middle;whiteSpace=wrap;rounded=0;" vertex="1" parent="1">
          <mxGeometry x="332.5" y="3520" width="320" height="30" as="geometry" />
        </mxCell>
        <mxCell id="Fofwsoo18Ka0ADrm3eSA-136" style="edgeStyle=orthogonalEdgeStyle;rounded=0;orthogonalLoop=1;jettySize=auto;html=1;" edge="1" parent="1">
          <mxGeometry relative="1" as="geometry">
            <mxPoint x="542.5" y="3770" as="sourcePoint" />
            <mxPoint x="542.5" y="3790" as="targetPoint" />
          </mxGeometry>
        </mxCell>
        <mxCell id="Fofwsoo18Ka0ADrm3eSA-137" value="" style="rounded=1;whiteSpace=wrap;html=1;fillColor=#dae8fc;strokeColor=#6c8ebf;" vertex="1" parent="1">
          <mxGeometry x="322.5" y="3575" width="477.5" height="1305" as="geometry" />
        </mxCell>
        <mxCell id="Fofwsoo18Ka0ADrm3eSA-138" value="&lt;font style=&quot;font-size: 28px;&quot;&gt;GET&lt;/font&gt;" style="text;html=1;align=center;verticalAlign=middle;whiteSpace=wrap;rounded=0;" vertex="1" parent="1">
          <mxGeometry x="182.5" y="3645" width="60" height="30" as="geometry" />
        </mxCell>
        <mxCell id="Fofwsoo18Ka0ADrm3eSA-139" value="&lt;font style=&quot;font-size: 28px;&quot;&gt;GET&lt;/font&gt;" style="text;html=1;align=center;verticalAlign=middle;whiteSpace=wrap;rounded=0;" vertex="1" parent="1">
          <mxGeometry x="191.25" y="4282.5" width="60" height="30" as="geometry" />
        </mxCell>
        <mxCell id="Fofwsoo18Ka0ADrm3eSA-140" value="&lt;font style=&quot;font-size: 28px;&quot;&gt;/api/v1/courses&lt;/font&gt;" style="text;html=1;align=center;verticalAlign=middle;whiteSpace=wrap;rounded=0;" vertex="1" parent="1">
          <mxGeometry x="462.5" y="3595" width="60" height="30" as="geometry" />
        </mxCell>
        <mxCell id="Fofwsoo18Ka0ADrm3eSA-141" value="&lt;font style=&quot;font-size: 28px;&quot;&gt;/api/v1/courses/{course_id}/teachers&lt;/font&gt;" style="text;html=1;align=center;verticalAlign=middle;whiteSpace=wrap;rounded=0;" vertex="1" parent="1">
          <mxGeometry x="540" y="4212.5" width="60" height="30" as="geometry" />
        </mxCell>
        <mxCell id="Fofwsoo18Ka0ADrm3eSA-142" value="" style="rounded=1;whiteSpace=wrap;html=1;" vertex="1" parent="1">
          <mxGeometry x="342.5" y="3625" width="380" height="100" as="geometry" />
        </mxCell>
        <mxCell id="Fofwsoo18Ka0ADrm3eSA-143" value="Retrieve a list of courses/subjects taught in the school. Filters can be applied like&lt;br&gt;&lt;b&gt;LIMIT: Limit the number of results returned.&lt;/b&gt;&lt;div&gt;&lt;b&gt;SORT_BY: Sort the results by a specific attribute (e.g. name, number_if_teachers etc.)&lt;br&gt;SEARCH: Search for teachers whose courses that start with or contains the provided query string&lt;/b&gt;&lt;/div&gt;" style="text;html=1;align=center;verticalAlign=middle;whiteSpace=wrap;rounded=0;" vertex="1" parent="1">
          <mxGeometry x="352.5" y="3660" width="360" height="30" as="geometry" />
        </mxCell>
        <mxCell id="Fofwsoo18Ka0ADrm3eSA-144" value="" style="rounded=1;whiteSpace=wrap;html=1;" vertex="1" parent="1">
          <mxGeometry x="361.25" y="4257.5" width="380" height="75" as="geometry" />
        </mxCell>
        <mxCell id="Fofwsoo18Ka0ADrm3eSA-145" value="Retrieve a profile of a specific teacher" style="text;html=1;align=center;verticalAlign=middle;whiteSpace=wrap;rounded=0;" vertex="1" parent="1">
          <mxGeometry x="361.25" y="4280" width="360" height="30" as="geometry" />
        </mxCell>
        <mxCell id="Fofwsoo18Ka0ADrm3eSA-146" value="&lt;font style=&quot;font-size: 28px;&quot;&gt;GET&lt;/font&gt;" style="text;html=1;align=center;verticalAlign=middle;whiteSpace=wrap;rounded=0;" vertex="1" parent="1">
          <mxGeometry x="191.25" y="4430" width="60" height="30" as="geometry" />
        </mxCell>
        <mxCell id="Fofwsoo18Ka0ADrm3eSA-147" value="&lt;font style=&quot;font-size: 28px;&quot;&gt;/api/v1/courses/{course_id}/class&lt;/font&gt;" style="text;html=1;align=center;verticalAlign=middle;whiteSpace=wrap;rounded=0;" vertex="1" parent="1">
          <mxGeometry x="531.25" y="4360" width="60" height="30" as="geometry" />
        </mxCell>
        <mxCell id="Fofwsoo18Ka0ADrm3eSA-148" value="" style="rounded=1;whiteSpace=wrap;html=1;" vertex="1" parent="1">
          <mxGeometry x="363.75" y="4400" width="380" height="75" as="geometry" />
        </mxCell>
        <mxCell id="Fofwsoo18Ka0ADrm3eSA-149" value="Retirieve a list of class that study the course" style="text;html=1;align=center;verticalAlign=middle;whiteSpace=wrap;rounded=0;" vertex="1" parent="1">
          <mxGeometry x="361.25" y="4422.5" width="360" height="30" as="geometry" />
        </mxCell>
        <mxCell id="Fofwsoo18Ka0ADrm3eSA-150" value="&lt;font style=&quot;font-size: 28px;&quot;&gt;/api/v1/courses/{course_id}/grades&lt;/font&gt;" style="text;html=1;align=center;verticalAlign=middle;whiteSpace=wrap;rounded=0;" vertex="1" parent="1">
          <mxGeometry x="532.5" y="4530" width="60" height="30" as="geometry" />
        </mxCell>
        <mxCell id="Fofwsoo18Ka0ADrm3eSA-151" value="" style="rounded=1;whiteSpace=wrap;html=1;" vertex="1" parent="1">
          <mxGeometry x="360" y="4572.5" width="380" height="75" as="geometry" />
        </mxCell>
        <mxCell id="Fofwsoo18Ka0ADrm3eSA-152" value="Retrieve gradebooks of the course" style="text;html=1;align=center;verticalAlign=middle;whiteSpace=wrap;rounded=0;" vertex="1" parent="1">
          <mxGeometry x="370" y="4592.5" width="360" height="30" as="geometry" />
        </mxCell>
        <mxCell id="Fofwsoo18Ka0ADrm3eSA-154" value="&lt;font style=&quot;font-size: 28px;&quot;&gt;DELETE&lt;/font&gt;" style="text;html=1;align=center;verticalAlign=middle;whiteSpace=wrap;rounded=0;" vertex="1" parent="1">
          <mxGeometry x="199.83999999999992" y="4785" width="60" height="30" as="geometry" />
        </mxCell>
        <mxCell id="Fofwsoo18Ka0ADrm3eSA-155" value="&lt;font style=&quot;font-size: 28px;&quot;&gt;/api/v1/courses/{course_id}&lt;/font&gt;" style="text;html=1;align=center;verticalAlign=middle;whiteSpace=wrap;rounded=0;" vertex="1" parent="1">
          <mxGeometry x="523.75" y="4720" width="60" height="30" as="geometry" />
        </mxCell>
        <mxCell id="Fofwsoo18Ka0ADrm3eSA-156" value="" style="rounded=1;whiteSpace=wrap;html=1;" vertex="1" parent="1">
          <mxGeometry x="363.75" y="4762.5" width="380" height="75" as="geometry" />
        </mxCell>
        <mxCell id="Fofwsoo18Ka0ADrm3eSA-157" value="Delete a course." style="text;html=1;align=center;verticalAlign=middle;whiteSpace=wrap;rounded=0;" vertex="1" parent="1">
          <mxGeometry x="373.75" y="4782.5" width="360" height="30" as="geometry" />
        </mxCell>
        <mxCell id="Fofwsoo18Ka0ADrm3eSA-164" value="&lt;font style=&quot;font-size: 28px;&quot;&gt;/api/v1/courses/{course_id}&lt;/font&gt;" style="text;html=1;align=center;verticalAlign=middle;whiteSpace=wrap;rounded=0;" vertex="1" parent="1">
          <mxGeometry x="505" y="3763" width="60" height="30" as="geometry" />
        </mxCell>
        <mxCell id="Fofwsoo18Ka0ADrm3eSA-165" value="" style="rounded=1;whiteSpace=wrap;html=1;" vertex="1" parent="1">
          <mxGeometry x="350" y="3813" width="380" height="75" as="geometry" />
        </mxCell>
        <mxCell id="Fofwsoo18Ka0ADrm3eSA-166" value="Retrieve details of a specific course" style="text;html=1;align=center;verticalAlign=middle;whiteSpace=wrap;rounded=0;" vertex="1" parent="1">
          <mxGeometry x="360" y="3833" width="360" height="30" as="geometry" />
        </mxCell>
        <mxCell id="Fofwsoo18Ka0ADrm3eSA-167" value="&lt;font style=&quot;font-size: 28px;&quot;&gt;GET&lt;/font&gt;" style="text;html=1;align=center;verticalAlign=middle;whiteSpace=wrap;rounded=0;" vertex="1" parent="1">
          <mxGeometry x="190" y="3835.5" width="60" height="30" as="geometry" />
        </mxCell>
        <mxCell id="Fofwsoo18Ka0ADrm3eSA-168" value="&lt;font style=&quot;font-size: 28px;&quot;&gt;/api/v1/courses&lt;/font&gt;" style="text;html=1;align=center;verticalAlign=middle;whiteSpace=wrap;rounded=0;" vertex="1" parent="1">
          <mxGeometry x="505" y="3920" width="60" height="30" as="geometry" />
        </mxCell>
        <mxCell id="Fofwsoo18Ka0ADrm3eSA-169" value="" style="rounded=1;whiteSpace=wrap;html=1;" vertex="1" parent="1">
          <mxGeometry x="350" y="3970" width="380" height="75" as="geometry" />
        </mxCell>
        <mxCell id="Fofwsoo18Ka0ADrm3eSA-170" value="Create a new course or subject" style="text;html=1;align=center;verticalAlign=middle;whiteSpace=wrap;rounded=0;" vertex="1" parent="1">
          <mxGeometry x="360" y="3990" width="360" height="30" as="geometry" />
        </mxCell>
        <mxCell id="Fofwsoo18Ka0ADrm3eSA-171" value="&lt;font style=&quot;font-size: 28px;&quot;&gt;POST&lt;/font&gt;" style="text;html=1;align=center;verticalAlign=middle;whiteSpace=wrap;rounded=0;" vertex="1" parent="1">
          <mxGeometry x="190" y="3992.5" width="60" height="30" as="geometry" />
        </mxCell>
        <mxCell id="Fofwsoo18Ka0ADrm3eSA-172" value="&lt;font style=&quot;font-size: 28px;&quot;&gt;/api/v1/courses/{course_id}&lt;/font&gt;" style="text;html=1;align=center;verticalAlign=middle;whiteSpace=wrap;rounded=0;" vertex="1" parent="1">
          <mxGeometry x="520" y="4060" width="60" height="30" as="geometry" />
        </mxCell>
        <mxCell id="Fofwsoo18Ka0ADrm3eSA-173" value="" style="rounded=1;whiteSpace=wrap;html=1;" vertex="1" parent="1">
          <mxGeometry x="355" y="4105" width="380" height="75" as="geometry" />
        </mxCell>
        <mxCell id="Fofwsoo18Ka0ADrm3eSA-174" value="Update an existing course" style="text;html=1;align=center;verticalAlign=middle;whiteSpace=wrap;rounded=0;" vertex="1" parent="1">
          <mxGeometry x="365" y="4125" width="360" height="30" as="geometry" />
        </mxCell>
        <mxCell id="Fofwsoo18Ka0ADrm3eSA-175" value="&lt;font style=&quot;font-size: 28px;&quot;&gt;PUT&lt;/font&gt;" style="text;html=1;align=center;verticalAlign=middle;whiteSpace=wrap;rounded=0;" vertex="1" parent="1">
          <mxGeometry x="195" y="4127.5" width="60" height="30" as="geometry" />
        </mxCell>
        <mxCell id="Fofwsoo18Ka0ADrm3eSA-176" style="edgeStyle=orthogonalEdgeStyle;rounded=0;orthogonalLoop=1;jettySize=auto;html=1;exitX=0.5;exitY=1;exitDx=0;exitDy=0;" edge="1" parent="1" source="Fofwsoo18Ka0ADrm3eSA-174" target="Fofwsoo18Ka0ADrm3eSA-174">
          <mxGeometry relative="1" as="geometry" />
        </mxCell>
        <mxCell id="Fofwsoo18Ka0ADrm3eSA-177" value="&lt;font style=&quot;font-size: 28px;&quot;&gt;GET&lt;/font&gt;" style="text;html=1;align=center;verticalAlign=middle;whiteSpace=wrap;rounded=0;" vertex="1" parent="1">
          <mxGeometry x="191.25" y="4592.5" width="60" height="30" as="geometry" />
        </mxCell>
        <mxCell id="Fofwsoo18Ka0ADrm3eSA-178" value="" style="rounded=1;whiteSpace=wrap;html=1;" vertex="1" parent="1">
          <mxGeometry x="1187.5" y="3580" width="470" height="270" as="geometry" />
        </mxCell>
        <mxCell id="Fofwsoo18Ka0ADrm3eSA-179" value="" style="rounded=1;whiteSpace=wrap;html=1;" vertex="1" parent="1">
          <mxGeometry x="987.5" y="3450" width="732.5" height="1960" as="geometry" />
        </mxCell>
        <mxCell id="Fofwsoo18Ka0ADrm3eSA-180" value="&lt;b&gt;&lt;font style=&quot;font-size: 33px;&quot;&gt;CLASS MANAGEMENT&lt;/font&gt;&lt;/b&gt;" style="text;html=1;align=center;verticalAlign=middle;whiteSpace=wrap;rounded=0;fontColor=#FF8000;" vertex="1" parent="1">
          <mxGeometry x="1120" y="3470" width="490" height="30" as="geometry" />
        </mxCell>
        <mxCell id="Fofwsoo18Ka0ADrm3eSA-181" value="" style="rounded=1;whiteSpace=wrap;html=1;fillColor=#f8cecc;strokeColor=#b85450;" vertex="1" parent="1">
          <mxGeometry x="1007.5" y="3580" width="170" height="1770" as="geometry" />
        </mxCell>
        <mxCell id="Fofwsoo18Ka0ADrm3eSA-182" style="edgeStyle=orthogonalEdgeStyle;rounded=0;orthogonalLoop=1;jettySize=auto;html=1;" edge="1" parent="1">
          <mxGeometry relative="1" as="geometry">
            <mxPoint x="1417.5" y="3775" as="sourcePoint" />
            <mxPoint x="1417.5" y="3795" as="targetPoint" />
          </mxGeometry>
        </mxCell>
        <mxCell id="Fofwsoo18Ka0ADrm3eSA-183" value="&lt;span style=&quot;font-size: 33px;&quot;&gt;&lt;b&gt;METHOD&lt;/b&gt;&lt;/span&gt;" style="text;html=1;align=center;verticalAlign=middle;whiteSpace=wrap;rounded=0;" vertex="1" parent="1">
          <mxGeometry x="932.5" y="3530" width="320" height="30" as="geometry" />
        </mxCell>
        <mxCell id="Fofwsoo18Ka0ADrm3eSA-184" value="&lt;span style=&quot;font-size: 33px;&quot;&gt;&lt;b&gt;URL&lt;/b&gt;&lt;/span&gt;" style="text;html=1;align=center;verticalAlign=middle;whiteSpace=wrap;rounded=0;" vertex="1" parent="1">
          <mxGeometry x="1207.5" y="3525" width="320" height="30" as="geometry" />
        </mxCell>
        <mxCell id="Fofwsoo18Ka0ADrm3eSA-185" style="edgeStyle=orthogonalEdgeStyle;rounded=0;orthogonalLoop=1;jettySize=auto;html=1;" edge="1" parent="1">
          <mxGeometry relative="1" as="geometry">
            <mxPoint x="1417.5" y="3775" as="sourcePoint" />
            <mxPoint x="1417.5" y="3795" as="targetPoint" />
          </mxGeometry>
        </mxCell>
        <mxCell id="Fofwsoo18Ka0ADrm3eSA-186" value="" style="rounded=1;whiteSpace=wrap;html=1;fillColor=#dae8fc;strokeColor=#6c8ebf;" vertex="1" parent="1">
          <mxGeometry x="1183.75" y="3575" width="472.5" height="1775" as="geometry" />
        </mxCell>
        <mxCell id="Fofwsoo18Ka0ADrm3eSA-187" value="&lt;font style=&quot;font-size: 28px;&quot;&gt;GET&lt;/font&gt;" style="text;html=1;align=center;verticalAlign=middle;whiteSpace=wrap;rounded=0;" vertex="1" parent="1">
          <mxGeometry x="1057.5" y="3650" width="60" height="30" as="geometry" />
        </mxCell>
        <mxCell id="Fofwsoo18Ka0ADrm3eSA-188" value="&lt;font style=&quot;font-size: 28px;&quot;&gt;GET&lt;/font&gt;" style="text;html=1;align=center;verticalAlign=middle;whiteSpace=wrap;rounded=0;" vertex="1" parent="1">
          <mxGeometry x="1057.5" y="3852.5" width="60" height="30" as="geometry" />
        </mxCell>
        <mxCell id="Fofwsoo18Ka0ADrm3eSA-189" value="&lt;font style=&quot;font-size: 28px;&quot;&gt;/api/v1/classes&lt;/font&gt;" style="text;html=1;align=center;verticalAlign=middle;whiteSpace=wrap;rounded=0;" vertex="1" parent="1">
          <mxGeometry x="1370" y="3595" width="60" height="30" as="geometry" />
        </mxCell>
        <mxCell id="Fofwsoo18Ka0ADrm3eSA-190" value="&lt;font style=&quot;font-size: 28px;&quot;&gt;/api/v1/classes/{class_id}/teachers&lt;/font&gt;" style="text;html=1;align=center;verticalAlign=middle;whiteSpace=wrap;rounded=0;" vertex="1" parent="1">
          <mxGeometry x="1382.5" y="3780" width="60" height="30" as="geometry" />
        </mxCell>
        <mxCell id="Fofwsoo18Ka0ADrm3eSA-191" value="" style="rounded=1;whiteSpace=wrap;html=1;" vertex="1" parent="1">
          <mxGeometry x="1217.5" y="3630" width="380" height="100" as="geometry" />
        </mxCell>
        <mxCell id="Fofwsoo18Ka0ADrm3eSA-192" value="Retrieve a list of classes. Filters can be applied like&lt;br&gt;&lt;b&gt;LIMIT: Limit the number of results return.&lt;/b&gt;&lt;div&gt;&lt;b&gt;SORT_BY: Sort the results by a specific attribute (e.g. number_of_class_teachers, etc.)&lt;br&gt;SEARCH: Search for class whose names start with or contains the provided query string&lt;/b&gt;&lt;/div&gt;" style="text;html=1;align=center;verticalAlign=middle;whiteSpace=wrap;rounded=0;" vertex="1" parent="1">
          <mxGeometry x="1227.5" y="3665" width="360" height="30" as="geometry" />
        </mxCell>
        <mxCell id="Fofwsoo18Ka0ADrm3eSA-193" value="" style="rounded=1;whiteSpace=wrap;html=1;" vertex="1" parent="1">
          <mxGeometry x="1217.5" y="3830" width="380" height="75" as="geometry" />
        </mxCell>
        <mxCell id="Fofwsoo18Ka0ADrm3eSA-194" value="Retrieve a list of teachers that teach that class or are the class teachers" style="text;html=1;align=center;verticalAlign=middle;whiteSpace=wrap;rounded=0;" vertex="1" parent="1">
          <mxGeometry x="1227.5" y="3850" width="360" height="30" as="geometry" />
        </mxCell>
        <mxCell id="Fofwsoo18Ka0ADrm3eSA-195" value="&lt;font style=&quot;font-size: 28px;&quot;&gt;GET&lt;/font&gt;" style="text;html=1;align=center;verticalAlign=middle;whiteSpace=wrap;rounded=0;" vertex="1" parent="1">
          <mxGeometry x="1057.5" y="4040" width="60" height="30" as="geometry" />
        </mxCell>
        <mxCell id="Fofwsoo18Ka0ADrm3eSA-196" value="&lt;font style=&quot;font-size: 23px;&quot;&gt;/api/v1/classes/{class_id}/attendance&lt;/font&gt;" style="text;html=1;align=center;verticalAlign=middle;whiteSpace=wrap;rounded=0;" vertex="1" parent="1">
          <mxGeometry x="1387.5" y="3950" width="60" height="30" as="geometry" />
        </mxCell>
        <mxCell id="Fofwsoo18Ka0ADrm3eSA-197" value="" style="rounded=1;whiteSpace=wrap;html=1;" vertex="1" parent="1">
          <mxGeometry x="1227.5" y="4010" width="380" height="75" as="geometry" />
        </mxCell>
        <mxCell id="Fofwsoo18Ka0ADrm3eSA-198" value="Retrieve the attendance of a specific class" style="text;html=1;align=center;verticalAlign=middle;whiteSpace=wrap;rounded=0;" vertex="1" parent="1">
          <mxGeometry x="1227.5" y="4032.5" width="360" height="30" as="geometry" />
        </mxCell>
        <mxCell id="Fofwsoo18Ka0ADrm3eSA-199" value="&lt;font style=&quot;font-size: 18px;&quot;&gt;/api/v1/classes/{class_id}/students/{academic_year}&lt;/font&gt;" style="text;html=1;align=center;verticalAlign=middle;whiteSpace=wrap;rounded=0;" vertex="1" parent="1">
          <mxGeometry x="1395" y="4140" width="60" height="30" as="geometry" />
        </mxCell>
        <mxCell id="Fofwsoo18Ka0ADrm3eSA-200" value="" style="rounded=1;whiteSpace=wrap;html=1;" vertex="1" parent="1">
          <mxGeometry x="1217.5" y="4180" width="380" height="75" as="geometry" />
        </mxCell>
        <mxCell id="Fofwsoo18Ka0ADrm3eSA-201" value="Retrieve the list of students of a specific class in a specific academic year" style="text;html=1;align=center;verticalAlign=middle;whiteSpace=wrap;rounded=0;" vertex="1" parent="1">
          <mxGeometry x="1235" y="4202.5" width="360" height="30" as="geometry" />
        </mxCell>
        <mxCell id="Fofwsoo18Ka0ADrm3eSA-202" value="&lt;font style=&quot;font-size: 28px;&quot;&gt;GET&lt;/font&gt;" style="text;html=1;align=center;verticalAlign=middle;whiteSpace=wrap;rounded=0;" vertex="1" parent="1">
          <mxGeometry x="1064.84" y="4215" width="60" height="30" as="geometry" />
        </mxCell>
        <mxCell id="Fofwsoo18Ka0ADrm3eSA-203" value="&lt;font style=&quot;font-size: 28px;&quot;&gt;GET&lt;/font&gt;" style="text;html=1;align=center;verticalAlign=middle;whiteSpace=wrap;rounded=0;" vertex="1" parent="1">
          <mxGeometry x="1067.34" y="4392.5" width="60" height="30" as="geometry" />
        </mxCell>
        <mxCell id="Fofwsoo18Ka0ADrm3eSA-204" value="&lt;font style=&quot;font-size: 28px;&quot;&gt;/api/v1/classes/{class_id}/gradebook&lt;/font&gt;" style="text;html=1;align=center;verticalAlign=middle;whiteSpace=wrap;rounded=0;" vertex="1" parent="1">
          <mxGeometry x="1395" y="4302.5" width="60" height="30" as="geometry" />
        </mxCell>
        <mxCell id="Fofwsoo18Ka0ADrm3eSA-205" value="" style="rounded=1;whiteSpace=wrap;html=1;" vertex="1" parent="1">
          <mxGeometry x="1225" y="4360" width="380" height="75" as="geometry" />
        </mxCell>
        <mxCell id="Fofwsoo18Ka0ADrm3eSA-206" value="Retrieve the gradebook for a specific class" style="text;html=1;align=center;verticalAlign=middle;whiteSpace=wrap;rounded=0;" vertex="1" parent="1">
          <mxGeometry x="1235" y="4380" width="360" height="30" as="geometry" />
        </mxCell>
        <mxCell id="Fofwsoo18Ka0ADrm3eSA-207" value="Attendance&lt;br&gt;Tracking" style="shape=module;align=left;spacingLeft=20;align=center;verticalAlign=top;whiteSpace=wrap;html=1;labelBackgroundColor=none;fillColor=#FAE5C7;strokeColor=#0F8B8D;fontColor=#143642;" vertex="1" parent="1">
          <mxGeometry x="647.5" y="375" width="100" height="50" as="geometry" />
        </mxCell>
        <mxCell id="Fofwsoo18Ka0ADrm3eSA-209" value="" style="rounded=1;whiteSpace=wrap;html=1;" vertex="1" parent="1">
          <mxGeometry x="320" y="5180" width="470" height="270" as="geometry" />
        </mxCell>
        <mxCell id="Fofwsoo18Ka0ADrm3eSA-210" value="" style="rounded=1;whiteSpace=wrap;html=1;" vertex="1" parent="1">
          <mxGeometry x="120.00000000000003" y="5050" width="680" height="1230" as="geometry" />
        </mxCell>
        <mxCell id="Fofwsoo18Ka0ADrm3eSA-211" value="&lt;b&gt;&lt;font style=&quot;font-size: 33px;&quot;&gt;TEACHER MANAGEMENT&lt;/font&gt;&lt;/b&gt;" style="text;html=1;align=center;verticalAlign=middle;whiteSpace=wrap;rounded=0;fontColor=#FF8000;" vertex="1" parent="1">
          <mxGeometry x="252.5" y="5070" width="440" height="30" as="geometry" />
        </mxCell>
        <mxCell id="Fofwsoo18Ka0ADrm3eSA-212" value="" style="rounded=1;whiteSpace=wrap;html=1;fillColor=#f8cecc;strokeColor=#b85450;" vertex="1" parent="1">
          <mxGeometry x="140.00000000000003" y="5180" width="170" height="1050" as="geometry" />
        </mxCell>
        <mxCell id="Fofwsoo18Ka0ADrm3eSA-213" style="edgeStyle=orthogonalEdgeStyle;rounded=0;orthogonalLoop=1;jettySize=auto;html=1;" edge="1" parent="1">
          <mxGeometry relative="1" as="geometry">
            <mxPoint x="550" y="5375" as="sourcePoint" />
            <mxPoint x="550" y="5395" as="targetPoint" />
          </mxGeometry>
        </mxCell>
        <mxCell id="Fofwsoo18Ka0ADrm3eSA-214" value="&lt;span style=&quot;font-size: 33px;&quot;&gt;&lt;b&gt;METHOD&lt;/b&gt;&lt;/span&gt;" style="text;html=1;align=center;verticalAlign=middle;whiteSpace=wrap;rounded=0;" vertex="1" parent="1">
          <mxGeometry x="65.00000000000003" y="5130" width="320" height="30" as="geometry" />
        </mxCell>
        <mxCell id="Fofwsoo18Ka0ADrm3eSA-215" value="&lt;span style=&quot;font-size: 33px;&quot;&gt;&lt;b&gt;URL&lt;/b&gt;&lt;/span&gt;" style="text;html=1;align=center;verticalAlign=middle;whiteSpace=wrap;rounded=0;" vertex="1" parent="1">
          <mxGeometry x="340" y="5125" width="320" height="30" as="geometry" />
        </mxCell>
        <mxCell id="Fofwsoo18Ka0ADrm3eSA-216" style="edgeStyle=orthogonalEdgeStyle;rounded=0;orthogonalLoop=1;jettySize=auto;html=1;" edge="1" parent="1">
          <mxGeometry relative="1" as="geometry">
            <mxPoint x="550" y="5375" as="sourcePoint" />
            <mxPoint x="550" y="5395" as="targetPoint" />
          </mxGeometry>
        </mxCell>
        <mxCell id="Fofwsoo18Ka0ADrm3eSA-217" value="" style="rounded=1;whiteSpace=wrap;html=1;fillColor=#dae8fc;strokeColor=#6c8ebf;" vertex="1" parent="1">
          <mxGeometry x="330" y="5180" width="430" height="1050" as="geometry" />
        </mxCell>
        <mxCell id="Fofwsoo18Ka0ADrm3eSA-218" value="&lt;font style=&quot;font-size: 28px;&quot;&gt;GET&lt;/font&gt;" style="text;html=1;align=center;verticalAlign=middle;whiteSpace=wrap;rounded=0;" vertex="1" parent="1">
          <mxGeometry x="190.00000000000003" y="5250" width="60" height="30" as="geometry" />
        </mxCell>
        <mxCell id="Fofwsoo18Ka0ADrm3eSA-219" value="&lt;font style=&quot;font-size: 28px;&quot;&gt;GET&lt;/font&gt;" style="text;html=1;align=center;verticalAlign=middle;whiteSpace=wrap;rounded=0;" vertex="1" parent="1">
          <mxGeometry x="190.00000000000003" y="5452.5" width="60" height="30" as="geometry" />
        </mxCell>
        <mxCell id="Fofwsoo18Ka0ADrm3eSA-220" value="&lt;font style=&quot;font-size: 28px;&quot;&gt;/api/v1/teachers&lt;/font&gt;" style="text;html=1;align=center;verticalAlign=middle;whiteSpace=wrap;rounded=0;" vertex="1" parent="1">
          <mxGeometry x="469.99999999999994" y="5200" width="60" height="30" as="geometry" />
        </mxCell>
        <mxCell id="Fofwsoo18Ka0ADrm3eSA-221" value="&lt;font style=&quot;font-size: 28px;&quot;&gt;/api/v1/teachers/{teacher_id}&lt;/font&gt;" style="text;html=1;align=center;verticalAlign=middle;whiteSpace=wrap;rounded=0;" vertex="1" parent="1">
          <mxGeometry x="515" y="5380" width="60" height="30" as="geometry" />
        </mxCell>
        <mxCell id="Fofwsoo18Ka0ADrm3eSA-222" value="" style="rounded=1;whiteSpace=wrap;html=1;" vertex="1" parent="1">
          <mxGeometry x="350" y="5230" width="380" height="100" as="geometry" />
        </mxCell>
        <mxCell id="Fofwsoo18Ka0ADrm3eSA-223" value="Retrieve a list of teachers. Filters can be applied like&lt;br&gt;&lt;b&gt;LIMIT: Limit the number of results return.&lt;/b&gt;&lt;div&gt;&lt;b&gt;SORT_BY: Sort the results by a specific attribute (e.g. name, date_of_birth, etc.)&lt;br&gt;SEARCH: Search for teachers whose names start with or contains the provided query string&lt;/b&gt;&lt;/div&gt;" style="text;html=1;align=center;verticalAlign=middle;whiteSpace=wrap;rounded=0;" vertex="1" parent="1">
          <mxGeometry x="360" y="5265" width="360" height="30" as="geometry" />
        </mxCell>
        <mxCell id="Fofwsoo18Ka0ADrm3eSA-224" value="" style="rounded=1;whiteSpace=wrap;html=1;" vertex="1" parent="1">
          <mxGeometry x="350" y="5430" width="380" height="75" as="geometry" />
        </mxCell>
        <mxCell id="Fofwsoo18Ka0ADrm3eSA-225" value="Retrieve a profile of a specific teacher" style="text;html=1;align=center;verticalAlign=middle;whiteSpace=wrap;rounded=0;" vertex="1" parent="1">
          <mxGeometry x="360" y="5450" width="360" height="30" as="geometry" />
        </mxCell>
        <mxCell id="Fofwsoo18Ka0ADrm3eSA-226" value="&lt;font style=&quot;font-size: 28px;&quot;&gt;POST&lt;/font&gt;" style="text;html=1;align=center;verticalAlign=middle;whiteSpace=wrap;rounded=0;" vertex="1" parent="1">
          <mxGeometry x="187.50000000000003" y="5660" width="60" height="30" as="geometry" />
        </mxCell>
        <mxCell id="Fofwsoo18Ka0ADrm3eSA-227" value="&lt;font style=&quot;font-size: 28px;&quot;&gt;/api/v1/teacher&lt;/font&gt;" style="text;html=1;align=center;verticalAlign=middle;whiteSpace=wrap;rounded=0;" vertex="1" parent="1">
          <mxGeometry x="497.5" y="5590" width="60" height="30" as="geometry" />
        </mxCell>
        <mxCell id="Fofwsoo18Ka0ADrm3eSA-228" value="" style="rounded=1;whiteSpace=wrap;html=1;" vertex="1" parent="1">
          <mxGeometry x="347.5" y="5640" width="380" height="75" as="geometry" />
        </mxCell>
        <mxCell id="Fofwsoo18Ka0ADrm3eSA-229" value="Create a new teacher profile." style="text;html=1;align=center;verticalAlign=middle;whiteSpace=wrap;rounded=0;" vertex="1" parent="1">
          <mxGeometry x="347.5" y="5662.5" width="360" height="30" as="geometry" />
        </mxCell>
        <mxCell id="Fofwsoo18Ka0ADrm3eSA-230" value="&lt;font style=&quot;font-size: 28px;&quot;&gt;/api/v1/teachers/{teacher_id}&lt;/font&gt;" style="text;html=1;align=center;verticalAlign=middle;whiteSpace=wrap;rounded=0;" vertex="1" parent="1">
          <mxGeometry x="500" y="5820" width="60" height="30" as="geometry" />
        </mxCell>
        <mxCell id="Fofwsoo18Ka0ADrm3eSA-231" value="" style="rounded=1;whiteSpace=wrap;html=1;" vertex="1" parent="1">
          <mxGeometry x="345" y="5870" width="380" height="75" as="geometry" />
        </mxCell>
        <mxCell id="Fofwsoo18Ka0ADrm3eSA-232" value="Update an existing teacher profile." style="text;html=1;align=center;verticalAlign=middle;whiteSpace=wrap;rounded=0;" vertex="1" parent="1">
          <mxGeometry x="355" y="5890" width="360" height="30" as="geometry" />
        </mxCell>
        <mxCell id="Fofwsoo18Ka0ADrm3eSA-233" value="&lt;font style=&quot;font-size: 28px;&quot;&gt;PUT&lt;/font&gt;" style="text;html=1;align=center;verticalAlign=middle;whiteSpace=wrap;rounded=0;" vertex="1" parent="1">
          <mxGeometry x="199.83999999999995" y="5890" width="60" height="30" as="geometry" />
        </mxCell>
        <mxCell id="Fofwsoo18Ka0ADrm3eSA-234" value="&lt;font style=&quot;font-size: 28px;&quot;&gt;DELETE&lt;/font&gt;" style="text;html=1;align=center;verticalAlign=middle;whiteSpace=wrap;rounded=0;" vertex="1" parent="1">
          <mxGeometry x="199.83999999999995" y="6080" width="60" height="30" as="geometry" />
        </mxCell>
        <mxCell id="Fofwsoo18Ka0ADrm3eSA-235" value="&lt;font style=&quot;font-size: 28px;&quot;&gt;/api/v1/teachers/{teacher_id}&lt;/font&gt;" style="text;html=1;align=center;verticalAlign=middle;whiteSpace=wrap;rounded=0;" vertex="1" parent="1">
          <mxGeometry x="507.5" y="6010" width="60" height="30" as="geometry" />
        </mxCell>
        <mxCell id="Fofwsoo18Ka0ADrm3eSA-236" value="" style="rounded=1;whiteSpace=wrap;html=1;" vertex="1" parent="1">
          <mxGeometry x="352.5" y="6060" width="380" height="75" as="geometry" />
        </mxCell>
        <mxCell id="Fofwsoo18Ka0ADrm3eSA-237" value="Delete a teacher profile." style="text;html=1;align=center;verticalAlign=middle;whiteSpace=wrap;rounded=0;" vertex="1" parent="1">
          <mxGeometry x="362.5" y="6080" width="360" height="30" as="geometry" />
        </mxCell>
        <mxCell id="Fofwsoo18Ka0ADrm3eSA-240" value="&lt;font style=&quot;font-size: 28px;&quot;&gt;POST&lt;/font&gt;" style="text;html=1;align=center;verticalAlign=middle;whiteSpace=wrap;rounded=0;" vertex="1" parent="1">
          <mxGeometry x="1062.5" y="4520" width="60" height="30" as="geometry" />
        </mxCell>
        <mxCell id="Fofwsoo18Ka0ADrm3eSA-241" value="&lt;font style=&quot;font-size: 28px;&quot;&gt;/api/v1/classes&lt;/font&gt;" style="text;html=1;align=center;verticalAlign=middle;whiteSpace=wrap;rounded=0;" vertex="1" parent="1">
          <mxGeometry x="1382.5" y="4470" width="60" height="30" as="geometry" />
        </mxCell>
        <mxCell id="Fofwsoo18Ka0ADrm3eSA-242" value="" style="rounded=1;whiteSpace=wrap;html=1;" vertex="1" parent="1">
          <mxGeometry x="1225" y="4517.5" width="380" height="75" as="geometry" />
        </mxCell>
        <mxCell id="Fofwsoo18Ka0ADrm3eSA-243" value="Create a new class" style="text;html=1;align=center;verticalAlign=middle;whiteSpace=wrap;rounded=0;" vertex="1" parent="1">
          <mxGeometry x="1225" y="4540" width="360" height="30" as="geometry" />
        </mxCell>
        <mxCell id="Fofwsoo18Ka0ADrm3eSA-244" value="&lt;font style=&quot;font-size: 28px;&quot;&gt;/api/v1/classes/{class_id}&lt;/font&gt;" style="text;html=1;align=center;verticalAlign=middle;whiteSpace=wrap;rounded=0;" vertex="1" parent="1">
          <mxGeometry x="1377.5" y="4647.5" width="60" height="30" as="geometry" />
        </mxCell>
        <mxCell id="Fofwsoo18Ka0ADrm3eSA-245" value="" style="rounded=1;whiteSpace=wrap;html=1;" vertex="1" parent="1">
          <mxGeometry x="1222.5" y="4697.5" width="380" height="75" as="geometry" />
        </mxCell>
        <mxCell id="Fofwsoo18Ka0ADrm3eSA-246" value="Update an existing class profile" style="text;html=1;align=center;verticalAlign=middle;whiteSpace=wrap;rounded=0;" vertex="1" parent="1">
          <mxGeometry x="1232.5" y="4717.5" width="360" height="30" as="geometry" />
        </mxCell>
        <mxCell id="Fofwsoo18Ka0ADrm3eSA-247" value="&lt;font style=&quot;font-size: 28px;&quot;&gt;PUT&lt;/font&gt;" style="text;html=1;align=center;verticalAlign=middle;whiteSpace=wrap;rounded=0;" vertex="1" parent="1">
          <mxGeometry x="1062.5" y="4720" width="60" height="30" as="geometry" />
        </mxCell>
        <mxCell id="Fofwsoo18Ka0ADrm3eSA-248" value="&lt;font style=&quot;font-size: 28px;&quot;&gt;DELETE&lt;/font&gt;" style="text;html=1;align=center;verticalAlign=middle;whiteSpace=wrap;rounded=0;" vertex="1" parent="1">
          <mxGeometry x="1074.84" y="4920" width="60" height="30" as="geometry" />
        </mxCell>
        <mxCell id="Fofwsoo18Ka0ADrm3eSA-249" value="&lt;font style=&quot;font-size: 28px;&quot;&gt;/api/v1/classes/{class_id}&lt;/font&gt;" style="text;html=1;align=center;verticalAlign=middle;whiteSpace=wrap;rounded=0;" vertex="1" parent="1">
          <mxGeometry x="1387.5" y="4837.5" width="60" height="30" as="geometry" />
        </mxCell>
        <mxCell id="Fofwsoo18Ka0ADrm3eSA-250" value="" style="rounded=1;whiteSpace=wrap;html=1;" vertex="1" parent="1">
          <mxGeometry x="1230" y="4890" width="380" height="75" as="geometry" />
        </mxCell>
        <mxCell id="Fofwsoo18Ka0ADrm3eSA-251" value="Delete a student profile." style="text;html=1;align=center;verticalAlign=middle;whiteSpace=wrap;rounded=0;" vertex="1" parent="1">
          <mxGeometry x="1240" y="4910" width="360" height="30" as="geometry" />
        </mxCell>
        <mxCell id="Fofwsoo18Ka0ADrm3eSA-253" value="" style="rounded=1;whiteSpace=wrap;html=1;" vertex="1" parent="1">
          <mxGeometry x="1235" y="5635" width="470" height="270" as="geometry" />
        </mxCell>
        <mxCell id="Fofwsoo18Ka0ADrm3eSA-254" value="" style="rounded=1;whiteSpace=wrap;html=1;" vertex="1" parent="1">
          <mxGeometry x="1035" y="5505" width="680" height="1230" as="geometry" />
        </mxCell>
        <mxCell id="Fofwsoo18Ka0ADrm3eSA-255" value="&lt;b&gt;&lt;font style=&quot;font-size: 33px;&quot;&gt;GRADEBOOK MANAGEMENT&lt;/font&gt;&lt;/b&gt;" style="text;html=1;align=center;verticalAlign=middle;whiteSpace=wrap;rounded=0;fontColor=#FF8000;" vertex="1" parent="1">
          <mxGeometry x="1140" y="5525" width="490" height="30" as="geometry" />
        </mxCell>
        <mxCell id="Fofwsoo18Ka0ADrm3eSA-256" value="" style="rounded=1;whiteSpace=wrap;html=1;fillColor=#f8cecc;strokeColor=#b85450;" vertex="1" parent="1">
          <mxGeometry x="1055" y="5635" width="170" height="1050" as="geometry" />
        </mxCell>
        <mxCell id="Fofwsoo18Ka0ADrm3eSA-257" style="edgeStyle=orthogonalEdgeStyle;rounded=0;orthogonalLoop=1;jettySize=auto;html=1;" edge="1" parent="1">
          <mxGeometry relative="1" as="geometry">
            <mxPoint x="1465" y="5830" as="sourcePoint" />
            <mxPoint x="1465" y="5850" as="targetPoint" />
          </mxGeometry>
        </mxCell>
        <mxCell id="Fofwsoo18Ka0ADrm3eSA-258" value="&lt;span style=&quot;font-size: 33px;&quot;&gt;&lt;b&gt;METHOD&lt;/b&gt;&lt;/span&gt;" style="text;html=1;align=center;verticalAlign=middle;whiteSpace=wrap;rounded=0;" vertex="1" parent="1">
          <mxGeometry x="980" y="5585" width="320" height="30" as="geometry" />
        </mxCell>
        <mxCell id="Fofwsoo18Ka0ADrm3eSA-259" value="&lt;span style=&quot;font-size: 33px;&quot;&gt;&lt;b&gt;URL&lt;/b&gt;&lt;/span&gt;" style="text;html=1;align=center;verticalAlign=middle;whiteSpace=wrap;rounded=0;" vertex="1" parent="1">
          <mxGeometry x="1255" y="5580" width="320" height="30" as="geometry" />
        </mxCell>
        <mxCell id="Fofwsoo18Ka0ADrm3eSA-260" style="edgeStyle=orthogonalEdgeStyle;rounded=0;orthogonalLoop=1;jettySize=auto;html=1;" edge="1" parent="1">
          <mxGeometry relative="1" as="geometry">
            <mxPoint x="1465" y="5830" as="sourcePoint" />
            <mxPoint x="1465" y="5850" as="targetPoint" />
          </mxGeometry>
        </mxCell>
        <mxCell id="Fofwsoo18Ka0ADrm3eSA-261" value="" style="rounded=1;whiteSpace=wrap;html=1;fillColor=#dae8fc;strokeColor=#6c8ebf;" vertex="1" parent="1">
          <mxGeometry x="1245" y="5635" width="430" height="1050" as="geometry" />
        </mxCell>
        <mxCell id="Fofwsoo18Ka0ADrm3eSA-262" value="&lt;font style=&quot;font-size: 28px;&quot;&gt;GET&lt;/font&gt;" style="text;html=1;align=center;verticalAlign=middle;whiteSpace=wrap;rounded=0;" vertex="1" parent="1">
          <mxGeometry x="1105" y="5720" width="60" height="30" as="geometry" />
        </mxCell>
        <mxCell id="Fofwsoo18Ka0ADrm3eSA-263" value="&lt;font style=&quot;font-size: 28px;&quot;&gt;GET&lt;/font&gt;" style="text;html=1;align=center;verticalAlign=middle;whiteSpace=wrap;rounded=0;" vertex="1" parent="1">
          <mxGeometry x="1105" y="5907.5" width="60" height="30" as="geometry" />
        </mxCell>
        <mxCell id="Fofwsoo18Ka0ADrm3eSA-264" value="&lt;font style=&quot;font-size: 22px;&quot;&gt;/api/v1/grades/{class_id}/{student_id}&lt;/font&gt;" style="text;html=1;align=center;verticalAlign=middle;whiteSpace=wrap;rounded=0;" vertex="1" parent="1">
          <mxGeometry x="1427.5" y="5650" width="60" height="30" as="geometry" />
        </mxCell>
        <mxCell id="Fofwsoo18Ka0ADrm3eSA-265" value="&lt;font style=&quot;font-size: 19px;&quot;&gt;/api/v1/grades/{class_id}/{student_id}/{course_id}&lt;/font&gt;" style="text;html=1;align=center;verticalAlign=middle;whiteSpace=wrap;rounded=0;" vertex="1" parent="1">
          <mxGeometry x="1430" y="5835" width="60" height="30" as="geometry" />
        </mxCell>
        <mxCell id="Fofwsoo18Ka0ADrm3eSA-266" value="" style="rounded=1;whiteSpace=wrap;html=1;" vertex="1" parent="1">
          <mxGeometry x="1265" y="5685" width="380" height="100" as="geometry" />
        </mxCell>
        <mxCell id="Fofwsoo18Ka0ADrm3eSA-267" value="Retrieve the grades in all courses of a specific student in a specific class" style="text;html=1;align=center;verticalAlign=middle;whiteSpace=wrap;rounded=0;" vertex="1" parent="1">
          <mxGeometry x="1275" y="5720" width="360" height="30" as="geometry" />
        </mxCell>
        <mxCell id="Fofwsoo18Ka0ADrm3eSA-268" value="" style="rounded=1;whiteSpace=wrap;html=1;" vertex="1" parent="1">
          <mxGeometry x="1265" y="5885" width="380" height="75" as="geometry" />
        </mxCell>
        <mxCell id="Fofwsoo18Ka0ADrm3eSA-269" value="Retrieve the grades of a student specifying the student&#39;s class and course id" style="text;html=1;align=center;verticalAlign=middle;whiteSpace=wrap;rounded=0;" vertex="1" parent="1">
          <mxGeometry x="1275" y="5905" width="360" height="30" as="geometry" />
        </mxCell>
        <mxCell id="Fofwsoo18Ka0ADrm3eSA-270" value="&lt;font style=&quot;font-size: 28px;&quot;&gt;GET&lt;/font&gt;" style="text;html=1;align=center;verticalAlign=middle;whiteSpace=wrap;rounded=0;" vertex="1" parent="1">
          <mxGeometry x="1105" y="6057.5" width="60" height="30" as="geometry" />
        </mxCell>
        <mxCell id="Fofwsoo18Ka0ADrm3eSA-271" value="&lt;font style=&quot;font-size: 23px;&quot;&gt;/api/v1/grades/{class_id}/{academic_year}&lt;/font&gt;" style="text;html=1;align=center;verticalAlign=middle;whiteSpace=wrap;rounded=0;" vertex="1" parent="1">
          <mxGeometry x="1427.5" y="5990" width="60" height="30" as="geometry" />
        </mxCell>
        <mxCell id="Fofwsoo18Ka0ADrm3eSA-272" value="" style="rounded=1;whiteSpace=wrap;html=1;" vertex="1" parent="1">
          <mxGeometry x="1265" y="6035" width="380" height="75" as="geometry" />
        </mxCell>
        <mxCell id="Fofwsoo18Ka0ADrm3eSA-273" value="Retrieves the grades of a class in a specific academic year" style="text;html=1;align=center;verticalAlign=middle;whiteSpace=wrap;rounded=0;" vertex="1" parent="1">
          <mxGeometry x="1262.5" y="6057.5" width="360" height="30" as="geometry" />
        </mxCell>
        <mxCell id="Fofwsoo18Ka0ADrm3eSA-274" value="&lt;font style=&quot;font-size: 28px;&quot;&gt;/api/v1/grades/{class_id}&lt;/font&gt;" style="text;html=1;align=center;verticalAlign=middle;whiteSpace=wrap;rounded=0;" vertex="1" parent="1">
          <mxGeometry x="1420" y="6160" width="60" height="30" as="geometry" />
        </mxCell>
        <mxCell id="Fofwsoo18Ka0ADrm3eSA-275" value="" style="rounded=1;whiteSpace=wrap;html=1;" vertex="1" parent="1">
          <mxGeometry x="1267.5" y="6205" width="380" height="75" as="geometry" />
        </mxCell>
        <mxCell id="Fofwsoo18Ka0ADrm3eSA-276" value="Retrieve the grades of a specific class" style="text;html=1;align=center;verticalAlign=middle;whiteSpace=wrap;rounded=0;" vertex="1" parent="1">
          <mxGeometry x="1277.5" y="6230" width="360" height="30" as="geometry" />
        </mxCell>
        <mxCell id="Fofwsoo18Ka0ADrm3eSA-277" value="&lt;font style=&quot;font-size: 28px;&quot;&gt;GET&lt;/font&gt;" style="text;html=1;align=center;verticalAlign=middle;whiteSpace=wrap;rounded=0;" vertex="1" parent="1">
          <mxGeometry x="1105" y="6220" width="60" height="30" as="geometry" />
        </mxCell>
        <mxCell id="Fofwsoo18Ka0ADrm3eSA-278" value="&lt;font style=&quot;font-size: 28px;&quot;&gt;POST&lt;/font&gt;" style="text;html=1;align=center;verticalAlign=middle;whiteSpace=wrap;rounded=0;" vertex="1" parent="1">
          <mxGeometry x="1107.5" y="6430" width="60" height="30" as="geometry" />
        </mxCell>
        <mxCell id="Fofwsoo18Ka0ADrm3eSA-280" value="" style="rounded=1;whiteSpace=wrap;html=1;" vertex="1" parent="1">
          <mxGeometry x="1270" y="6410" width="380" height="75" as="geometry" />
        </mxCell>
        <mxCell id="Fofwsoo18Ka0ADrm3eSA-281" value="Enter grades for a student in a specific course" style="text;html=1;align=center;verticalAlign=middle;whiteSpace=wrap;rounded=0;" vertex="1" parent="1">
          <mxGeometry x="1280" y="6430" width="360" height="30" as="geometry" />
        </mxCell>
        <mxCell id="Fofwsoo18Ka0ADrm3eSA-282" style="edgeStyle=orthogonalEdgeStyle;rounded=0;orthogonalLoop=1;jettySize=auto;html=1;exitX=0.5;exitY=1;exitDx=0;exitDy=0;" edge="1" parent="1" source="Fofwsoo18Ka0ADrm3eSA-264" target="Fofwsoo18Ka0ADrm3eSA-264">
          <mxGeometry relative="1" as="geometry" />
        </mxCell>
        <mxCell id="Fofwsoo18Ka0ADrm3eSA-283" value="&lt;font style=&quot;font-size: 23px;&quot;&gt;/api/v1/grades/{student_id}/{course_id}&lt;/font&gt;" style="text;html=1;align=center;verticalAlign=middle;whiteSpace=wrap;rounded=0;" vertex="1" parent="1">
          <mxGeometry x="1420" y="6360" width="60" height="30" as="geometry" />
        </mxCell>
        <mxCell id="Fofwsoo18Ka0ADrm3eSA-285" value="" style="rounded=1;whiteSpace=wrap;html=1;" vertex="1" parent="1">
          <mxGeometry x="325" y="6470" width="470" height="270" as="geometry" />
        </mxCell>
        <mxCell id="Fofwsoo18Ka0ADrm3eSA-286" value="" style="rounded=1;whiteSpace=wrap;html=1;" vertex="1" parent="1">
          <mxGeometry x="125" y="6340" width="680" height="540" as="geometry" />
        </mxCell>
        <mxCell id="Fofwsoo18Ka0ADrm3eSA-287" value="&lt;b&gt;&lt;font style=&quot;font-size: 33px;&quot;&gt;ATTENDANCE TRACKING&lt;/font&gt;&lt;/b&gt;" style="text;html=1;align=center;verticalAlign=middle;whiteSpace=wrap;rounded=0;fontColor=#FF8000;" vertex="1" parent="1">
          <mxGeometry x="257.5" y="6360" width="440" height="30" as="geometry" />
        </mxCell>
        <mxCell id="Fofwsoo18Ka0ADrm3eSA-288" value="" style="rounded=1;whiteSpace=wrap;html=1;fillColor=#f8cecc;strokeColor=#b85450;" vertex="1" parent="1">
          <mxGeometry x="145" y="6470" width="170" height="360" as="geometry" />
        </mxCell>
        <mxCell id="Fofwsoo18Ka0ADrm3eSA-289" style="edgeStyle=orthogonalEdgeStyle;rounded=0;orthogonalLoop=1;jettySize=auto;html=1;" edge="1" parent="1">
          <mxGeometry relative="1" as="geometry">
            <mxPoint x="555" y="6665" as="sourcePoint" />
            <mxPoint x="555" y="6685" as="targetPoint" />
          </mxGeometry>
        </mxCell>
        <mxCell id="Fofwsoo18Ka0ADrm3eSA-290" value="&lt;span style=&quot;font-size: 33px;&quot;&gt;&lt;b&gt;METHOD&lt;/b&gt;&lt;/span&gt;" style="text;html=1;align=center;verticalAlign=middle;whiteSpace=wrap;rounded=0;" vertex="1" parent="1">
          <mxGeometry x="70" y="6420" width="320" height="30" as="geometry" />
        </mxCell>
        <mxCell id="Fofwsoo18Ka0ADrm3eSA-291" value="&lt;span style=&quot;font-size: 33px;&quot;&gt;&lt;b&gt;URL&lt;/b&gt;&lt;/span&gt;" style="text;html=1;align=center;verticalAlign=middle;whiteSpace=wrap;rounded=0;" vertex="1" parent="1">
          <mxGeometry x="345" y="6415" width="320" height="30" as="geometry" />
        </mxCell>
        <mxCell id="Fofwsoo18Ka0ADrm3eSA-292" style="edgeStyle=orthogonalEdgeStyle;rounded=0;orthogonalLoop=1;jettySize=auto;html=1;" edge="1" parent="1">
          <mxGeometry relative="1" as="geometry">
            <mxPoint x="555" y="6665" as="sourcePoint" />
            <mxPoint x="555" y="6685" as="targetPoint" />
          </mxGeometry>
        </mxCell>
        <mxCell id="Fofwsoo18Ka0ADrm3eSA-293" value="" style="rounded=1;whiteSpace=wrap;html=1;fillColor=#dae8fc;strokeColor=#6c8ebf;" vertex="1" parent="1">
          <mxGeometry x="335" y="6470" width="430" height="370" as="geometry" />
        </mxCell>
        <mxCell id="Fofwsoo18Ka0ADrm3eSA-294" value="&lt;font style=&quot;font-size: 28px;&quot;&gt;GET&lt;/font&gt;" style="text;html=1;align=center;verticalAlign=middle;whiteSpace=wrap;rounded=0;" vertex="1" parent="1">
          <mxGeometry x="195" y="6540" width="60" height="30" as="geometry" />
        </mxCell>
        <mxCell id="Fofwsoo18Ka0ADrm3eSA-295" value="&lt;font style=&quot;font-size: 28px;&quot;&gt;POST&lt;/font&gt;" style="text;html=1;align=center;verticalAlign=middle;whiteSpace=wrap;rounded=0;" vertex="1" parent="1">
          <mxGeometry x="195" y="6742.5" width="60" height="30" as="geometry" />
        </mxCell>
        <mxCell id="Fofwsoo18Ka0ADrm3eSA-296" value="&lt;font style=&quot;font-size: 28px;&quot;&gt;/api/v1/attendance/{class_id}&lt;/font&gt;" style="text;html=1;align=center;verticalAlign=middle;whiteSpace=wrap;rounded=0;" vertex="1" parent="1">
          <mxGeometry x="521.25" y="6480" width="60" height="30" as="geometry" />
        </mxCell>
        <mxCell id="Fofwsoo18Ka0ADrm3eSA-297" value="&lt;font style=&quot;font-size: 28px;&quot;&gt;/api/v1/attendance/{class_id}&lt;/font&gt;" style="text;html=1;align=center;verticalAlign=middle;whiteSpace=wrap;rounded=0;" vertex="1" parent="1">
          <mxGeometry x="520" y="6670" width="60" height="30" as="geometry" />
        </mxCell>
        <mxCell id="Fofwsoo18Ka0ADrm3eSA-298" value="" style="rounded=1;whiteSpace=wrap;html=1;" vertex="1" parent="1">
          <mxGeometry x="355" y="6520" width="380" height="100" as="geometry" />
        </mxCell>
        <mxCell id="Fofwsoo18Ka0ADrm3eSA-299" value="Retrieve attendance of records for s specific class" style="text;html=1;align=center;verticalAlign=middle;whiteSpace=wrap;rounded=0;" vertex="1" parent="1">
          <mxGeometry x="365" y="6555" width="360" height="30" as="geometry" />
        </mxCell>
        <mxCell id="Fofwsoo18Ka0ADrm3eSA-300" value="" style="rounded=1;whiteSpace=wrap;html=1;" vertex="1" parent="1">
          <mxGeometry x="355" y="6720" width="380" height="75" as="geometry" />
        </mxCell>
        <mxCell id="Fofwsoo18Ka0ADrm3eSA-301" value="Mark attendance for students in a specific class" style="text;html=1;align=center;verticalAlign=middle;whiteSpace=wrap;rounded=0;" vertex="1" parent="1">
          <mxGeometry x="365" y="6740" width="360" height="30" as="geometry" />
        </mxCell>
        <mxCell id="Fofwsoo18Ka0ADrm3eSA-315" style="edgeStyle=orthogonalEdgeStyle;rounded=0;orthogonalLoop=1;jettySize=auto;html=1;" edge="1" parent="1" source="Fofwsoo18Ka0ADrm3eSA-293" target="Fofwsoo18Ka0ADrm3eSA-293">
          <mxGeometry relative="1" as="geometry" />
        </mxCell>
        <mxCell id="Fofwsoo18Ka0ADrm3eSA-316" value="" style="rounded=1;whiteSpace=wrap;html=1;" vertex="1" parent="1">
          <mxGeometry x="-490" y="2870" width="470" height="270" as="geometry" />
        </mxCell>
        <mxCell id="Fofwsoo18Ka0ADrm3eSA-317" value="" style="rounded=1;whiteSpace=wrap;html=1;" vertex="1" parent="1">
          <mxGeometry x="-690" y="2740" width="680" height="1810" as="geometry" />
        </mxCell>
        <mxCell id="Fofwsoo18Ka0ADrm3eSA-318" value="&lt;b&gt;&lt;font style=&quot;font-size: 33px;&quot;&gt;COMMUNICATION TOOLS&lt;/font&gt;&lt;/b&gt;" style="text;html=1;align=center;verticalAlign=middle;whiteSpace=wrap;rounded=0;fontColor=#FF8000;" vertex="1" parent="1">
          <mxGeometry x="-557.5" y="2760" width="440" height="30" as="geometry" />
        </mxCell>
        <mxCell id="Fofwsoo18Ka0ADrm3eSA-319" value="" style="rounded=1;whiteSpace=wrap;html=1;fillColor=#f8cecc;strokeColor=#b85450;" vertex="1" parent="1">
          <mxGeometry x="-670" y="2870" width="170" height="1610" as="geometry" />
        </mxCell>
        <mxCell id="Fofwsoo18Ka0ADrm3eSA-320" style="edgeStyle=orthogonalEdgeStyle;rounded=0;orthogonalLoop=1;jettySize=auto;html=1;" edge="1" parent="1">
          <mxGeometry relative="1" as="geometry">
            <mxPoint x="-260" y="3065" as="sourcePoint" />
            <mxPoint x="-260" y="3085" as="targetPoint" />
          </mxGeometry>
        </mxCell>
        <mxCell id="Fofwsoo18Ka0ADrm3eSA-321" value="&lt;span style=&quot;font-size: 33px;&quot;&gt;&lt;b&gt;METHOD&lt;/b&gt;&lt;/span&gt;" style="text;html=1;align=center;verticalAlign=middle;whiteSpace=wrap;rounded=0;" vertex="1" parent="1">
          <mxGeometry x="-745" y="2820" width="320" height="30" as="geometry" />
        </mxCell>
        <mxCell id="Fofwsoo18Ka0ADrm3eSA-322" value="&lt;span style=&quot;font-size: 33px;&quot;&gt;&lt;b&gt;URL&lt;/b&gt;&lt;/span&gt;" style="text;html=1;align=center;verticalAlign=middle;whiteSpace=wrap;rounded=0;" vertex="1" parent="1">
          <mxGeometry x="-470" y="2815" width="320" height="30" as="geometry" />
        </mxCell>
        <mxCell id="Fofwsoo18Ka0ADrm3eSA-323" style="edgeStyle=orthogonalEdgeStyle;rounded=0;orthogonalLoop=1;jettySize=auto;html=1;" edge="1" parent="1">
          <mxGeometry relative="1" as="geometry">
            <mxPoint x="-260" y="3065" as="sourcePoint" />
            <mxPoint x="-260" y="3085" as="targetPoint" />
          </mxGeometry>
        </mxCell>
        <mxCell id="Fofwsoo18Ka0ADrm3eSA-324" value="" style="rounded=1;whiteSpace=wrap;html=1;fillColor=#dae8fc;strokeColor=#6c8ebf;" vertex="1" parent="1">
          <mxGeometry x="-480" y="2870" width="430" height="1620" as="geometry" />
        </mxCell>
        <mxCell id="Fofwsoo18Ka0ADrm3eSA-325" value="&lt;font style=&quot;font-size: 28px;&quot;&gt;GET&lt;/font&gt;" style="text;html=1;align=center;verticalAlign=middle;whiteSpace=wrap;rounded=0;" vertex="1" parent="1">
          <mxGeometry x="-620" y="2940" width="60" height="30" as="geometry" />
        </mxCell>
        <mxCell id="Fofwsoo18Ka0ADrm3eSA-326" value="&lt;font style=&quot;font-size: 28px;&quot;&gt;GET&lt;/font&gt;" style="text;html=1;align=center;verticalAlign=middle;whiteSpace=wrap;rounded=0;" vertex="1" parent="1">
          <mxGeometry x="-620" y="3142.5" width="60" height="30" as="geometry" />
        </mxCell>
        <mxCell id="Fofwsoo18Ka0ADrm3eSA-327" value="&lt;font style=&quot;font-size: 28px;&quot;&gt;/api/v1/announcements&lt;/font&gt;" style="text;html=1;align=center;verticalAlign=middle;whiteSpace=wrap;rounded=0;" vertex="1" parent="1">
          <mxGeometry x="-312.5" y="2880" width="60" height="30" as="geometry" />
        </mxCell>
        <mxCell id="Fofwsoo18Ka0ADrm3eSA-328" value="&lt;font style=&quot;font-size: 23px;&quot;&gt;/api/v1/announcements/{target_group}&lt;/font&gt;" style="text;html=1;align=center;verticalAlign=middle;whiteSpace=wrap;rounded=0;" vertex="1" parent="1">
          <mxGeometry x="-295" y="3070" width="60" height="30" as="geometry" />
        </mxCell>
        <mxCell id="Fofwsoo18Ka0ADrm3eSA-329" value="" style="rounded=1;whiteSpace=wrap;html=1;" vertex="1" parent="1">
          <mxGeometry x="-460" y="2920" width="380" height="100" as="geometry" />
        </mxCell>
        <mxCell id="Fofwsoo18Ka0ADrm3eSA-330" value="Retrieve a list of announcements" style="text;html=1;align=center;verticalAlign=middle;whiteSpace=wrap;rounded=0;" vertex="1" parent="1">
          <mxGeometry x="-450" y="2955" width="360" height="30" as="geometry" />
        </mxCell>
        <mxCell id="Fofwsoo18Ka0ADrm3eSA-331" value="" style="rounded=1;whiteSpace=wrap;html=1;" vertex="1" parent="1">
          <mxGeometry x="-460" y="3120" width="380" height="75" as="geometry" />
        </mxCell>
        <mxCell id="Fofwsoo18Ka0ADrm3eSA-332" value="Retrieve announcements for a specific target group&lt;br&gt;for example, teaching staff, non teaching staff, parents or students" style="text;html=1;align=center;verticalAlign=middle;whiteSpace=wrap;rounded=0;" vertex="1" parent="1">
          <mxGeometry x="-450" y="3140" width="360" height="30" as="geometry" />
        </mxCell>
        <mxCell id="Fofwsoo18Ka0ADrm3eSA-333" value="&lt;font style=&quot;font-size: 28px;&quot;&gt;POST&lt;/font&gt;" style="text;html=1;align=center;verticalAlign=middle;whiteSpace=wrap;rounded=0;" vertex="1" parent="1">
          <mxGeometry x="-622.5" y="3430" width="60" height="30" as="geometry" />
        </mxCell>
        <mxCell id="Fofwsoo18Ka0ADrm3eSA-334" value="&lt;font style=&quot;font-size: 28px;&quot;&gt;/api/v1/announcements&lt;/font&gt;" style="text;html=1;align=center;verticalAlign=middle;whiteSpace=wrap;rounded=0;" vertex="1" parent="1">
          <mxGeometry x="-312.5" y="3360" width="60" height="30" as="geometry" />
        </mxCell>
        <mxCell id="Fofwsoo18Ka0ADrm3eSA-335" value="" style="rounded=1;whiteSpace=wrap;html=1;" vertex="1" parent="1">
          <mxGeometry x="-462.5" y="3410" width="380" height="75" as="geometry" />
        </mxCell>
        <mxCell id="Fofwsoo18Ka0ADrm3eSA-336" value="Create a new&amp;nbsp; announcement" style="text;html=1;align=center;verticalAlign=middle;whiteSpace=wrap;rounded=0;" vertex="1" parent="1">
          <mxGeometry x="-462.5" y="3432.5" width="360" height="30" as="geometry" />
        </mxCell>
        <mxCell id="Fofwsoo18Ka0ADrm3eSA-337" value="&lt;font style=&quot;font-size: 21px;&quot;&gt;/api/v1/announcements/{announcement_id}&lt;/font&gt;" style="text;html=1;align=center;verticalAlign=middle;whiteSpace=wrap;rounded=0;" vertex="1" parent="1">
          <mxGeometry x="-297.5" y="3510" width="60" height="30" as="geometry" />
        </mxCell>
        <mxCell id="Fofwsoo18Ka0ADrm3eSA-338" value="" style="rounded=1;whiteSpace=wrap;html=1;" vertex="1" parent="1">
          <mxGeometry x="-465" y="3560" width="380" height="75" as="geometry" />
        </mxCell>
        <mxCell id="Fofwsoo18Ka0ADrm3eSA-339" value="Update an existing announcement" style="text;html=1;align=center;verticalAlign=middle;whiteSpace=wrap;rounded=0;" vertex="1" parent="1">
          <mxGeometry x="-455" y="3580" width="360" height="30" as="geometry" />
        </mxCell>
        <mxCell id="Fofwsoo18Ka0ADrm3eSA-340" value="&lt;font style=&quot;font-size: 28px;&quot;&gt;PUT&lt;/font&gt;" style="text;html=1;align=center;verticalAlign=middle;whiteSpace=wrap;rounded=0;" vertex="1" parent="1">
          <mxGeometry x="-610.1600000000001" y="3580" width="60" height="30" as="geometry" />
        </mxCell>
        <mxCell id="Fofwsoo18Ka0ADrm3eSA-341" value="&lt;font style=&quot;font-size: 28px;&quot;&gt;DELETE&lt;/font&gt;" style="text;html=1;align=center;verticalAlign=middle;whiteSpace=wrap;rounded=0;" vertex="1" parent="1">
          <mxGeometry x="-620.0000000000001" y="4260" width="60" height="30" as="geometry" />
        </mxCell>
        <mxCell id="Fofwsoo18Ka0ADrm3eSA-342" value="&lt;font style=&quot;font-size: 22px;&quot;&gt;/api/v1/announcements/{announcement_id}&lt;/font&gt;" style="text;html=1;align=center;verticalAlign=middle;whiteSpace=wrap;rounded=0;" vertex="1" parent="1">
          <mxGeometry x="-290" y="4170" width="60" height="30" as="geometry" />
        </mxCell>
        <mxCell id="Fofwsoo18Ka0ADrm3eSA-343" value="" style="rounded=1;whiteSpace=wrap;html=1;" vertex="1" parent="1">
          <mxGeometry x="-457.5" y="4237.5" width="380" height="75" as="geometry" />
        </mxCell>
        <mxCell id="Fofwsoo18Ka0ADrm3eSA-344" value="Delete an announcement" style="text;html=1;align=center;verticalAlign=middle;whiteSpace=wrap;rounded=0;" vertex="1" parent="1">
          <mxGeometry x="-447.5" y="4257.5" width="360" height="30" as="geometry" />
        </mxCell>
        <mxCell id="Fofwsoo18Ka0ADrm3eSA-345" value="&lt;font style=&quot;font-size: 21px;&quot;&gt;/api/v1/messages/{message_id}&lt;/font&gt;" style="text;html=1;align=center;verticalAlign=middle;whiteSpace=wrap;rounded=0;" vertex="1" parent="1">
          <mxGeometry x="-297.5" y="3675" width="60" height="30" as="geometry" />
        </mxCell>
        <mxCell id="Fofwsoo18Ka0ADrm3eSA-346" value="" style="rounded=1;whiteSpace=wrap;html=1;" vertex="1" parent="1">
          <mxGeometry x="-465" y="3725" width="380" height="75" as="geometry" />
        </mxCell>
        <mxCell id="Fofwsoo18Ka0ADrm3eSA-347" value="Retrieve a specific message." style="text;html=1;align=center;verticalAlign=middle;whiteSpace=wrap;rounded=0;" vertex="1" parent="1">
          <mxGeometry x="-455" y="3745" width="360" height="30" as="geometry" />
        </mxCell>
        <mxCell id="Fofwsoo18Ka0ADrm3eSA-348" value="&lt;font style=&quot;font-size: 28px;&quot;&gt;GET&lt;/font&gt;" style="text;html=1;align=center;verticalAlign=middle;whiteSpace=wrap;rounded=0;" vertex="1" parent="1">
          <mxGeometry x="-610.1600000000001" y="3745" width="60" height="30" as="geometry" />
        </mxCell>
        <mxCell id="Fofwsoo18Ka0ADrm3eSA-349" value="&lt;font style=&quot;font-size: 28px;&quot;&gt;GET&lt;/font&gt;" style="text;html=1;align=center;verticalAlign=middle;whiteSpace=wrap;rounded=0;" vertex="1" parent="1">
          <mxGeometry x="-620" y="3290" width="60" height="30" as="geometry" />
        </mxCell>
        <mxCell id="Fofwsoo18Ka0ADrm3eSA-350" value="&lt;font style=&quot;font-size: 19px;&quot;&gt;/api/v1/announcements/{announcement_id}&lt;/font&gt;" style="text;html=1;align=center;verticalAlign=middle;whiteSpace=wrap;rounded=0;" vertex="1" parent="1">
          <mxGeometry x="-310" y="3220" width="60" height="30" as="geometry" />
        </mxCell>
        <mxCell id="Fofwsoo18Ka0ADrm3eSA-351" value="" style="rounded=1;whiteSpace=wrap;html=1;" vertex="1" parent="1">
          <mxGeometry x="-460" y="3270" width="380" height="75" as="geometry" />
        </mxCell>
        <mxCell id="Fofwsoo18Ka0ADrm3eSA-352" value="Create a specific announcement" style="text;html=1;align=center;verticalAlign=middle;whiteSpace=wrap;rounded=0;" vertex="1" parent="1">
          <mxGeometry x="-460" y="3292.5" width="360" height="30" as="geometry" />
        </mxCell>
        <mxCell id="Fofwsoo18Ka0ADrm3eSA-353" value="&lt;font style=&quot;font-size: 28px;&quot;&gt;GET&lt;/font&gt;" style="text;html=1;align=center;verticalAlign=middle;whiteSpace=wrap;rounded=0;" vertex="1" parent="1">
          <mxGeometry x="-620.0000000000001" y="3910" width="60" height="30" as="geometry" />
        </mxCell>
        <mxCell id="Fofwsoo18Ka0ADrm3eSA-355" value="&lt;font style=&quot;font-size: 21px;&quot;&gt;/api/v1/messages/{user_id}&lt;/font&gt;" style="text;html=1;align=center;verticalAlign=middle;whiteSpace=wrap;rounded=0;" vertex="1" parent="1">
          <mxGeometry x="-290" y="3830" width="60" height="30" as="geometry" />
        </mxCell>
        <mxCell id="Fofwsoo18Ka0ADrm3eSA-356" value="" style="rounded=1;whiteSpace=wrap;html=1;" vertex="1" parent="1">
          <mxGeometry x="-457.5" y="3880" width="380" height="75" as="geometry" />
        </mxCell>
        <mxCell id="Fofwsoo18Ka0ADrm3eSA-357" value="Retrieve messages of a specific" style="text;html=1;align=center;verticalAlign=middle;whiteSpace=wrap;rounded=0;" vertex="1" parent="1">
          <mxGeometry x="-447.5" y="3900" width="360" height="30" as="geometry" />
        </mxCell>
        <mxCell id="Fofwsoo18Ka0ADrm3eSA-358" value="&lt;font style=&quot;font-size: 21px;&quot;&gt;/api/v1/messages&lt;/font&gt;" style="text;html=1;align=center;verticalAlign=middle;whiteSpace=wrap;rounded=0;" vertex="1" parent="1">
          <mxGeometry x="-295" y="3992.5" width="60" height="30" as="geometry" />
        </mxCell>
        <mxCell id="Fofwsoo18Ka0ADrm3eSA-359" value="" style="rounded=1;whiteSpace=wrap;html=1;" vertex="1" parent="1">
          <mxGeometry x="-462.5" y="4042.5" width="380" height="75" as="geometry" />
        </mxCell>
        <mxCell id="Fofwsoo18Ka0ADrm3eSA-360" value="Send a message to a user or group of users" style="text;html=1;align=center;verticalAlign=middle;whiteSpace=wrap;rounded=0;" vertex="1" parent="1">
          <mxGeometry x="-452.5" y="4062.5" width="360" height="30" as="geometry" />
        </mxCell>
        <mxCell id="Fofwsoo18Ka0ADrm3eSA-361" value="&lt;font style=&quot;font-size: 28px;&quot;&gt;POST&lt;/font&gt;" style="text;html=1;align=center;verticalAlign=middle;whiteSpace=wrap;rounded=0;" vertex="1" parent="1">
          <mxGeometry x="-607.6600000000001" y="4062.5" width="60" height="30" as="geometry" />
        </mxCell>
      </root>
    </mxGraphModel>
  </diagram>
</mxfile>
